G04 EAGLE Gerber RS-274X export*
G75*
%MOMM*%
%FSLAX34Y34*%
%LPD*%
%INMT*%
%IPPOS*%
%AMOC8*
5,1,8,0,0,1.08239X$1,22.5*%
G01*
%ADD10R,1.400000X2.200000*%
%ADD11R,2.000000X3.200000*%
%ADD12R,1.900000X2.450000*%
%ADD13R,3.050000X3.200000*%
%ADD14C,1.622400*%
%ADD15R,2.400000X1.000000*%
%ADD16R,1.400000X1.100000*%
%ADD17R,2.900000X2.700000*%
%ADD18R,2.800000X1.260000*%
%ADD19R,5.900000X5.832000*%
%ADD20C,3.200000*%
%ADD21C,6.200000*%


D10*
X93500Y119900D03*
X123500Y119900D03*
X451900Y120200D03*
X481900Y120200D03*
D11*
X233800Y170800D03*
X307800Y170800D03*
D12*
X465200Y148650D03*
X465200Y193150D03*
D13*
X351050Y176300D03*
X401550Y176300D03*
D14*
X172400Y70000D03*
X147000Y70000D03*
X147200Y124600D03*
X172600Y124600D03*
D15*
X274300Y65850D03*
X274300Y53150D03*
X274300Y40450D03*
X274300Y27750D03*
X216900Y65850D03*
X216900Y53150D03*
X216900Y40450D03*
X216900Y27750D03*
X274200Y124550D03*
X274200Y111850D03*
X274200Y99150D03*
X274200Y86450D03*
X216800Y124550D03*
X216800Y111850D03*
X216800Y99150D03*
X216800Y86450D03*
D16*
X142100Y19900D03*
X142100Y34900D03*
X195900Y86200D03*
X195900Y101200D03*
X297600Y69200D03*
X297600Y84200D03*
D17*
X119100Y170700D03*
X185100Y170700D03*
D18*
X314100Y56140D03*
X314100Y101860D03*
D19*
X390100Y79000D03*
D10*
X94100Y90400D03*
X124100Y90400D03*
X93900Y59900D03*
X123900Y59900D03*
X94300Y31100D03*
X124300Y31100D03*
X451400Y91300D03*
X481400Y91300D03*
X450800Y61800D03*
X480800Y61800D03*
X451700Y34200D03*
X481700Y34200D03*
D20*
X59700Y129500D03*
X510000Y130000D03*
D21*
X40000Y180000D03*
X40000Y40000D03*
X540000Y40000D03*
X540000Y180000D03*
D20*
X510000Y90000D03*
X60000Y90000D03*
M02*
