G04 EAGLE Gerber RS-274X export*
G75*
%MOMM*%
%FSLAX34Y34*%
%LPD*%
%INTop Copper*%
%IPPOS*%
%AMOC8*
5,1,8,0,0,1.08239X$1,22.5*%
G01*
%ADD10R,1.200000X2.000000*%
%ADD11R,1.800000X3.000000*%
%ADD12R,1.700000X2.250000*%
%ADD13R,2.850000X3.000000*%
%ADD14C,1.422400*%
%ADD15R,2.200000X0.800000*%
%ADD16R,1.200000X0.900000*%
%ADD17R,2.700000X2.500000*%
%ADD18R,2.600000X1.060000*%
%ADD19R,5.700000X5.632000*%
%ADD20C,0.609600*%
%ADD21C,0.650000*%
%ADD22C,3.000000*%
%ADD23C,6.000000*%

G36*
X134405Y70915D02*
X134405Y70915D01*
X134471Y70912D01*
X134651Y70931D01*
X134831Y70942D01*
X134896Y70957D01*
X134962Y70964D01*
X135136Y71012D01*
X135312Y71052D01*
X135373Y71077D01*
X135438Y71095D01*
X135602Y71170D01*
X135769Y71238D01*
X135825Y71272D01*
X135886Y71300D01*
X136036Y71401D01*
X136190Y71495D01*
X136240Y71539D01*
X136295Y71576D01*
X136427Y71699D01*
X136564Y71817D01*
X136606Y71868D01*
X136655Y71913D01*
X136765Y72057D01*
X136881Y72195D01*
X136906Y72241D01*
X136955Y72305D01*
X137188Y72740D01*
X137199Y72771D01*
X137210Y72792D01*
X138427Y75728D01*
X141272Y78573D01*
X144988Y80113D01*
X149012Y80113D01*
X152728Y78573D01*
X155573Y75728D01*
X155924Y74882D01*
X156024Y74687D01*
X156119Y74491D01*
X156136Y74468D01*
X156149Y74443D01*
X156279Y74267D01*
X156405Y74089D01*
X156425Y74069D01*
X156442Y74046D01*
X156598Y73893D01*
X156752Y73738D01*
X156775Y73721D01*
X156795Y73701D01*
X156974Y73576D01*
X157150Y73448D01*
X157176Y73435D01*
X157199Y73418D01*
X157396Y73324D01*
X157591Y73225D01*
X157618Y73217D01*
X157644Y73204D01*
X157853Y73143D01*
X158061Y73077D01*
X158085Y73074D01*
X158117Y73065D01*
X158606Y73004D01*
X158687Y73007D01*
X158739Y73001D01*
X160661Y73001D01*
X160879Y73018D01*
X161097Y73032D01*
X161124Y73038D01*
X161153Y73041D01*
X161365Y73093D01*
X161577Y73142D01*
X161604Y73153D01*
X161631Y73159D01*
X161832Y73246D01*
X162034Y73328D01*
X162059Y73343D01*
X162085Y73354D01*
X162269Y73471D01*
X162455Y73585D01*
X162477Y73604D01*
X162501Y73619D01*
X162663Y73764D01*
X162829Y73907D01*
X162848Y73929D01*
X162869Y73948D01*
X163006Y74117D01*
X163146Y74285D01*
X163158Y74305D01*
X163179Y74332D01*
X163423Y74760D01*
X163451Y74836D01*
X163476Y74882D01*
X163827Y75728D01*
X166672Y78573D01*
X170388Y80113D01*
X173691Y80113D01*
X173729Y80116D01*
X173767Y80114D01*
X173975Y80136D01*
X174182Y80153D01*
X174219Y80162D01*
X174257Y80166D01*
X174459Y80221D01*
X174661Y80271D01*
X174696Y80286D01*
X174733Y80297D01*
X174923Y80384D01*
X175115Y80466D01*
X175147Y80486D01*
X175182Y80502D01*
X175355Y80619D01*
X175531Y80731D01*
X175559Y80756D01*
X175591Y80778D01*
X175743Y80921D01*
X175899Y81060D01*
X175923Y81089D01*
X175950Y81116D01*
X176078Y81282D01*
X176209Y81444D01*
X176227Y81477D01*
X176251Y81507D01*
X176350Y81691D01*
X176453Y81872D01*
X176466Y81908D01*
X176484Y81942D01*
X176551Y82139D01*
X176624Y82335D01*
X176631Y82372D01*
X176644Y82408D01*
X176679Y82614D01*
X176719Y82819D01*
X176720Y82857D01*
X176726Y82895D01*
X176728Y83104D01*
X176734Y83312D01*
X176729Y83350D01*
X176729Y83388D01*
X176697Y83594D01*
X176670Y83801D01*
X176659Y83838D01*
X176653Y83875D01*
X176588Y84073D01*
X176527Y84273D01*
X176510Y84308D01*
X176499Y84344D01*
X176402Y84529D01*
X176310Y84717D01*
X176288Y84748D01*
X176271Y84782D01*
X176213Y84854D01*
X176025Y85119D01*
X175904Y85241D01*
X175845Y85315D01*
X175751Y85409D01*
X174799Y87707D01*
X174799Y90193D01*
X175751Y92491D01*
X177509Y94249D01*
X179807Y95201D01*
X182311Y95201D01*
X182465Y95152D01*
X182691Y95079D01*
X182700Y95078D01*
X182709Y95075D01*
X182750Y95071D01*
X183178Y95006D01*
X183309Y95008D01*
X183387Y94999D01*
X183852Y94999D01*
X183928Y95005D01*
X184004Y95003D01*
X184173Y95025D01*
X184344Y95039D01*
X184418Y95057D01*
X184493Y95067D01*
X184657Y95116D01*
X184823Y95157D01*
X184892Y95187D01*
X184966Y95209D01*
X185119Y95285D01*
X185276Y95352D01*
X185340Y95393D01*
X185409Y95426D01*
X185548Y95525D01*
X185692Y95617D01*
X185749Y95668D01*
X185811Y95712D01*
X185932Y95832D01*
X186060Y95946D01*
X186108Y96005D01*
X186162Y96059D01*
X186263Y96197D01*
X186370Y96330D01*
X186407Y96396D01*
X186452Y96457D01*
X186529Y96610D01*
X186614Y96758D01*
X186640Y96830D01*
X186675Y96898D01*
X186726Y97061D01*
X186785Y97221D01*
X186800Y97296D01*
X186823Y97368D01*
X186835Y97473D01*
X186880Y97705D01*
X186887Y97941D01*
X186899Y98046D01*
X186899Y106943D01*
X187709Y107752D01*
X187783Y107839D01*
X187864Y107920D01*
X187942Y108027D01*
X188028Y108128D01*
X188087Y108226D01*
X188154Y108318D01*
X188214Y108437D01*
X188283Y108551D01*
X188325Y108657D01*
X188377Y108759D01*
X188417Y108886D01*
X188466Y109009D01*
X188491Y109120D01*
X188525Y109229D01*
X188535Y109323D01*
X188573Y109491D01*
X188591Y109815D01*
X188601Y109907D01*
X188601Y117613D01*
X188600Y117623D01*
X188601Y117632D01*
X188581Y117868D01*
X188561Y118105D01*
X188559Y118114D01*
X188558Y118124D01*
X188547Y118162D01*
X188443Y118583D01*
X188399Y118684D01*
X188399Y120997D01*
X188388Y121139D01*
X188386Y121247D01*
X188556Y121583D01*
X188575Y121618D01*
X189351Y123491D01*
X191109Y125249D01*
X193407Y126201D01*
X195893Y126201D01*
X198586Y125085D01*
X198757Y125030D01*
X198927Y124967D01*
X198992Y124955D01*
X199055Y124934D01*
X199234Y124907D01*
X199411Y124873D01*
X199477Y124871D01*
X199543Y124861D01*
X199724Y124863D01*
X199904Y124857D01*
X199970Y124866D01*
X200037Y124867D01*
X200214Y124898D01*
X200393Y124922D01*
X200457Y124941D01*
X200522Y124952D01*
X200693Y125012D01*
X200866Y125064D01*
X200925Y125093D01*
X200988Y125115D01*
X201146Y125202D01*
X201309Y125281D01*
X201363Y125320D01*
X201421Y125351D01*
X201564Y125462D01*
X201711Y125567D01*
X201758Y125613D01*
X201811Y125654D01*
X201934Y125787D01*
X202062Y125913D01*
X202101Y125967D01*
X202146Y126016D01*
X202246Y126166D01*
X202352Y126312D01*
X202382Y126371D01*
X202419Y126427D01*
X202493Y126591D01*
X202575Y126752D01*
X202595Y126816D01*
X202622Y126877D01*
X202669Y127050D01*
X202723Y127223D01*
X202729Y127276D01*
X202750Y127353D01*
X202799Y127844D01*
X202797Y127877D01*
X202799Y127901D01*
X202799Y129793D01*
X202871Y129865D01*
X202921Y129923D01*
X202976Y129975D01*
X203080Y130111D01*
X203191Y130241D01*
X203230Y130306D01*
X203276Y130367D01*
X203357Y130517D01*
X203445Y130663D01*
X203474Y130734D01*
X203510Y130801D01*
X203565Y130963D01*
X203628Y131122D01*
X203645Y131196D01*
X203670Y131268D01*
X203698Y131437D01*
X203735Y131603D01*
X203740Y131679D01*
X203752Y131754D01*
X203753Y131925D01*
X203763Y132096D01*
X203755Y132172D01*
X203755Y132248D01*
X203729Y132416D01*
X203711Y132586D01*
X203691Y132660D01*
X203679Y132735D01*
X203625Y132897D01*
X203580Y133062D01*
X203548Y133131D01*
X203524Y133204D01*
X203445Y133356D01*
X203374Y133510D01*
X203332Y133573D01*
X203297Y133641D01*
X203231Y133724D01*
X203099Y133920D01*
X202937Y134092D01*
X202871Y134174D01*
X191472Y145574D01*
X190551Y147797D01*
X190551Y152152D01*
X190545Y152228D01*
X190547Y152304D01*
X190525Y152473D01*
X190511Y152644D01*
X190493Y152718D01*
X190483Y152793D01*
X190434Y152957D01*
X190393Y153123D01*
X190363Y153192D01*
X190341Y153266D01*
X190265Y153419D01*
X190198Y153576D01*
X190157Y153640D01*
X190124Y153709D01*
X190025Y153848D01*
X189933Y153992D01*
X189882Y154049D01*
X189838Y154111D01*
X189718Y154232D01*
X189604Y154360D01*
X189545Y154408D01*
X189491Y154462D01*
X189353Y154563D01*
X189220Y154670D01*
X189154Y154707D01*
X189093Y154752D01*
X188940Y154829D01*
X188792Y154914D01*
X188720Y154940D01*
X188652Y154975D01*
X188489Y155026D01*
X188329Y155085D01*
X188254Y155100D01*
X188182Y155123D01*
X188077Y155135D01*
X187845Y155180D01*
X187609Y155187D01*
X187504Y155199D01*
X170357Y155199D01*
X168599Y156957D01*
X168599Y184443D01*
X170357Y186201D01*
X199843Y186201D01*
X201601Y184443D01*
X201601Y163539D01*
X201602Y163530D01*
X201601Y163520D01*
X201621Y163285D01*
X201641Y163048D01*
X201643Y163038D01*
X201644Y163029D01*
X201655Y162990D01*
X201759Y162569D01*
X201811Y162449D01*
X201833Y162373D01*
X202649Y160403D01*
X202649Y152768D01*
X202658Y152654D01*
X202657Y152540D01*
X202678Y152408D01*
X202689Y152276D01*
X202716Y152165D01*
X202734Y152052D01*
X202775Y151926D01*
X202807Y151797D01*
X202852Y151692D01*
X202888Y151584D01*
X202950Y151466D01*
X203002Y151344D01*
X203063Y151248D01*
X203116Y151146D01*
X203175Y151073D01*
X203267Y150928D01*
X203483Y150685D01*
X203541Y150613D01*
X216128Y138026D01*
X217049Y135803D01*
X217049Y134598D01*
X217055Y134522D01*
X217053Y134446D01*
X217075Y134277D01*
X217089Y134106D01*
X217107Y134032D01*
X217117Y133957D01*
X217166Y133793D01*
X217207Y133627D01*
X217237Y133558D01*
X217259Y133484D01*
X217335Y133331D01*
X217402Y133174D01*
X217443Y133110D01*
X217476Y133041D01*
X217575Y132902D01*
X217667Y132758D01*
X217718Y132701D01*
X217762Y132639D01*
X217882Y132518D01*
X217996Y132390D01*
X218055Y132342D01*
X218109Y132288D01*
X218247Y132187D01*
X218380Y132080D01*
X218446Y132043D01*
X218507Y131998D01*
X218660Y131921D01*
X218808Y131836D01*
X218880Y131810D01*
X218948Y131775D01*
X219111Y131724D01*
X219271Y131665D01*
X219346Y131650D01*
X219418Y131627D01*
X219523Y131615D01*
X219755Y131570D01*
X219991Y131563D01*
X220096Y131551D01*
X229043Y131551D01*
X230801Y129793D01*
X230801Y108246D01*
X230807Y108170D01*
X230805Y108094D01*
X230827Y107925D01*
X230841Y107754D01*
X230859Y107680D01*
X230869Y107605D01*
X230918Y107441D01*
X230959Y107275D01*
X230989Y107206D01*
X231011Y107132D01*
X231087Y106979D01*
X231154Y106822D01*
X231195Y106758D01*
X231228Y106689D01*
X231327Y106550D01*
X231419Y106406D01*
X231470Y106349D01*
X231514Y106287D01*
X231634Y106166D01*
X231748Y106038D01*
X231807Y105990D01*
X231861Y105936D01*
X231999Y105835D01*
X232132Y105728D01*
X232198Y105691D01*
X232259Y105646D01*
X232412Y105569D01*
X232560Y105484D01*
X232632Y105458D01*
X232700Y105423D01*
X232863Y105372D01*
X233023Y105313D01*
X233098Y105298D01*
X233170Y105275D01*
X233275Y105263D01*
X233507Y105218D01*
X233743Y105211D01*
X233848Y105199D01*
X239503Y105199D01*
X241726Y104278D01*
X254997Y91007D01*
X255026Y90982D01*
X255052Y90954D01*
X255214Y90823D01*
X255373Y90687D01*
X255406Y90668D01*
X255436Y90644D01*
X255616Y90541D01*
X255796Y90433D01*
X255831Y90419D01*
X255864Y90400D01*
X256060Y90327D01*
X256254Y90250D01*
X256291Y90242D01*
X256327Y90228D01*
X256532Y90188D01*
X256736Y90143D01*
X256774Y90141D01*
X256811Y90134D01*
X257019Y90127D01*
X257228Y90115D01*
X257266Y90119D01*
X257304Y90118D01*
X257511Y90145D01*
X257719Y90168D01*
X257755Y90178D01*
X257793Y90183D01*
X257993Y90243D01*
X258194Y90298D01*
X258229Y90314D01*
X258266Y90325D01*
X258453Y90417D01*
X258643Y90504D01*
X258675Y90525D01*
X258709Y90542D01*
X258878Y90662D01*
X259052Y90779D01*
X259080Y90805D01*
X259111Y90827D01*
X259259Y90974D01*
X259412Y91117D01*
X259435Y91147D01*
X259462Y91174D01*
X259585Y91343D01*
X259712Y91509D01*
X259730Y91542D01*
X259752Y91573D01*
X259846Y91759D01*
X259945Y91943D01*
X259958Y91979D01*
X259975Y92013D01*
X260037Y92212D01*
X260105Y92410D01*
X260111Y92447D01*
X260123Y92484D01*
X260133Y92576D01*
X260188Y92896D01*
X260189Y93068D01*
X260199Y93162D01*
X260199Y129793D01*
X261071Y130665D01*
X261121Y130723D01*
X261176Y130775D01*
X261280Y130911D01*
X261391Y131041D01*
X261430Y131106D01*
X261476Y131167D01*
X261557Y131317D01*
X261645Y131463D01*
X261674Y131534D01*
X261710Y131601D01*
X261765Y131763D01*
X261828Y131922D01*
X261845Y131996D01*
X261870Y132068D01*
X261898Y132237D01*
X261935Y132403D01*
X261940Y132479D01*
X261952Y132554D01*
X261953Y132725D01*
X261963Y132896D01*
X261955Y132972D01*
X261955Y133048D01*
X261929Y133217D01*
X261911Y133386D01*
X261891Y133460D01*
X261879Y133535D01*
X261825Y133698D01*
X261780Y133862D01*
X261748Y133931D01*
X261724Y134004D01*
X261645Y134155D01*
X261574Y134310D01*
X261532Y134374D01*
X261497Y134441D01*
X261431Y134524D01*
X261299Y134720D01*
X261137Y134892D01*
X261071Y134974D01*
X244139Y151907D01*
X244052Y151981D01*
X243972Y152062D01*
X243864Y152140D01*
X243763Y152226D01*
X243665Y152285D01*
X243573Y152352D01*
X243455Y152412D01*
X243341Y152481D01*
X243234Y152523D01*
X243133Y152575D01*
X243006Y152615D01*
X242882Y152664D01*
X242771Y152689D01*
X242662Y152723D01*
X242569Y152733D01*
X242401Y152771D01*
X242077Y152789D01*
X241984Y152799D01*
X223557Y152799D01*
X221799Y154557D01*
X221799Y187043D01*
X223557Y188801D01*
X244043Y188801D01*
X245801Y187043D01*
X245801Y168616D01*
X245810Y168502D01*
X245809Y168388D01*
X245830Y168256D01*
X245841Y168124D01*
X245868Y168013D01*
X245886Y167900D01*
X245927Y167774D01*
X245959Y167645D01*
X246004Y167540D01*
X246040Y167432D01*
X246102Y167314D01*
X246154Y167192D01*
X246215Y167096D01*
X246268Y166994D01*
X246327Y166921D01*
X246419Y166776D01*
X246635Y166533D01*
X246693Y166461D01*
X279328Y133826D01*
X279491Y133432D01*
X279591Y133237D01*
X279687Y133041D01*
X279703Y133018D01*
X279716Y132993D01*
X279846Y132817D01*
X279972Y132639D01*
X279992Y132619D01*
X280009Y132596D01*
X280166Y132443D01*
X280319Y132288D01*
X280342Y132271D01*
X280362Y132251D01*
X280541Y132126D01*
X280718Y131998D01*
X280743Y131985D01*
X280767Y131969D01*
X280963Y131874D01*
X281158Y131775D01*
X281185Y131767D01*
X281211Y131754D01*
X281420Y131693D01*
X281629Y131627D01*
X281652Y131624D01*
X281684Y131615D01*
X282174Y131554D01*
X282254Y131557D01*
X282307Y131551D01*
X286443Y131551D01*
X286502Y131491D01*
X286589Y131417D01*
X286670Y131336D01*
X286777Y131258D01*
X286878Y131172D01*
X286976Y131113D01*
X287068Y131046D01*
X287187Y130986D01*
X287301Y130917D01*
X287407Y130875D01*
X287509Y130823D01*
X287636Y130783D01*
X287759Y130734D01*
X287870Y130709D01*
X287979Y130675D01*
X288073Y130665D01*
X288241Y130627D01*
X288565Y130609D01*
X288657Y130599D01*
X290782Y130599D01*
X290896Y130608D01*
X291010Y130607D01*
X291142Y130628D01*
X291274Y130639D01*
X291385Y130666D01*
X291498Y130684D01*
X291624Y130725D01*
X291753Y130757D01*
X291858Y130802D01*
X291966Y130838D01*
X292084Y130900D01*
X292206Y130952D01*
X292302Y131013D01*
X292404Y131066D01*
X292477Y131125D01*
X292622Y131217D01*
X292865Y131433D01*
X292937Y131491D01*
X304070Y142624D01*
X304077Y142632D01*
X304084Y142638D01*
X304237Y142820D01*
X304390Y143000D01*
X304395Y143009D01*
X304401Y143016D01*
X304420Y143051D01*
X304644Y143423D01*
X304685Y143525D01*
X306459Y145299D01*
X308757Y146251D01*
X311243Y146251D01*
X313541Y145299D01*
X315299Y143541D01*
X316251Y141243D01*
X316251Y139172D01*
X316257Y139096D01*
X316255Y139020D01*
X316277Y138851D01*
X316291Y138680D01*
X316309Y138606D01*
X316319Y138531D01*
X316368Y138367D01*
X316409Y138201D01*
X316439Y138132D01*
X316461Y138058D01*
X316537Y137905D01*
X316604Y137748D01*
X316645Y137684D01*
X316678Y137615D01*
X316777Y137476D01*
X316869Y137332D01*
X316920Y137275D01*
X316964Y137213D01*
X317084Y137092D01*
X317198Y136964D01*
X317257Y136916D01*
X317311Y136862D01*
X317449Y136761D01*
X317582Y136654D01*
X317648Y136617D01*
X317709Y136572D01*
X317862Y136495D01*
X318010Y136410D01*
X318082Y136384D01*
X318150Y136349D01*
X318313Y136298D01*
X318473Y136239D01*
X318548Y136224D01*
X318620Y136201D01*
X318725Y136189D01*
X318957Y136144D01*
X319193Y136137D01*
X319298Y136125D01*
X390904Y136125D01*
X390980Y136131D01*
X391056Y136129D01*
X391225Y136151D01*
X391396Y136165D01*
X391470Y136183D01*
X391545Y136193D01*
X391709Y136242D01*
X391875Y136283D01*
X391944Y136313D01*
X392018Y136335D01*
X392171Y136411D01*
X392328Y136478D01*
X392392Y136519D01*
X392461Y136552D01*
X392600Y136651D01*
X392744Y136743D01*
X392801Y136794D01*
X392863Y136838D01*
X392984Y136958D01*
X393112Y137072D01*
X393160Y137131D01*
X393214Y137185D01*
X393315Y137323D01*
X393422Y137456D01*
X393459Y137522D01*
X393504Y137583D01*
X393581Y137736D01*
X393666Y137884D01*
X393692Y137956D01*
X393727Y138024D01*
X393778Y138187D01*
X393837Y138347D01*
X393852Y138422D01*
X393875Y138494D01*
X393887Y138599D01*
X393932Y138831D01*
X393939Y139067D01*
X393951Y139172D01*
X393951Y155252D01*
X393945Y155328D01*
X393947Y155404D01*
X393925Y155573D01*
X393911Y155744D01*
X393893Y155818D01*
X393883Y155893D01*
X393834Y156057D01*
X393793Y156223D01*
X393763Y156292D01*
X393741Y156366D01*
X393665Y156519D01*
X393598Y156676D01*
X393557Y156740D01*
X393524Y156809D01*
X393425Y156948D01*
X393333Y157092D01*
X393282Y157149D01*
X393238Y157211D01*
X393118Y157332D01*
X393004Y157460D01*
X392945Y157508D01*
X392891Y157562D01*
X392753Y157663D01*
X392620Y157770D01*
X392554Y157807D01*
X392493Y157852D01*
X392340Y157929D01*
X392192Y158014D01*
X392120Y158040D01*
X392052Y158075D01*
X391889Y158126D01*
X391729Y158185D01*
X391654Y158200D01*
X391582Y158223D01*
X391477Y158235D01*
X391245Y158280D01*
X391009Y158287D01*
X390904Y158299D01*
X386057Y158299D01*
X384299Y160057D01*
X384299Y192543D01*
X386057Y194301D01*
X417043Y194301D01*
X418801Y192543D01*
X418801Y185396D01*
X418807Y185320D01*
X418805Y185244D01*
X418827Y185075D01*
X418841Y184904D01*
X418859Y184830D01*
X418869Y184755D01*
X418918Y184591D01*
X418959Y184425D01*
X418989Y184356D01*
X419011Y184282D01*
X419087Y184129D01*
X419154Y183972D01*
X419195Y183908D01*
X419228Y183839D01*
X419327Y183700D01*
X419419Y183556D01*
X419470Y183499D01*
X419514Y183437D01*
X419634Y183316D01*
X419748Y183188D01*
X419807Y183140D01*
X419861Y183086D01*
X419999Y182985D01*
X420132Y182878D01*
X420198Y182841D01*
X420259Y182796D01*
X420412Y182719D01*
X420560Y182634D01*
X420632Y182608D01*
X420700Y182573D01*
X420863Y182522D01*
X421023Y182463D01*
X421098Y182448D01*
X421170Y182425D01*
X421275Y182413D01*
X421507Y182368D01*
X421743Y182361D01*
X421848Y182349D01*
X444582Y182349D01*
X444696Y182358D01*
X444810Y182357D01*
X444942Y182378D01*
X445074Y182389D01*
X445185Y182416D01*
X445298Y182434D01*
X445424Y182475D01*
X445553Y182507D01*
X445658Y182552D01*
X445766Y182588D01*
X445884Y182650D01*
X446006Y182702D01*
X446102Y182763D01*
X446204Y182816D01*
X446277Y182875D01*
X446422Y182967D01*
X446665Y183183D01*
X446737Y183241D01*
X452807Y189311D01*
X452881Y189398D01*
X452962Y189478D01*
X453040Y189586D01*
X453126Y189687D01*
X453185Y189785D01*
X453252Y189877D01*
X453312Y189995D01*
X453381Y190109D01*
X453423Y190216D01*
X453475Y190317D01*
X453515Y190444D01*
X453564Y190568D01*
X453589Y190679D01*
X453623Y190788D01*
X453633Y190881D01*
X453671Y191049D01*
X453689Y191373D01*
X453699Y191466D01*
X453699Y203952D01*
X453693Y204028D01*
X453695Y204104D01*
X453673Y204273D01*
X453659Y204444D01*
X453641Y204518D01*
X453631Y204593D01*
X453582Y204757D01*
X453541Y204923D01*
X453511Y204992D01*
X453489Y205066D01*
X453413Y205219D01*
X453346Y205376D01*
X453305Y205440D01*
X453272Y205509D01*
X453173Y205648D01*
X453081Y205792D01*
X453030Y205849D01*
X452986Y205911D01*
X452866Y206032D01*
X452752Y206160D01*
X452693Y206208D01*
X452639Y206262D01*
X452501Y206363D01*
X452368Y206470D01*
X452302Y206507D01*
X452241Y206552D01*
X452088Y206629D01*
X451940Y206714D01*
X451868Y206740D01*
X451800Y206775D01*
X451637Y206826D01*
X451477Y206885D01*
X451402Y206900D01*
X451330Y206923D01*
X451225Y206935D01*
X450993Y206980D01*
X450757Y206987D01*
X450652Y206999D01*
X67028Y206999D01*
X66990Y206996D01*
X66951Y206998D01*
X66744Y206976D01*
X66536Y206959D01*
X66499Y206950D01*
X66461Y206946D01*
X66259Y206891D01*
X66057Y206841D01*
X66022Y206826D01*
X65985Y206815D01*
X65795Y206728D01*
X65604Y206646D01*
X65571Y206626D01*
X65537Y206610D01*
X65363Y206493D01*
X65188Y206381D01*
X65159Y206356D01*
X65127Y206334D01*
X64975Y206191D01*
X64820Y206052D01*
X64796Y206023D01*
X64768Y205997D01*
X64641Y205831D01*
X64510Y205668D01*
X64491Y205635D01*
X64468Y205605D01*
X64369Y205421D01*
X64266Y205240D01*
X64252Y205204D01*
X64234Y205170D01*
X64167Y204973D01*
X64094Y204777D01*
X64087Y204740D01*
X64074Y204704D01*
X64039Y204497D01*
X63999Y204293D01*
X63998Y204255D01*
X63992Y204217D01*
X63991Y204008D01*
X63984Y203800D01*
X63989Y203762D01*
X63989Y203724D01*
X64021Y203517D01*
X64048Y203311D01*
X64059Y203274D01*
X64065Y203237D01*
X64131Y203038D01*
X64191Y202839D01*
X64208Y202804D01*
X64220Y202768D01*
X64316Y202583D01*
X64408Y202395D01*
X64430Y202364D01*
X64448Y202330D01*
X64506Y202258D01*
X64693Y201993D01*
X64814Y201871D01*
X64873Y201797D01*
X66407Y200263D01*
X70752Y192738D01*
X73001Y184345D01*
X73001Y175655D01*
X70752Y167262D01*
X66407Y159737D01*
X60263Y153593D01*
X59560Y153187D01*
X59404Y153079D01*
X59244Y152977D01*
X59201Y152939D01*
X59154Y152907D01*
X59017Y152775D01*
X58876Y152648D01*
X58840Y152604D01*
X58799Y152564D01*
X58685Y152412D01*
X58566Y152264D01*
X58538Y152215D01*
X58503Y152169D01*
X58415Y152000D01*
X58322Y151836D01*
X58302Y151782D01*
X58276Y151732D01*
X58216Y151551D01*
X58150Y151373D01*
X58139Y151317D01*
X58121Y151263D01*
X58092Y151076D01*
X58055Y150889D01*
X58054Y150832D01*
X58045Y150776D01*
X58046Y150585D01*
X58040Y150396D01*
X58048Y150339D01*
X58048Y150282D01*
X58080Y150095D01*
X58105Y149907D01*
X58121Y149852D01*
X58131Y149796D01*
X58192Y149617D01*
X58247Y149434D01*
X58272Y149383D01*
X58291Y149329D01*
X58380Y149162D01*
X58464Y148991D01*
X58497Y148945D01*
X58524Y148895D01*
X58639Y148744D01*
X58749Y148589D01*
X58789Y148549D01*
X58824Y148503D01*
X58963Y148373D01*
X59096Y148238D01*
X59142Y148205D01*
X59184Y148165D01*
X59341Y148059D01*
X59495Y147948D01*
X59546Y147922D01*
X59593Y147890D01*
X59766Y147811D01*
X59935Y147725D01*
X59990Y147708D01*
X60042Y147684D01*
X60225Y147634D01*
X60406Y147577D01*
X60451Y147572D01*
X60517Y147554D01*
X61008Y147502D01*
X61053Y147504D01*
X61084Y147501D01*
X63281Y147501D01*
X69897Y144760D01*
X73697Y140960D01*
X73755Y140911D01*
X73807Y140855D01*
X73942Y140752D01*
X74073Y140641D01*
X74138Y140601D01*
X74198Y140555D01*
X74349Y140474D01*
X74495Y140386D01*
X74566Y140358D01*
X74633Y140322D01*
X74795Y140266D01*
X74953Y140203D01*
X75027Y140187D01*
X75100Y140162D01*
X75268Y140133D01*
X75435Y140096D01*
X75511Y140092D01*
X75586Y140079D01*
X75757Y140078D01*
X75927Y140069D01*
X76003Y140077D01*
X76079Y140076D01*
X76248Y140103D01*
X76418Y140121D01*
X76491Y140141D01*
X76567Y140153D01*
X76729Y140206D01*
X76894Y140252D01*
X76963Y140283D01*
X77035Y140307D01*
X77187Y140386D01*
X77342Y140457D01*
X77405Y140500D01*
X77473Y140535D01*
X77555Y140601D01*
X77751Y140733D01*
X77924Y140895D01*
X78006Y140960D01*
X82774Y145728D01*
X84997Y146649D01*
X104204Y146649D01*
X104280Y146655D01*
X104356Y146653D01*
X104525Y146675D01*
X104696Y146689D01*
X104770Y146707D01*
X104845Y146717D01*
X105009Y146766D01*
X105175Y146807D01*
X105244Y146837D01*
X105318Y146859D01*
X105471Y146935D01*
X105628Y147002D01*
X105692Y147043D01*
X105761Y147076D01*
X105900Y147175D01*
X106044Y147267D01*
X106101Y147318D01*
X106163Y147362D01*
X106284Y147482D01*
X106412Y147596D01*
X106460Y147655D01*
X106514Y147709D01*
X106615Y147847D01*
X106722Y147980D01*
X106759Y148046D01*
X106804Y148107D01*
X106881Y148260D01*
X106966Y148408D01*
X106992Y148480D01*
X107027Y148548D01*
X107078Y148711D01*
X107137Y148871D01*
X107152Y148946D01*
X107175Y149018D01*
X107187Y149123D01*
X107232Y149355D01*
X107239Y149591D01*
X107251Y149696D01*
X107251Y152152D01*
X107245Y152228D01*
X107247Y152304D01*
X107225Y152473D01*
X107211Y152644D01*
X107193Y152718D01*
X107183Y152793D01*
X107134Y152957D01*
X107093Y153123D01*
X107063Y153192D01*
X107041Y153266D01*
X106965Y153419D01*
X106898Y153576D01*
X106857Y153640D01*
X106824Y153709D01*
X106725Y153848D01*
X106633Y153992D01*
X106582Y154049D01*
X106538Y154111D01*
X106418Y154232D01*
X106304Y154360D01*
X106245Y154408D01*
X106191Y154462D01*
X106053Y154563D01*
X105920Y154670D01*
X105854Y154707D01*
X105793Y154752D01*
X105640Y154829D01*
X105492Y154914D01*
X105420Y154940D01*
X105352Y154975D01*
X105189Y155026D01*
X105029Y155085D01*
X104954Y155100D01*
X104882Y155123D01*
X104777Y155135D01*
X104545Y155180D01*
X104371Y155186D01*
X102599Y156957D01*
X102599Y184443D01*
X104357Y186201D01*
X133843Y186201D01*
X135601Y184443D01*
X135601Y156957D01*
X133843Y155199D01*
X122396Y155199D01*
X122320Y155193D01*
X122244Y155195D01*
X122075Y155173D01*
X121904Y155159D01*
X121830Y155141D01*
X121755Y155131D01*
X121591Y155082D01*
X121425Y155041D01*
X121356Y155011D01*
X121282Y154989D01*
X121129Y154913D01*
X120972Y154846D01*
X120908Y154805D01*
X120839Y154772D01*
X120700Y154673D01*
X120556Y154581D01*
X120499Y154530D01*
X120437Y154486D01*
X120316Y154366D01*
X120188Y154252D01*
X120140Y154193D01*
X120086Y154139D01*
X119985Y154001D01*
X119878Y153868D01*
X119841Y153802D01*
X119796Y153741D01*
X119719Y153588D01*
X119634Y153440D01*
X119608Y153368D01*
X119573Y153300D01*
X119522Y153137D01*
X119463Y152977D01*
X119448Y152902D01*
X119425Y152830D01*
X119413Y152725D01*
X119368Y152493D01*
X119361Y152257D01*
X119349Y152152D01*
X119349Y141051D01*
X119350Y141041D01*
X119349Y141031D01*
X119370Y140795D01*
X119389Y140559D01*
X119391Y140550D01*
X119392Y140540D01*
X119403Y140501D01*
X119449Y140317D01*
X119449Y135948D01*
X119455Y135872D01*
X119453Y135796D01*
X119475Y135627D01*
X119489Y135456D01*
X119507Y135382D01*
X119517Y135307D01*
X119566Y135143D01*
X119607Y134977D01*
X119637Y134908D01*
X119659Y134834D01*
X119735Y134681D01*
X119802Y134524D01*
X119843Y134460D01*
X119876Y134391D01*
X119975Y134252D01*
X120067Y134108D01*
X120118Y134051D01*
X120162Y133989D01*
X120282Y133868D01*
X120396Y133740D01*
X120455Y133692D01*
X120509Y133638D01*
X120647Y133537D01*
X120780Y133430D01*
X120846Y133393D01*
X120907Y133348D01*
X121060Y133271D01*
X121208Y133186D01*
X121280Y133160D01*
X121348Y133125D01*
X121511Y133074D01*
X121671Y133015D01*
X121746Y133000D01*
X121818Y132977D01*
X121923Y132965D01*
X122155Y132920D01*
X122391Y132913D01*
X122496Y132901D01*
X130743Y132901D01*
X132501Y131143D01*
X132501Y129706D01*
X132503Y129683D01*
X132501Y129660D01*
X132523Y129437D01*
X132541Y129214D01*
X132546Y129192D01*
X132548Y129169D01*
X132605Y128953D01*
X132659Y128735D01*
X132668Y128714D01*
X132674Y128692D01*
X132766Y128487D01*
X132854Y128282D01*
X132866Y128263D01*
X132876Y128242D01*
X132999Y128054D01*
X133119Y127866D01*
X133134Y127849D01*
X133147Y127830D01*
X133299Y127664D01*
X133448Y127498D01*
X133466Y127484D01*
X133481Y127467D01*
X133658Y127328D01*
X133832Y127188D01*
X133851Y127177D01*
X133869Y127162D01*
X134066Y127054D01*
X134260Y126944D01*
X134282Y126936D01*
X134302Y126925D01*
X134513Y126850D01*
X134723Y126772D01*
X134745Y126768D01*
X134767Y126760D01*
X134987Y126721D01*
X135207Y126678D01*
X135230Y126677D01*
X135252Y126673D01*
X135477Y126669D01*
X135700Y126662D01*
X135723Y126665D01*
X135746Y126665D01*
X135968Y126698D01*
X136189Y126727D01*
X136211Y126733D01*
X136234Y126737D01*
X136446Y126804D01*
X136661Y126869D01*
X136682Y126879D01*
X136704Y126886D01*
X136903Y126988D01*
X137105Y127086D01*
X137123Y127099D01*
X137144Y127110D01*
X137324Y127242D01*
X137507Y127372D01*
X137523Y127388D01*
X137542Y127401D01*
X137698Y127561D01*
X137858Y127718D01*
X137871Y127737D01*
X137887Y127753D01*
X137928Y127814D01*
X138148Y128117D01*
X138216Y128250D01*
X138263Y128322D01*
X138944Y129659D01*
X139837Y130888D01*
X140912Y131963D01*
X142141Y132856D01*
X143495Y133546D01*
X144153Y133759D01*
X144153Y124600D01*
X144153Y115441D01*
X143495Y115654D01*
X142141Y116344D01*
X140912Y117237D01*
X139837Y118312D01*
X138944Y119541D01*
X138263Y120878D01*
X138251Y120897D01*
X138242Y120918D01*
X138122Y121106D01*
X138004Y121298D01*
X137989Y121315D01*
X137977Y121334D01*
X137828Y121501D01*
X137681Y121670D01*
X137664Y121685D01*
X137648Y121702D01*
X137474Y121843D01*
X137302Y121986D01*
X137282Y121998D01*
X137264Y122012D01*
X137070Y122122D01*
X136877Y122236D01*
X136856Y122245D01*
X136836Y122256D01*
X136625Y122334D01*
X136417Y122415D01*
X136395Y122420D01*
X136373Y122428D01*
X136154Y122471D01*
X135934Y122517D01*
X135911Y122518D01*
X135889Y122522D01*
X135667Y122529D01*
X135442Y122540D01*
X135419Y122537D01*
X135396Y122538D01*
X135175Y122509D01*
X134952Y122483D01*
X134930Y122476D01*
X134907Y122473D01*
X134692Y122409D01*
X134477Y122347D01*
X134456Y122337D01*
X134434Y122331D01*
X134234Y122232D01*
X134031Y122137D01*
X134012Y122124D01*
X133991Y122114D01*
X133809Y121985D01*
X133624Y121858D01*
X133608Y121842D01*
X133589Y121828D01*
X133430Y121671D01*
X133268Y121516D01*
X133254Y121498D01*
X133238Y121482D01*
X133107Y121301D01*
X132972Y121122D01*
X132961Y121101D01*
X132948Y121083D01*
X132847Y120884D01*
X132743Y120685D01*
X132736Y120663D01*
X132725Y120643D01*
X132658Y120429D01*
X132588Y120216D01*
X132584Y120194D01*
X132577Y120172D01*
X132569Y120099D01*
X132510Y119729D01*
X132510Y119580D01*
X132501Y119494D01*
X132501Y108657D01*
X131448Y107605D01*
X131399Y107547D01*
X131344Y107495D01*
X131240Y107359D01*
X131129Y107229D01*
X131090Y107163D01*
X131043Y107103D01*
X130963Y106953D01*
X130874Y106806D01*
X130846Y106736D01*
X130810Y106668D01*
X130755Y106507D01*
X130691Y106348D01*
X130675Y106274D01*
X130650Y106202D01*
X130621Y106033D01*
X130584Y105867D01*
X130580Y105790D01*
X130567Y105715D01*
X130566Y105545D01*
X130557Y105374D01*
X130565Y105298D01*
X130564Y105222D01*
X130591Y105053D01*
X130609Y104883D01*
X130629Y104810D01*
X130641Y104735D01*
X130695Y104572D01*
X130740Y104408D01*
X130771Y104339D01*
X130795Y104266D01*
X130874Y104114D01*
X130945Y103959D01*
X130988Y103896D01*
X131023Y103828D01*
X131089Y103746D01*
X131221Y103550D01*
X131383Y103377D01*
X131448Y103295D01*
X133101Y101643D01*
X133101Y79157D01*
X131148Y77205D01*
X131099Y77147D01*
X131044Y77094D01*
X130940Y76959D01*
X130829Y76829D01*
X130790Y76763D01*
X130743Y76703D01*
X130663Y76553D01*
X130574Y76406D01*
X130546Y76335D01*
X130510Y76268D01*
X130455Y76107D01*
X130391Y75948D01*
X130375Y75874D01*
X130350Y75802D01*
X130321Y75633D01*
X130284Y75466D01*
X130280Y75390D01*
X130267Y75315D01*
X130266Y75144D01*
X130257Y74974D01*
X130265Y74898D01*
X130264Y74822D01*
X130291Y74653D01*
X130309Y74483D01*
X130329Y74410D01*
X130341Y74335D01*
X130395Y74172D01*
X130440Y74008D01*
X130471Y73938D01*
X130495Y73866D01*
X130574Y73715D01*
X130645Y73559D01*
X130688Y73496D01*
X130723Y73428D01*
X130789Y73346D01*
X130921Y73150D01*
X131083Y72978D01*
X131148Y72895D01*
X132240Y71803D01*
X132378Y71687D01*
X132510Y71564D01*
X132566Y71527D01*
X132616Y71484D01*
X132771Y71390D01*
X132921Y71291D01*
X132982Y71264D01*
X133039Y71229D01*
X133207Y71162D01*
X133371Y71088D01*
X133435Y71071D01*
X133497Y71046D01*
X133673Y71007D01*
X133848Y70960D01*
X133914Y70954D01*
X133979Y70939D01*
X134159Y70929D01*
X134338Y70911D01*
X134405Y70915D01*
G37*
G36*
X513010Y13004D02*
X513010Y13004D01*
X513049Y13002D01*
X513256Y13024D01*
X513464Y13041D01*
X513501Y13050D01*
X513539Y13054D01*
X513741Y13109D01*
X513943Y13159D01*
X513978Y13174D01*
X514015Y13185D01*
X514205Y13272D01*
X514396Y13354D01*
X514429Y13374D01*
X514463Y13390D01*
X514637Y13507D01*
X514812Y13619D01*
X514841Y13644D01*
X514873Y13666D01*
X515025Y13809D01*
X515180Y13948D01*
X515204Y13977D01*
X515232Y14003D01*
X515359Y14169D01*
X515490Y14332D01*
X515509Y14365D01*
X515532Y14395D01*
X515631Y14579D01*
X515734Y14760D01*
X515748Y14796D01*
X515766Y14830D01*
X515833Y15027D01*
X515906Y15223D01*
X515913Y15260D01*
X515926Y15296D01*
X515961Y15503D01*
X516001Y15707D01*
X516002Y15745D01*
X516008Y15783D01*
X516009Y15992D01*
X516016Y16200D01*
X516011Y16238D01*
X516011Y16276D01*
X515979Y16483D01*
X515952Y16689D01*
X515941Y16726D01*
X515935Y16763D01*
X515869Y16962D01*
X515809Y17161D01*
X515792Y17196D01*
X515780Y17232D01*
X515684Y17417D01*
X515592Y17605D01*
X515570Y17636D01*
X515552Y17670D01*
X515494Y17742D01*
X515307Y18007D01*
X515186Y18129D01*
X515127Y18203D01*
X513593Y19737D01*
X509248Y27262D01*
X506999Y35655D01*
X506999Y44345D01*
X509248Y52738D01*
X513593Y60263D01*
X519737Y66407D01*
X527262Y70752D01*
X535655Y73001D01*
X544345Y73001D01*
X552738Y70752D01*
X560263Y66407D01*
X561797Y64873D01*
X561826Y64848D01*
X561852Y64820D01*
X562014Y64689D01*
X562173Y64553D01*
X562206Y64534D01*
X562236Y64510D01*
X562417Y64407D01*
X562596Y64299D01*
X562631Y64285D01*
X562664Y64266D01*
X562860Y64193D01*
X563054Y64116D01*
X563091Y64107D01*
X563127Y64094D01*
X563331Y64054D01*
X563535Y64009D01*
X563574Y64007D01*
X563611Y63999D01*
X563819Y63993D01*
X564028Y63981D01*
X564066Y63985D01*
X564104Y63984D01*
X564311Y64011D01*
X564519Y64033D01*
X564555Y64043D01*
X564593Y64048D01*
X564794Y64109D01*
X564994Y64164D01*
X565029Y64180D01*
X565066Y64191D01*
X565253Y64283D01*
X565443Y64370D01*
X565474Y64391D01*
X565509Y64408D01*
X565679Y64529D01*
X565852Y64645D01*
X565880Y64671D01*
X565911Y64693D01*
X566059Y64840D01*
X566212Y64983D01*
X566235Y65013D01*
X566262Y65040D01*
X566385Y65208D01*
X566512Y65374D01*
X566530Y65408D01*
X566552Y65439D01*
X566646Y65625D01*
X566745Y65809D01*
X566757Y65845D01*
X566775Y65879D01*
X566838Y66079D01*
X566905Y66276D01*
X566911Y66313D01*
X566923Y66350D01*
X566933Y66442D01*
X566988Y66762D01*
X566989Y66934D01*
X566999Y67028D01*
X566999Y152972D01*
X566996Y153010D01*
X566998Y153049D01*
X566976Y153256D01*
X566959Y153464D01*
X566950Y153501D01*
X566946Y153539D01*
X566891Y153741D01*
X566841Y153943D01*
X566826Y153978D01*
X566815Y154015D01*
X566728Y154205D01*
X566646Y154396D01*
X566626Y154429D01*
X566610Y154463D01*
X566493Y154637D01*
X566381Y154812D01*
X566356Y154841D01*
X566334Y154873D01*
X566191Y155025D01*
X566052Y155180D01*
X566023Y155204D01*
X565997Y155232D01*
X565831Y155359D01*
X565668Y155490D01*
X565635Y155509D01*
X565605Y155532D01*
X565421Y155631D01*
X565240Y155734D01*
X565204Y155748D01*
X565170Y155766D01*
X564973Y155833D01*
X564777Y155906D01*
X564740Y155913D01*
X564704Y155926D01*
X564497Y155961D01*
X564293Y156001D01*
X564255Y156002D01*
X564217Y156008D01*
X564008Y156009D01*
X563800Y156016D01*
X563762Y156011D01*
X563724Y156011D01*
X563517Y155979D01*
X563311Y155952D01*
X563274Y155941D01*
X563237Y155935D01*
X563038Y155869D01*
X562839Y155809D01*
X562804Y155792D01*
X562768Y155780D01*
X562583Y155684D01*
X562395Y155592D01*
X562364Y155570D01*
X562330Y155552D01*
X562258Y155494D01*
X561993Y155307D01*
X561871Y155186D01*
X561797Y155127D01*
X560263Y153593D01*
X552738Y149248D01*
X544345Y146999D01*
X535655Y146999D01*
X527262Y149248D01*
X519737Y153593D01*
X513593Y159737D01*
X509248Y167262D01*
X506999Y175655D01*
X506999Y184345D01*
X509248Y192738D01*
X513593Y200263D01*
X515127Y201797D01*
X515152Y201826D01*
X515180Y201852D01*
X515311Y202014D01*
X515447Y202173D01*
X515466Y202206D01*
X515490Y202236D01*
X515593Y202417D01*
X515701Y202596D01*
X515715Y202631D01*
X515734Y202664D01*
X515807Y202860D01*
X515884Y203054D01*
X515893Y203091D01*
X515906Y203127D01*
X515946Y203331D01*
X515991Y203535D01*
X515993Y203574D01*
X516001Y203611D01*
X516007Y203819D01*
X516019Y204028D01*
X516015Y204066D01*
X516016Y204104D01*
X515989Y204311D01*
X515967Y204519D01*
X515957Y204555D01*
X515952Y204593D01*
X515891Y204794D01*
X515836Y204994D01*
X515820Y205029D01*
X515809Y205066D01*
X515717Y205253D01*
X515630Y205443D01*
X515609Y205474D01*
X515592Y205509D01*
X515471Y205679D01*
X515355Y205852D01*
X515329Y205880D01*
X515307Y205911D01*
X515160Y206059D01*
X515017Y206212D01*
X514987Y206235D01*
X514960Y206262D01*
X514792Y206385D01*
X514626Y206512D01*
X514592Y206530D01*
X514561Y206552D01*
X514375Y206646D01*
X514191Y206745D01*
X514155Y206757D01*
X514121Y206775D01*
X513921Y206838D01*
X513724Y206905D01*
X513687Y206911D01*
X513650Y206923D01*
X513558Y206933D01*
X513238Y206988D01*
X513066Y206989D01*
X512972Y206999D01*
X479748Y206999D01*
X479672Y206993D01*
X479596Y206995D01*
X479427Y206973D01*
X479256Y206959D01*
X479182Y206941D01*
X479107Y206931D01*
X478943Y206882D01*
X478777Y206841D01*
X478708Y206811D01*
X478634Y206789D01*
X478481Y206713D01*
X478324Y206646D01*
X478260Y206605D01*
X478191Y206572D01*
X478052Y206473D01*
X477908Y206381D01*
X477851Y206330D01*
X477789Y206286D01*
X477668Y206166D01*
X477540Y206052D01*
X477492Y205993D01*
X477438Y205939D01*
X477337Y205801D01*
X477230Y205668D01*
X477193Y205602D01*
X477148Y205541D01*
X477071Y205388D01*
X476986Y205240D01*
X476960Y205168D01*
X476925Y205100D01*
X476874Y204937D01*
X476815Y204777D01*
X476800Y204702D01*
X476777Y204630D01*
X476765Y204525D01*
X476720Y204293D01*
X476713Y204057D01*
X476701Y203952D01*
X476701Y180657D01*
X474943Y178899D01*
X460766Y178899D01*
X460652Y178890D01*
X460538Y178891D01*
X460406Y178870D01*
X460274Y178859D01*
X460163Y178832D01*
X460050Y178814D01*
X459924Y178773D01*
X459795Y178741D01*
X459690Y178696D01*
X459582Y178660D01*
X459464Y178598D01*
X459342Y178546D01*
X459246Y178485D01*
X459144Y178432D01*
X459071Y178373D01*
X458926Y178281D01*
X458683Y178065D01*
X458611Y178007D01*
X451776Y171172D01*
X449553Y170251D01*
X421848Y170251D01*
X421772Y170245D01*
X421696Y170247D01*
X421527Y170225D01*
X421356Y170211D01*
X421282Y170193D01*
X421207Y170183D01*
X421043Y170134D01*
X420877Y170093D01*
X420808Y170063D01*
X420734Y170041D01*
X420581Y169965D01*
X420424Y169898D01*
X420360Y169857D01*
X420291Y169824D01*
X420152Y169725D01*
X420008Y169633D01*
X419951Y169582D01*
X419889Y169538D01*
X419768Y169418D01*
X419640Y169304D01*
X419592Y169245D01*
X419538Y169191D01*
X419437Y169053D01*
X419330Y168920D01*
X419293Y168854D01*
X419248Y168793D01*
X419171Y168640D01*
X419086Y168492D01*
X419060Y168420D01*
X419025Y168352D01*
X418974Y168189D01*
X418915Y168029D01*
X418900Y167954D01*
X418877Y167882D01*
X418865Y167777D01*
X418820Y167545D01*
X418813Y167309D01*
X418801Y167204D01*
X418801Y160057D01*
X417043Y158299D01*
X409096Y158299D01*
X409020Y158293D01*
X408944Y158295D01*
X408775Y158273D01*
X408604Y158259D01*
X408530Y158241D01*
X408455Y158231D01*
X408291Y158182D01*
X408125Y158141D01*
X408056Y158111D01*
X407982Y158089D01*
X407829Y158013D01*
X407672Y157946D01*
X407608Y157905D01*
X407539Y157872D01*
X407400Y157773D01*
X407256Y157681D01*
X407199Y157630D01*
X407137Y157586D01*
X407016Y157466D01*
X406888Y157352D01*
X406840Y157293D01*
X406786Y157239D01*
X406685Y157101D01*
X406578Y156968D01*
X406541Y156902D01*
X406496Y156841D01*
X406419Y156688D01*
X406334Y156540D01*
X406308Y156468D01*
X406273Y156400D01*
X406222Y156237D01*
X406163Y156077D01*
X406148Y156002D01*
X406125Y155930D01*
X406113Y155825D01*
X406068Y155593D01*
X406061Y155357D01*
X406049Y155252D01*
X406049Y139172D01*
X406055Y139096D01*
X406053Y139020D01*
X406075Y138851D01*
X406089Y138680D01*
X406107Y138606D01*
X406117Y138531D01*
X406166Y138367D01*
X406207Y138201D01*
X406237Y138132D01*
X406259Y138058D01*
X406335Y137905D01*
X406402Y137748D01*
X406443Y137684D01*
X406476Y137615D01*
X406575Y137476D01*
X406667Y137332D01*
X406718Y137275D01*
X406762Y137213D01*
X406882Y137092D01*
X406996Y136964D01*
X407055Y136916D01*
X407109Y136862D01*
X407247Y136761D01*
X407380Y136654D01*
X407446Y136617D01*
X407507Y136572D01*
X407660Y136495D01*
X407808Y136410D01*
X407880Y136384D01*
X407948Y136349D01*
X408111Y136298D01*
X408271Y136239D01*
X408346Y136224D01*
X408418Y136201D01*
X408523Y136189D01*
X408755Y136144D01*
X408991Y136137D01*
X409096Y136125D01*
X442600Y136125D01*
X444263Y135436D01*
X445722Y133977D01*
X445827Y133829D01*
X445847Y133809D01*
X445864Y133786D01*
X446020Y133633D01*
X446174Y133478D01*
X446196Y133462D01*
X446217Y133442D01*
X446396Y133316D01*
X446572Y133188D01*
X446598Y133175D01*
X446621Y133159D01*
X446818Y133064D01*
X447013Y132965D01*
X447040Y132957D01*
X447065Y132945D01*
X447275Y132883D01*
X447483Y132817D01*
X447507Y132814D01*
X447538Y132805D01*
X448028Y132744D01*
X448109Y132747D01*
X448161Y132741D01*
X450652Y132741D01*
X450728Y132747D01*
X450804Y132745D01*
X450973Y132767D01*
X451144Y132781D01*
X451218Y132799D01*
X451293Y132809D01*
X451457Y132858D01*
X451623Y132899D01*
X451692Y132929D01*
X451766Y132951D01*
X451919Y133027D01*
X452076Y133094D01*
X452140Y133135D01*
X452209Y133168D01*
X452348Y133267D01*
X452492Y133359D01*
X452549Y133410D01*
X452611Y133454D01*
X452732Y133574D01*
X452860Y133688D01*
X452908Y133747D01*
X452962Y133801D01*
X453063Y133939D01*
X453170Y134072D01*
X453207Y134138D01*
X453252Y134199D01*
X453329Y134352D01*
X453414Y134500D01*
X453440Y134572D01*
X453475Y134640D01*
X453526Y134803D01*
X453585Y134963D01*
X453600Y135038D01*
X453623Y135110D01*
X453635Y135215D01*
X453680Y135447D01*
X453687Y135683D01*
X453699Y135788D01*
X453699Y161143D01*
X455457Y162901D01*
X474943Y162901D01*
X476701Y161143D01*
X476701Y136248D01*
X476707Y136172D01*
X476705Y136096D01*
X476727Y135927D01*
X476741Y135756D01*
X476759Y135682D01*
X476769Y135607D01*
X476818Y135443D01*
X476859Y135277D01*
X476889Y135208D01*
X476911Y135134D01*
X476987Y134981D01*
X477054Y134824D01*
X477095Y134760D01*
X477128Y134691D01*
X477227Y134552D01*
X477319Y134408D01*
X477370Y134351D01*
X477414Y134289D01*
X477534Y134168D01*
X477648Y134040D01*
X477707Y133992D01*
X477761Y133938D01*
X477899Y133837D01*
X478032Y133730D01*
X478098Y133693D01*
X478159Y133648D01*
X478312Y133571D01*
X478460Y133486D01*
X478532Y133460D01*
X478600Y133425D01*
X478763Y133374D01*
X478923Y133315D01*
X478998Y133300D01*
X479070Y133277D01*
X479175Y133265D01*
X479407Y133220D01*
X479643Y133213D01*
X479748Y133201D01*
X489806Y133201D01*
X490024Y133218D01*
X490241Y133232D01*
X490269Y133238D01*
X490298Y133241D01*
X490510Y133293D01*
X490722Y133342D01*
X490749Y133353D01*
X490776Y133359D01*
X490977Y133445D01*
X491179Y133528D01*
X491204Y133543D01*
X491230Y133554D01*
X491413Y133671D01*
X491600Y133785D01*
X491622Y133804D01*
X491646Y133819D01*
X491808Y133964D01*
X491974Y134107D01*
X491992Y134129D01*
X492014Y134148D01*
X492151Y134318D01*
X492291Y134485D01*
X492303Y134505D01*
X492324Y134532D01*
X492568Y134960D01*
X492596Y135036D01*
X492621Y135082D01*
X494740Y140197D01*
X499803Y145260D01*
X506419Y148001D01*
X513581Y148001D01*
X520197Y145260D01*
X525260Y140197D01*
X528001Y133581D01*
X528001Y126419D01*
X525260Y119803D01*
X520197Y114740D01*
X515551Y112815D01*
X515517Y112798D01*
X515481Y112785D01*
X515297Y112685D01*
X515112Y112590D01*
X515081Y112568D01*
X515047Y112549D01*
X514883Y112421D01*
X514715Y112297D01*
X514688Y112270D01*
X514658Y112247D01*
X514516Y112093D01*
X514370Y111944D01*
X514348Y111913D01*
X514322Y111885D01*
X514207Y111711D01*
X514087Y111540D01*
X514071Y111506D01*
X514050Y111474D01*
X513964Y111284D01*
X513873Y111096D01*
X513862Y111059D01*
X513847Y111024D01*
X513793Y110823D01*
X513734Y110622D01*
X513729Y110584D01*
X513719Y110548D01*
X513698Y110340D01*
X513672Y110133D01*
X513674Y110095D01*
X513670Y110057D01*
X513683Y109848D01*
X513691Y109640D01*
X513698Y109602D01*
X513701Y109564D01*
X513747Y109361D01*
X513789Y109156D01*
X513802Y109120D01*
X513811Y109083D01*
X513889Y108890D01*
X513963Y108695D01*
X513982Y108662D01*
X513997Y108627D01*
X514105Y108449D01*
X514210Y108268D01*
X514234Y108238D01*
X514254Y108206D01*
X514390Y108048D01*
X514522Y107886D01*
X514551Y107861D01*
X514576Y107832D01*
X514736Y107698D01*
X514892Y107559D01*
X514925Y107539D01*
X514954Y107515D01*
X515035Y107470D01*
X515310Y107297D01*
X515468Y107230D01*
X515551Y107185D01*
X520197Y105260D01*
X525260Y100197D01*
X528001Y93581D01*
X528001Y86419D01*
X525260Y79803D01*
X520197Y74740D01*
X513581Y71999D01*
X506419Y71999D01*
X499803Y74740D01*
X494598Y79945D01*
X494540Y79994D01*
X494488Y80050D01*
X494352Y80154D01*
X494222Y80264D01*
X494157Y80304D01*
X494096Y80350D01*
X493946Y80431D01*
X493800Y80519D01*
X493729Y80547D01*
X493662Y80583D01*
X493500Y80639D01*
X493342Y80702D01*
X493267Y80719D01*
X493195Y80743D01*
X493026Y80772D01*
X492860Y80809D01*
X492784Y80813D01*
X492709Y80826D01*
X492538Y80827D01*
X492367Y80837D01*
X492292Y80829D01*
X492215Y80829D01*
X492046Y80802D01*
X491877Y80784D01*
X491803Y80764D01*
X491728Y80752D01*
X491566Y80699D01*
X491401Y80654D01*
X491332Y80622D01*
X491259Y80598D01*
X491108Y80519D01*
X490953Y80448D01*
X490889Y80405D01*
X490822Y80370D01*
X490739Y80305D01*
X490543Y80173D01*
X490371Y80011D01*
X490289Y79945D01*
X488748Y78405D01*
X488699Y78347D01*
X488644Y78295D01*
X488540Y78159D01*
X488429Y78029D01*
X488390Y77963D01*
X488343Y77903D01*
X488263Y77753D01*
X488174Y77606D01*
X488146Y77535D01*
X488110Y77468D01*
X488055Y77307D01*
X487991Y77148D01*
X487975Y77074D01*
X487950Y77002D01*
X487921Y76833D01*
X487884Y76667D01*
X487880Y76590D01*
X487867Y76515D01*
X487866Y76344D01*
X487857Y76174D01*
X487865Y76098D01*
X487864Y76022D01*
X487891Y75853D01*
X487909Y75683D01*
X487929Y75610D01*
X487941Y75535D01*
X487995Y75372D01*
X488040Y75208D01*
X488071Y75138D01*
X488095Y75066D01*
X488174Y74915D01*
X488245Y74759D01*
X488288Y74696D01*
X488323Y74628D01*
X488389Y74546D01*
X488521Y74350D01*
X488683Y74178D01*
X488748Y74095D01*
X489801Y73043D01*
X489801Y50549D01*
X489799Y50547D01*
X489744Y50495D01*
X489640Y50359D01*
X489529Y50229D01*
X489490Y50164D01*
X489443Y50103D01*
X489363Y49953D01*
X489274Y49806D01*
X489246Y49735D01*
X489210Y49668D01*
X489155Y49507D01*
X489091Y49348D01*
X489075Y49274D01*
X489050Y49202D01*
X489021Y49033D01*
X488984Y48867D01*
X488980Y48790D01*
X488967Y48715D01*
X488966Y48545D01*
X488957Y48374D01*
X488965Y48298D01*
X488964Y48222D01*
X488991Y48053D01*
X489009Y47883D01*
X489029Y47810D01*
X489041Y47735D01*
X489095Y47572D01*
X489140Y47408D01*
X489171Y47339D01*
X489195Y47266D01*
X489274Y47114D01*
X489345Y46959D01*
X489388Y46896D01*
X489423Y46828D01*
X489489Y46746D01*
X489621Y46550D01*
X489783Y46377D01*
X489848Y46295D01*
X490701Y45443D01*
X490701Y22957D01*
X488481Y20737D01*
X488468Y20729D01*
X488281Y20615D01*
X488260Y20596D01*
X488236Y20581D01*
X488073Y20436D01*
X487907Y20293D01*
X487889Y20271D01*
X487868Y20252D01*
X487731Y20082D01*
X487590Y19915D01*
X487579Y19895D01*
X487558Y19868D01*
X487314Y19440D01*
X487286Y19364D01*
X487261Y19318D01*
X486828Y18274D01*
X486757Y18203D01*
X486732Y18174D01*
X486704Y18148D01*
X486573Y17986D01*
X486437Y17827D01*
X486418Y17794D01*
X486394Y17764D01*
X486291Y17583D01*
X486183Y17404D01*
X486169Y17369D01*
X486150Y17336D01*
X486077Y17139D01*
X486000Y16946D01*
X485992Y16909D01*
X485978Y16873D01*
X485938Y16668D01*
X485893Y16465D01*
X485891Y16426D01*
X485884Y16389D01*
X485877Y16181D01*
X485865Y15972D01*
X485869Y15934D01*
X485868Y15896D01*
X485895Y15689D01*
X485917Y15481D01*
X485928Y15445D01*
X485933Y15407D01*
X485993Y15207D01*
X486048Y15006D01*
X486064Y14971D01*
X486075Y14934D01*
X486167Y14747D01*
X486254Y14557D01*
X486275Y14526D01*
X486292Y14491D01*
X486413Y14321D01*
X486529Y14148D01*
X486555Y14120D01*
X486577Y14089D01*
X486724Y13941D01*
X486867Y13788D01*
X486897Y13765D01*
X486924Y13738D01*
X487092Y13616D01*
X487258Y13488D01*
X487292Y13470D01*
X487323Y13448D01*
X487509Y13354D01*
X487693Y13255D01*
X487729Y13243D01*
X487763Y13225D01*
X487962Y13163D01*
X488160Y13095D01*
X488197Y13089D01*
X488234Y13077D01*
X488327Y13067D01*
X488646Y13012D01*
X488818Y13011D01*
X488912Y13001D01*
X512972Y13001D01*
X513010Y13004D01*
G37*
G36*
X441202Y40252D02*
X441202Y40252D01*
X441228Y40250D01*
X441375Y40272D01*
X441522Y40289D01*
X441547Y40297D01*
X441573Y40301D01*
X441711Y40356D01*
X441850Y40406D01*
X441872Y40420D01*
X441897Y40430D01*
X442018Y40515D01*
X442143Y40595D01*
X442161Y40614D01*
X442183Y40629D01*
X442282Y40739D01*
X442385Y40846D01*
X442399Y40868D01*
X442416Y40888D01*
X442488Y41018D01*
X442564Y41145D01*
X442572Y41170D01*
X442585Y41193D01*
X442625Y41336D01*
X442670Y41477D01*
X442672Y41503D01*
X442680Y41528D01*
X442699Y41772D01*
X442699Y45443D01*
X442777Y45521D01*
X442856Y45620D01*
X442940Y45714D01*
X442964Y45756D01*
X442994Y45794D01*
X443048Y45908D01*
X443109Y46019D01*
X443122Y46065D01*
X443143Y46109D01*
X443169Y46232D01*
X443204Y46354D01*
X443209Y46415D01*
X443216Y46450D01*
X443215Y46498D01*
X443223Y46598D01*
X443223Y48502D01*
X443209Y48628D01*
X443202Y48754D01*
X443189Y48800D01*
X443183Y48848D01*
X443141Y48967D01*
X443106Y49089D01*
X443082Y49131D01*
X443066Y49176D01*
X442997Y49283D01*
X442936Y49393D01*
X442896Y49439D01*
X442877Y49469D01*
X442842Y49503D01*
X442777Y49579D01*
X441799Y50557D01*
X441799Y73043D01*
X442777Y74021D01*
X442856Y74120D01*
X442940Y74214D01*
X442964Y74256D01*
X442994Y74294D01*
X443048Y74408D01*
X443109Y74519D01*
X443122Y74565D01*
X443143Y74609D01*
X443169Y74732D01*
X443204Y74854D01*
X443209Y74915D01*
X443216Y74950D01*
X443215Y74998D01*
X443223Y75098D01*
X443223Y78602D01*
X443209Y78728D01*
X443202Y78854D01*
X443189Y78900D01*
X443183Y78948D01*
X443141Y79068D01*
X443106Y79189D01*
X443082Y79231D01*
X443066Y79276D01*
X442997Y79383D01*
X442936Y79493D01*
X442896Y79539D01*
X442877Y79569D01*
X442842Y79603D01*
X442777Y79679D01*
X442399Y80057D01*
X442399Y102543D01*
X442777Y102921D01*
X442856Y103020D01*
X442940Y103114D01*
X442964Y103156D01*
X442994Y103194D01*
X443048Y103308D01*
X443109Y103419D01*
X443122Y103465D01*
X443143Y103509D01*
X443169Y103632D01*
X443204Y103754D01*
X443209Y103815D01*
X443216Y103850D01*
X443215Y103898D01*
X443223Y103998D01*
X443223Y108002D01*
X443209Y108128D01*
X443202Y108254D01*
X443189Y108300D01*
X443183Y108348D01*
X443141Y108467D01*
X443106Y108589D01*
X443082Y108631D01*
X443066Y108676D01*
X442997Y108783D01*
X442936Y108893D01*
X442899Y108936D01*
X442899Y131600D01*
X442896Y131626D01*
X442898Y131652D01*
X442876Y131799D01*
X442859Y131946D01*
X442851Y131971D01*
X442847Y131997D01*
X442792Y132135D01*
X442742Y132274D01*
X442728Y132296D01*
X442718Y132321D01*
X442633Y132442D01*
X442553Y132567D01*
X442534Y132585D01*
X442519Y132607D01*
X442409Y132706D01*
X442302Y132809D01*
X442280Y132823D01*
X442260Y132840D01*
X442130Y132912D01*
X442003Y132988D01*
X441978Y132996D01*
X441955Y133009D01*
X441812Y133049D01*
X441671Y133094D01*
X441645Y133096D01*
X441620Y133104D01*
X441376Y133123D01*
X347420Y133123D01*
X347394Y133120D01*
X347368Y133122D01*
X347221Y133100D01*
X347074Y133083D01*
X347049Y133075D01*
X347023Y133071D01*
X346885Y133016D01*
X346746Y132966D01*
X346724Y132952D01*
X346699Y132942D01*
X346578Y132857D01*
X346453Y132777D01*
X346435Y132758D01*
X346413Y132743D01*
X346314Y132633D01*
X346211Y132526D01*
X346197Y132504D01*
X346180Y132484D01*
X346108Y132354D01*
X346032Y132227D01*
X346024Y132202D01*
X346011Y132179D01*
X345971Y132036D01*
X345926Y131895D01*
X345924Y131869D01*
X345916Y131844D01*
X345897Y131600D01*
X345897Y131481D01*
X345907Y131392D01*
X345907Y131303D01*
X345931Y131185D01*
X345937Y131135D01*
X345946Y131108D01*
X345955Y131063D01*
X345995Y130925D01*
X345907Y130161D01*
X345907Y130111D01*
X345897Y129987D01*
X345897Y63288D01*
X345911Y63163D01*
X345918Y63037D01*
X345931Y62990D01*
X345937Y62942D01*
X345979Y62823D01*
X346014Y62702D01*
X346038Y62660D01*
X346054Y62614D01*
X346123Y62508D01*
X346184Y62398D01*
X346224Y62351D01*
X346243Y62321D01*
X346278Y62288D01*
X346343Y62211D01*
X362839Y45715D01*
X362841Y45714D01*
X362842Y45712D01*
X362981Y45602D01*
X363112Y45499D01*
X363114Y45498D01*
X363115Y45497D01*
X363333Y45385D01*
X363541Y45299D01*
X365299Y43541D01*
X365385Y43333D01*
X365386Y43331D01*
X365387Y43329D01*
X365470Y43181D01*
X365554Y43028D01*
X365556Y43027D01*
X365557Y43025D01*
X365715Y42839D01*
X367859Y40695D01*
X367958Y40616D01*
X368052Y40532D01*
X368095Y40508D01*
X368132Y40478D01*
X368247Y40424D01*
X368357Y40363D01*
X368404Y40350D01*
X368447Y40329D01*
X368571Y40303D01*
X368693Y40268D01*
X368753Y40263D01*
X368788Y40256D01*
X368836Y40257D01*
X368936Y40249D01*
X441176Y40249D01*
X441202Y40252D01*
G37*
G36*
X86063Y13016D02*
X86063Y13016D01*
X86254Y13024D01*
X86309Y13036D01*
X86366Y13041D01*
X86550Y13086D01*
X86736Y13125D01*
X86790Y13146D01*
X86845Y13159D01*
X87020Y13234D01*
X87197Y13303D01*
X87246Y13331D01*
X87298Y13354D01*
X87458Y13456D01*
X87622Y13552D01*
X87666Y13588D01*
X87714Y13619D01*
X87856Y13745D01*
X88002Y13867D01*
X88040Y13910D01*
X88082Y13948D01*
X88202Y14095D01*
X88326Y14239D01*
X88356Y14287D01*
X88392Y14332D01*
X88486Y14496D01*
X88586Y14658D01*
X88608Y14711D01*
X88636Y14760D01*
X88702Y14939D01*
X88775Y15114D01*
X88788Y15169D01*
X88808Y15223D01*
X88844Y15409D01*
X88888Y15594D01*
X88892Y15651D01*
X88903Y15707D01*
X88908Y15896D01*
X88921Y16086D01*
X88916Y16143D01*
X88918Y16200D01*
X88893Y16388D01*
X88875Y16577D01*
X88861Y16633D01*
X88853Y16689D01*
X88799Y16871D01*
X88751Y17055D01*
X88727Y17107D01*
X88711Y17161D01*
X88627Y17332D01*
X88550Y17506D01*
X88519Y17553D01*
X88494Y17605D01*
X88384Y17759D01*
X88280Y17918D01*
X88242Y17960D01*
X88209Y18007D01*
X88075Y18142D01*
X87947Y18282D01*
X87910Y18309D01*
X87862Y18358D01*
X87463Y18648D01*
X87423Y18669D01*
X87398Y18687D01*
X86740Y19067D01*
X86267Y19540D01*
X85932Y20119D01*
X85759Y20765D01*
X85759Y28053D01*
X91253Y28053D01*
X91253Y16048D01*
X91259Y15972D01*
X91256Y15896D01*
X91279Y15727D01*
X91293Y15556D01*
X91311Y15482D01*
X91321Y15407D01*
X91370Y15243D01*
X91411Y15077D01*
X91441Y15008D01*
X91463Y14934D01*
X91538Y14781D01*
X91606Y14624D01*
X91647Y14560D01*
X91680Y14491D01*
X91779Y14352D01*
X91871Y14208D01*
X91922Y14151D01*
X91966Y14089D01*
X92086Y13968D01*
X92200Y13840D01*
X92259Y13792D01*
X92312Y13738D01*
X92451Y13637D01*
X92583Y13530D01*
X92650Y13493D01*
X92711Y13448D01*
X92864Y13371D01*
X93012Y13286D01*
X93084Y13260D01*
X93152Y13225D01*
X93314Y13174D01*
X93475Y13115D01*
X93549Y13100D01*
X93622Y13077D01*
X93727Y13065D01*
X93959Y13020D01*
X94195Y13013D01*
X94300Y13001D01*
X94376Y13007D01*
X94452Y13005D01*
X94621Y13027D01*
X94792Y13041D01*
X94866Y13059D01*
X94941Y13069D01*
X95105Y13118D01*
X95271Y13159D01*
X95341Y13189D01*
X95414Y13211D01*
X95567Y13287D01*
X95724Y13354D01*
X95788Y13395D01*
X95857Y13428D01*
X95996Y13527D01*
X96140Y13619D01*
X96197Y13670D01*
X96259Y13714D01*
X96381Y13834D01*
X96508Y13948D01*
X96556Y14007D01*
X96610Y14061D01*
X96711Y14199D01*
X96818Y14332D01*
X96856Y14398D01*
X96900Y14459D01*
X96977Y14612D01*
X97062Y14760D01*
X97088Y14832D01*
X97123Y14900D01*
X97174Y15063D01*
X97234Y15223D01*
X97248Y15298D01*
X97271Y15370D01*
X97283Y15475D01*
X97328Y15707D01*
X97336Y15943D01*
X97347Y16048D01*
X97347Y28053D01*
X102841Y28053D01*
X102841Y20765D01*
X102668Y20119D01*
X102333Y19540D01*
X101860Y19067D01*
X101202Y18687D01*
X101046Y18579D01*
X100886Y18477D01*
X100843Y18439D01*
X100796Y18407D01*
X100659Y18275D01*
X100518Y18148D01*
X100482Y18104D01*
X100441Y18064D01*
X100327Y17912D01*
X100208Y17764D01*
X100180Y17715D01*
X100145Y17669D01*
X100058Y17501D01*
X99964Y17336D01*
X99944Y17282D01*
X99918Y17232D01*
X99858Y17051D01*
X99792Y16873D01*
X99781Y16817D01*
X99763Y16763D01*
X99734Y16575D01*
X99697Y16389D01*
X99696Y16332D01*
X99687Y16276D01*
X99688Y16085D01*
X99682Y15896D01*
X99690Y15839D01*
X99690Y15782D01*
X99722Y15595D01*
X99747Y15407D01*
X99763Y15352D01*
X99773Y15296D01*
X99834Y15117D01*
X99889Y14934D01*
X99914Y14883D01*
X99933Y14829D01*
X100022Y14662D01*
X100106Y14491D01*
X100139Y14445D01*
X100166Y14395D01*
X100281Y14244D01*
X100391Y14089D01*
X100432Y14048D01*
X100466Y14003D01*
X100605Y13873D01*
X100738Y13738D01*
X100784Y13705D01*
X100826Y13665D01*
X100984Y13559D01*
X101137Y13448D01*
X101188Y13422D01*
X101235Y13390D01*
X101408Y13311D01*
X101577Y13225D01*
X101632Y13208D01*
X101684Y13184D01*
X101866Y13134D01*
X102048Y13077D01*
X102093Y13072D01*
X102159Y13054D01*
X102650Y13002D01*
X102695Y13004D01*
X102726Y13001D01*
X114799Y13001D01*
X114837Y13004D01*
X114875Y13002D01*
X115083Y13024D01*
X115291Y13041D01*
X115328Y13050D01*
X115366Y13054D01*
X115567Y13109D01*
X115769Y13159D01*
X115804Y13174D01*
X115841Y13185D01*
X116031Y13272D01*
X116223Y13354D01*
X116255Y13374D01*
X116290Y13390D01*
X116463Y13507D01*
X116639Y13619D01*
X116667Y13644D01*
X116699Y13666D01*
X116851Y13809D01*
X117007Y13948D01*
X117031Y13977D01*
X117058Y14003D01*
X117186Y14170D01*
X117317Y14332D01*
X117335Y14364D01*
X117359Y14395D01*
X117458Y14579D01*
X117561Y14760D01*
X117574Y14796D01*
X117592Y14830D01*
X117660Y15027D01*
X117732Y15223D01*
X117740Y15260D01*
X117752Y15296D01*
X117787Y15503D01*
X117827Y15707D01*
X117828Y15745D01*
X117835Y15783D01*
X117836Y15992D01*
X117842Y16200D01*
X117837Y16238D01*
X117838Y16276D01*
X117805Y16483D01*
X117778Y16689D01*
X117767Y16726D01*
X117761Y16763D01*
X117696Y16962D01*
X117635Y17161D01*
X117619Y17196D01*
X117607Y17232D01*
X117510Y17417D01*
X117419Y17605D01*
X117396Y17636D01*
X117379Y17670D01*
X117321Y17742D01*
X117133Y18007D01*
X117012Y18129D01*
X116954Y18203D01*
X115299Y19857D01*
X115299Y42343D01*
X116102Y43145D01*
X116151Y43203D01*
X116206Y43256D01*
X116310Y43391D01*
X116421Y43521D01*
X116460Y43587D01*
X116507Y43647D01*
X116587Y43797D01*
X116676Y43944D01*
X116704Y44015D01*
X116740Y44082D01*
X116795Y44243D01*
X116859Y44402D01*
X116875Y44476D01*
X116900Y44548D01*
X116929Y44717D01*
X116966Y44884D01*
X116970Y44960D01*
X116983Y45035D01*
X116984Y45206D01*
X116993Y45376D01*
X116985Y45452D01*
X116986Y45528D01*
X116959Y45697D01*
X116941Y45867D01*
X116921Y45940D01*
X116909Y46015D01*
X116855Y46178D01*
X116810Y46342D01*
X116779Y46412D01*
X116755Y46484D01*
X116676Y46635D01*
X116605Y46791D01*
X116562Y46854D01*
X116527Y46922D01*
X116461Y47004D01*
X116329Y47200D01*
X116167Y47372D01*
X116102Y47455D01*
X114899Y48657D01*
X114899Y71143D01*
X116852Y73095D01*
X116901Y73153D01*
X116956Y73205D01*
X117060Y73341D01*
X117171Y73471D01*
X117210Y73537D01*
X117257Y73597D01*
X117337Y73747D01*
X117426Y73894D01*
X117454Y73964D01*
X117490Y74032D01*
X117545Y74193D01*
X117609Y74352D01*
X117625Y74426D01*
X117650Y74498D01*
X117679Y74667D01*
X117716Y74833D01*
X117720Y74910D01*
X117733Y74985D01*
X117734Y75156D01*
X117743Y75326D01*
X117735Y75402D01*
X117736Y75478D01*
X117709Y75647D01*
X117691Y75817D01*
X117671Y75890D01*
X117659Y75965D01*
X117605Y76128D01*
X117560Y76292D01*
X117529Y76362D01*
X117505Y76434D01*
X117426Y76586D01*
X117355Y76741D01*
X117312Y76804D01*
X117277Y76872D01*
X117211Y76954D01*
X117079Y77150D01*
X116917Y77323D01*
X116852Y77405D01*
X115099Y79157D01*
X115099Y101643D01*
X116152Y102695D01*
X116201Y102753D01*
X116256Y102806D01*
X116361Y102941D01*
X116471Y103071D01*
X116510Y103136D01*
X116557Y103197D01*
X116637Y103347D01*
X116726Y103494D01*
X116754Y103565D01*
X116790Y103632D01*
X116845Y103793D01*
X116909Y103952D01*
X116925Y104026D01*
X116950Y104098D01*
X116979Y104267D01*
X117016Y104434D01*
X117020Y104510D01*
X117033Y104585D01*
X117034Y104756D01*
X117043Y104926D01*
X117035Y105002D01*
X117036Y105078D01*
X117009Y105247D01*
X116991Y105417D01*
X116971Y105490D01*
X116959Y105565D01*
X116905Y105728D01*
X116860Y105892D01*
X116829Y105962D01*
X116805Y106034D01*
X116726Y106185D01*
X116655Y106341D01*
X116612Y106404D01*
X116577Y106472D01*
X116511Y106554D01*
X116379Y106750D01*
X116217Y106922D01*
X116152Y107005D01*
X114499Y108657D01*
X114499Y114184D01*
X114490Y114298D01*
X114491Y114412D01*
X114470Y114544D01*
X114459Y114676D01*
X114432Y114787D01*
X114414Y114900D01*
X114373Y115026D01*
X114341Y115155D01*
X114296Y115260D01*
X114260Y115368D01*
X114199Y115486D01*
X114146Y115608D01*
X114085Y115705D01*
X114032Y115806D01*
X113973Y115879D01*
X113881Y116024D01*
X113665Y116266D01*
X113607Y116339D01*
X110402Y119544D01*
X108272Y121674D01*
X107903Y122564D01*
X107838Y122691D01*
X107782Y122822D01*
X107726Y122910D01*
X107678Y123003D01*
X107593Y123118D01*
X107517Y123238D01*
X107447Y123316D01*
X107385Y123400D01*
X107283Y123500D01*
X107188Y123606D01*
X107107Y123672D01*
X107032Y123745D01*
X106915Y123826D01*
X106804Y123916D01*
X106714Y123968D01*
X106628Y124028D01*
X106500Y124089D01*
X106376Y124160D01*
X106278Y124196D01*
X106184Y124242D01*
X106047Y124282D01*
X105913Y124331D01*
X105811Y124352D01*
X105710Y124381D01*
X105569Y124399D01*
X105429Y124426D01*
X105325Y124429D01*
X105221Y124442D01*
X105078Y124437D01*
X104936Y124442D01*
X104832Y124428D01*
X104728Y124424D01*
X104588Y124396D01*
X104447Y124377D01*
X104347Y124347D01*
X104244Y124326D01*
X104111Y124276D01*
X103974Y124235D01*
X103881Y124189D01*
X103783Y124152D01*
X103659Y124080D01*
X103531Y124018D01*
X103446Y123957D01*
X103356Y123905D01*
X103245Y123815D01*
X103129Y123732D01*
X103055Y123659D01*
X102974Y123593D01*
X102879Y123486D01*
X102778Y123386D01*
X102717Y123301D01*
X102647Y123223D01*
X102571Y123102D01*
X102488Y122987D01*
X102468Y122947D01*
X96547Y122947D01*
X96547Y131504D01*
X96541Y131580D01*
X96544Y131656D01*
X96521Y131825D01*
X96507Y131996D01*
X96489Y132070D01*
X96479Y132145D01*
X96430Y132309D01*
X96389Y132475D01*
X96359Y132544D01*
X96337Y132618D01*
X96262Y132771D01*
X96194Y132928D01*
X96153Y132992D01*
X96120Y133061D01*
X96021Y133200D01*
X95929Y133344D01*
X95878Y133401D01*
X95834Y133463D01*
X95714Y133584D01*
X95600Y133712D01*
X95541Y133760D01*
X95488Y133814D01*
X95349Y133915D01*
X95217Y134022D01*
X95150Y134059D01*
X95089Y134104D01*
X94936Y134181D01*
X94788Y134266D01*
X94716Y134292D01*
X94648Y134327D01*
X94486Y134378D01*
X94325Y134437D01*
X94251Y134452D01*
X94178Y134475D01*
X94073Y134487D01*
X93841Y134532D01*
X93605Y134539D01*
X93500Y134551D01*
X93424Y134545D01*
X93348Y134547D01*
X93178Y134525D01*
X93008Y134511D01*
X92934Y134493D01*
X92859Y134483D01*
X92695Y134434D01*
X92529Y134393D01*
X92459Y134363D01*
X92386Y134341D01*
X92233Y134265D01*
X92076Y134198D01*
X92012Y134157D01*
X91943Y134124D01*
X91804Y134025D01*
X91660Y133933D01*
X91603Y133882D01*
X91541Y133838D01*
X91419Y133718D01*
X91292Y133604D01*
X91244Y133545D01*
X91190Y133491D01*
X91089Y133353D01*
X90982Y133220D01*
X90944Y133154D01*
X90899Y133093D01*
X90823Y132940D01*
X90738Y132792D01*
X90711Y132720D01*
X90677Y132652D01*
X90626Y132489D01*
X90566Y132329D01*
X90552Y132254D01*
X90529Y132182D01*
X90517Y132077D01*
X90472Y131845D01*
X90464Y131609D01*
X90453Y131504D01*
X90453Y122947D01*
X84959Y122947D01*
X84959Y123448D01*
X84956Y123486D01*
X84958Y123524D01*
X84936Y123732D01*
X84919Y123940D01*
X84910Y123977D01*
X84906Y124015D01*
X84851Y124216D01*
X84801Y124419D01*
X84786Y124454D01*
X84775Y124491D01*
X84688Y124681D01*
X84606Y124872D01*
X84586Y124904D01*
X84570Y124939D01*
X84453Y125113D01*
X84341Y125288D01*
X84316Y125317D01*
X84294Y125348D01*
X84151Y125501D01*
X84012Y125656D01*
X83983Y125680D01*
X83956Y125708D01*
X83791Y125835D01*
X83628Y125966D01*
X83595Y125985D01*
X83565Y126008D01*
X83381Y126107D01*
X83200Y126210D01*
X83164Y126223D01*
X83130Y126241D01*
X82933Y126309D01*
X82737Y126382D01*
X82700Y126389D01*
X82664Y126401D01*
X82457Y126437D01*
X82253Y126476D01*
X82215Y126478D01*
X82177Y126484D01*
X81968Y126485D01*
X81760Y126492D01*
X81722Y126487D01*
X81684Y126487D01*
X81477Y126455D01*
X81271Y126427D01*
X81234Y126416D01*
X81197Y126410D01*
X80998Y126345D01*
X80799Y126285D01*
X80764Y126268D01*
X80728Y126256D01*
X80543Y126160D01*
X80355Y126068D01*
X80324Y126046D01*
X80290Y126028D01*
X80218Y125970D01*
X79953Y125783D01*
X79831Y125662D01*
X79757Y125603D01*
X78526Y124372D01*
X77922Y124122D01*
X77820Y124070D01*
X77715Y124027D01*
X77602Y123958D01*
X77483Y123897D01*
X77391Y123829D01*
X77294Y123769D01*
X77193Y123683D01*
X77086Y123604D01*
X77006Y123522D01*
X76920Y123448D01*
X76835Y123346D01*
X76742Y123251D01*
X76676Y123157D01*
X76603Y123070D01*
X76557Y122987D01*
X76459Y122847D01*
X76318Y122554D01*
X76273Y122473D01*
X74960Y119303D01*
X69897Y114240D01*
X66004Y112627D01*
X65970Y112610D01*
X65934Y112597D01*
X65751Y112497D01*
X65565Y112402D01*
X65535Y112380D01*
X65501Y112361D01*
X65336Y112233D01*
X65168Y112109D01*
X65141Y112082D01*
X65111Y112059D01*
X64970Y111906D01*
X64824Y111756D01*
X64802Y111725D01*
X64776Y111697D01*
X64661Y111523D01*
X64541Y111352D01*
X64524Y111318D01*
X64503Y111286D01*
X64417Y111096D01*
X64327Y110908D01*
X64316Y110871D01*
X64300Y110836D01*
X64246Y110635D01*
X64187Y110434D01*
X64182Y110397D01*
X64173Y110360D01*
X64152Y110152D01*
X64126Y109945D01*
X64127Y109907D01*
X64124Y109869D01*
X64137Y109660D01*
X64144Y109452D01*
X64152Y109415D01*
X64154Y109377D01*
X64201Y109173D01*
X64242Y108968D01*
X64256Y108933D01*
X64264Y108896D01*
X64343Y108702D01*
X64417Y108507D01*
X64436Y108474D01*
X64450Y108439D01*
X64559Y108261D01*
X64663Y108080D01*
X64688Y108050D01*
X64707Y108018D01*
X64843Y107860D01*
X64976Y107698D01*
X65004Y107673D01*
X65029Y107644D01*
X65189Y107509D01*
X65346Y107372D01*
X65378Y107351D01*
X65407Y107327D01*
X65489Y107282D01*
X65763Y107109D01*
X65922Y107042D01*
X66004Y106997D01*
X70197Y105260D01*
X75260Y100197D01*
X78001Y93581D01*
X78001Y86419D01*
X75260Y79803D01*
X70197Y74740D01*
X63581Y71999D01*
X61950Y71999D01*
X61760Y71984D01*
X61570Y71976D01*
X61515Y71964D01*
X61458Y71959D01*
X61273Y71914D01*
X61087Y71875D01*
X61034Y71854D01*
X60979Y71841D01*
X60805Y71766D01*
X60627Y71697D01*
X60578Y71668D01*
X60526Y71646D01*
X60366Y71544D01*
X60201Y71448D01*
X60157Y71412D01*
X60110Y71381D01*
X59968Y71254D01*
X59822Y71133D01*
X59784Y71090D01*
X59742Y71052D01*
X59622Y70904D01*
X59497Y70761D01*
X59467Y70713D01*
X59432Y70668D01*
X59338Y70503D01*
X59238Y70342D01*
X59216Y70289D01*
X59188Y70240D01*
X59122Y70061D01*
X59049Y69886D01*
X59036Y69831D01*
X59016Y69777D01*
X58980Y69591D01*
X58936Y69406D01*
X58932Y69349D01*
X58921Y69293D01*
X58916Y69103D01*
X58903Y68913D01*
X58908Y68857D01*
X58906Y68800D01*
X58931Y68612D01*
X58949Y68422D01*
X58963Y68367D01*
X58971Y68311D01*
X59025Y68129D01*
X59074Y67945D01*
X59097Y67893D01*
X59113Y67839D01*
X59197Y67668D01*
X59274Y67494D01*
X59305Y67446D01*
X59330Y67395D01*
X59440Y67240D01*
X59544Y67081D01*
X59582Y67040D01*
X59615Y66993D01*
X59749Y66858D01*
X59877Y66718D01*
X59914Y66691D01*
X59962Y66642D01*
X60205Y66465D01*
X66407Y60263D01*
X70752Y52738D01*
X73001Y44345D01*
X73001Y35655D01*
X70752Y27262D01*
X66407Y19737D01*
X64873Y18203D01*
X64848Y18174D01*
X64820Y18148D01*
X64689Y17986D01*
X64553Y17827D01*
X64534Y17794D01*
X64510Y17764D01*
X64407Y17583D01*
X64299Y17404D01*
X64285Y17369D01*
X64266Y17336D01*
X64193Y17140D01*
X64116Y16946D01*
X64107Y16909D01*
X64094Y16873D01*
X64054Y16669D01*
X64009Y16465D01*
X64007Y16426D01*
X63999Y16389D01*
X63993Y16181D01*
X63981Y15972D01*
X63985Y15934D01*
X63984Y15896D01*
X64011Y15689D01*
X64033Y15481D01*
X64043Y15445D01*
X64048Y15407D01*
X64109Y15206D01*
X64164Y15006D01*
X64180Y14971D01*
X64191Y14934D01*
X64283Y14747D01*
X64370Y14557D01*
X64391Y14526D01*
X64408Y14491D01*
X64529Y14321D01*
X64645Y14148D01*
X64671Y14120D01*
X64693Y14089D01*
X64840Y13941D01*
X64983Y13788D01*
X65013Y13765D01*
X65040Y13738D01*
X65208Y13615D01*
X65374Y13488D01*
X65408Y13470D01*
X65439Y13448D01*
X65625Y13354D01*
X65809Y13255D01*
X65845Y13243D01*
X65879Y13225D01*
X66079Y13162D01*
X66276Y13095D01*
X66313Y13089D01*
X66350Y13077D01*
X66442Y13067D01*
X66762Y13012D01*
X66934Y13011D01*
X67028Y13001D01*
X85874Y13001D01*
X86063Y13016D01*
G37*
G36*
X16238Y63989D02*
X16238Y63989D01*
X16276Y63989D01*
X16483Y64021D01*
X16689Y64048D01*
X16726Y64059D01*
X16763Y64065D01*
X16962Y64131D01*
X17161Y64191D01*
X17196Y64208D01*
X17232Y64220D01*
X17417Y64316D01*
X17605Y64408D01*
X17636Y64430D01*
X17670Y64448D01*
X17742Y64506D01*
X18007Y64693D01*
X18129Y64814D01*
X18203Y64873D01*
X19737Y66407D01*
X27262Y70752D01*
X35655Y73001D01*
X44186Y73001D01*
X44224Y73004D01*
X44262Y73002D01*
X44470Y73024D01*
X44677Y73041D01*
X44714Y73050D01*
X44752Y73054D01*
X44954Y73109D01*
X45156Y73159D01*
X45191Y73174D01*
X45228Y73185D01*
X45418Y73272D01*
X45610Y73354D01*
X45642Y73374D01*
X45676Y73390D01*
X45850Y73507D01*
X46026Y73619D01*
X46054Y73644D01*
X46086Y73666D01*
X46238Y73809D01*
X46394Y73948D01*
X46418Y73977D01*
X46445Y74003D01*
X46573Y74169D01*
X46704Y74332D01*
X46722Y74365D01*
X46746Y74395D01*
X46844Y74579D01*
X46948Y74760D01*
X46961Y74796D01*
X46979Y74830D01*
X47046Y75027D01*
X47119Y75223D01*
X47126Y75260D01*
X47139Y75296D01*
X47174Y75503D01*
X47214Y75707D01*
X47215Y75745D01*
X47221Y75783D01*
X47223Y75992D01*
X47229Y76200D01*
X47224Y76238D01*
X47224Y76276D01*
X47192Y76483D01*
X47165Y76689D01*
X47154Y76726D01*
X47148Y76763D01*
X47083Y76962D01*
X47022Y77161D01*
X47005Y77196D01*
X46994Y77232D01*
X46897Y77417D01*
X46805Y77605D01*
X46783Y77636D01*
X46766Y77670D01*
X46708Y77742D01*
X46520Y78007D01*
X46399Y78129D01*
X46340Y78203D01*
X44740Y79803D01*
X41999Y86419D01*
X41999Y93581D01*
X44740Y100197D01*
X49803Y105260D01*
X53696Y106873D01*
X53730Y106890D01*
X53766Y106903D01*
X53949Y107003D01*
X54135Y107098D01*
X54165Y107120D01*
X54199Y107139D01*
X54364Y107267D01*
X54532Y107391D01*
X54559Y107418D01*
X54589Y107441D01*
X54730Y107594D01*
X54876Y107744D01*
X54898Y107775D01*
X54924Y107803D01*
X55039Y107977D01*
X55159Y108148D01*
X55176Y108182D01*
X55197Y108214D01*
X55283Y108404D01*
X55373Y108592D01*
X55384Y108629D01*
X55400Y108664D01*
X55454Y108865D01*
X55513Y109066D01*
X55517Y109103D01*
X55527Y109140D01*
X55548Y109348D01*
X55574Y109555D01*
X55573Y109593D01*
X55576Y109631D01*
X55563Y109840D01*
X55556Y110048D01*
X55548Y110085D01*
X55546Y110123D01*
X55499Y110326D01*
X55458Y110532D01*
X55444Y110567D01*
X55436Y110604D01*
X55357Y110798D01*
X55283Y110993D01*
X55264Y111026D01*
X55250Y111061D01*
X55141Y111239D01*
X55037Y111420D01*
X55012Y111450D01*
X54993Y111482D01*
X54857Y111640D01*
X54724Y111802D01*
X54696Y111827D01*
X54671Y111856D01*
X54511Y111991D01*
X54354Y112128D01*
X54322Y112149D01*
X54293Y112173D01*
X54211Y112218D01*
X53937Y112391D01*
X53778Y112458D01*
X53696Y112503D01*
X49503Y114240D01*
X44440Y119303D01*
X41699Y125919D01*
X41699Y133081D01*
X44440Y139697D01*
X46540Y141797D01*
X46565Y141826D01*
X46594Y141852D01*
X46724Y142014D01*
X46860Y142173D01*
X46880Y142206D01*
X46904Y142236D01*
X47007Y142417D01*
X47114Y142596D01*
X47129Y142631D01*
X47148Y142664D01*
X47220Y142860D01*
X47298Y143054D01*
X47306Y143091D01*
X47319Y143127D01*
X47359Y143332D01*
X47404Y143536D01*
X47407Y143574D01*
X47414Y143611D01*
X47420Y143819D01*
X47432Y144028D01*
X47428Y144066D01*
X47429Y144104D01*
X47402Y144311D01*
X47380Y144519D01*
X47370Y144555D01*
X47365Y144593D01*
X47304Y144793D01*
X47249Y144994D01*
X47233Y145029D01*
X47222Y145066D01*
X47130Y145253D01*
X47043Y145443D01*
X47022Y145474D01*
X47005Y145509D01*
X46885Y145679D01*
X46768Y145852D01*
X46742Y145880D01*
X46720Y145911D01*
X46573Y146059D01*
X46430Y146212D01*
X46400Y146235D01*
X46373Y146262D01*
X46205Y146385D01*
X46039Y146512D01*
X46005Y146530D01*
X45974Y146552D01*
X45789Y146646D01*
X45604Y146745D01*
X45568Y146758D01*
X45534Y146775D01*
X45335Y146837D01*
X45137Y146905D01*
X45100Y146912D01*
X45063Y146923D01*
X44971Y146933D01*
X44651Y146988D01*
X44479Y146989D01*
X44386Y146999D01*
X35655Y146999D01*
X27262Y149248D01*
X19737Y153593D01*
X18203Y155127D01*
X18174Y155152D01*
X18148Y155180D01*
X17986Y155311D01*
X17827Y155447D01*
X17794Y155466D01*
X17764Y155490D01*
X17583Y155593D01*
X17404Y155701D01*
X17369Y155715D01*
X17336Y155734D01*
X17140Y155807D01*
X16946Y155884D01*
X16909Y155893D01*
X16873Y155906D01*
X16669Y155946D01*
X16465Y155991D01*
X16426Y155993D01*
X16389Y156001D01*
X16181Y156007D01*
X15972Y156019D01*
X15934Y156015D01*
X15896Y156016D01*
X15689Y155989D01*
X15481Y155967D01*
X15445Y155957D01*
X15407Y155952D01*
X15206Y155891D01*
X15006Y155836D01*
X14971Y155820D01*
X14934Y155809D01*
X14747Y155717D01*
X14557Y155630D01*
X14526Y155609D01*
X14491Y155592D01*
X14321Y155471D01*
X14148Y155355D01*
X14120Y155329D01*
X14089Y155307D01*
X13941Y155160D01*
X13788Y155017D01*
X13765Y154987D01*
X13738Y154960D01*
X13615Y154792D01*
X13488Y154626D01*
X13470Y154592D01*
X13448Y154561D01*
X13354Y154375D01*
X13255Y154191D01*
X13243Y154155D01*
X13225Y154121D01*
X13162Y153921D01*
X13095Y153724D01*
X13089Y153687D01*
X13077Y153650D01*
X13067Y153558D01*
X13012Y153238D01*
X13011Y153066D01*
X13001Y152972D01*
X13001Y67028D01*
X13004Y66990D01*
X13002Y66951D01*
X13024Y66744D01*
X13041Y66536D01*
X13050Y66499D01*
X13054Y66461D01*
X13109Y66259D01*
X13159Y66057D01*
X13174Y66022D01*
X13185Y65985D01*
X13272Y65795D01*
X13354Y65604D01*
X13374Y65571D01*
X13390Y65537D01*
X13507Y65363D01*
X13619Y65188D01*
X13644Y65159D01*
X13666Y65127D01*
X13809Y64975D01*
X13948Y64820D01*
X13977Y64796D01*
X14003Y64768D01*
X14169Y64641D01*
X14332Y64510D01*
X14365Y64491D01*
X14395Y64468D01*
X14579Y64369D01*
X14760Y64266D01*
X14796Y64252D01*
X14830Y64234D01*
X15027Y64167D01*
X15223Y64094D01*
X15260Y64087D01*
X15296Y64074D01*
X15503Y64039D01*
X15707Y63999D01*
X15745Y63998D01*
X15783Y63992D01*
X15992Y63991D01*
X16200Y63984D01*
X16238Y63989D01*
G37*
G36*
X469728Y23103D02*
X469728Y23103D01*
X469804Y23101D01*
X469973Y23123D01*
X470144Y23137D01*
X470218Y23155D01*
X470293Y23165D01*
X470457Y23214D01*
X470623Y23255D01*
X470692Y23285D01*
X470766Y23307D01*
X470919Y23383D01*
X471076Y23450D01*
X471140Y23491D01*
X471209Y23524D01*
X471348Y23623D01*
X471492Y23715D01*
X471549Y23766D01*
X471611Y23810D01*
X471732Y23930D01*
X471860Y24044D01*
X471908Y24103D01*
X471962Y24157D01*
X472063Y24295D01*
X472170Y24428D01*
X472207Y24494D01*
X472252Y24555D01*
X472329Y24708D01*
X472414Y24856D01*
X472440Y24928D01*
X472475Y24996D01*
X472526Y25159D01*
X472585Y25319D01*
X472600Y25394D01*
X472623Y25466D01*
X472635Y25571D01*
X472680Y25803D01*
X472687Y26039D01*
X472699Y26144D01*
X472699Y45451D01*
X472701Y45453D01*
X472756Y45506D01*
X472860Y45641D01*
X472971Y45771D01*
X473010Y45837D01*
X473057Y45897D01*
X473137Y46047D01*
X473226Y46194D01*
X473254Y46265D01*
X473290Y46332D01*
X473345Y46493D01*
X473409Y46652D01*
X473425Y46726D01*
X473450Y46798D01*
X473479Y46967D01*
X473516Y47134D01*
X473520Y47210D01*
X473533Y47285D01*
X473534Y47456D01*
X473543Y47626D01*
X473535Y47702D01*
X473536Y47778D01*
X473509Y47947D01*
X473491Y48117D01*
X473471Y48190D01*
X473459Y48265D01*
X473405Y48428D01*
X473360Y48592D01*
X473329Y48662D01*
X473305Y48734D01*
X473226Y48886D01*
X473155Y49041D01*
X473112Y49104D01*
X473077Y49172D01*
X473011Y49254D01*
X472879Y49450D01*
X472717Y49622D01*
X472652Y49705D01*
X471799Y50557D01*
X471799Y73043D01*
X473452Y74695D01*
X473501Y74753D01*
X473556Y74806D01*
X473660Y74941D01*
X473771Y75071D01*
X473810Y75137D01*
X473857Y75197D01*
X473937Y75347D01*
X474026Y75494D01*
X474054Y75565D01*
X474090Y75632D01*
X474145Y75793D01*
X474209Y75952D01*
X474225Y76026D01*
X474250Y76098D01*
X474279Y76267D01*
X474316Y76434D01*
X474320Y76510D01*
X474333Y76585D01*
X474334Y76756D01*
X474343Y76926D01*
X474335Y77002D01*
X474336Y77078D01*
X474309Y77247D01*
X474291Y77417D01*
X474271Y77490D01*
X474259Y77565D01*
X474205Y77728D01*
X474160Y77892D01*
X474129Y77962D01*
X474105Y78034D01*
X474026Y78186D01*
X473955Y78341D01*
X473912Y78404D01*
X473877Y78472D01*
X473811Y78554D01*
X473679Y78750D01*
X473517Y78922D01*
X473452Y79005D01*
X472399Y80057D01*
X472399Y102543D01*
X473702Y103845D01*
X473751Y103903D01*
X473806Y103956D01*
X473910Y104091D01*
X474021Y104221D01*
X474060Y104287D01*
X474107Y104347D01*
X474187Y104497D01*
X474276Y104644D01*
X474304Y104715D01*
X474340Y104782D01*
X474395Y104943D01*
X474459Y105102D01*
X474475Y105176D01*
X474500Y105248D01*
X474529Y105417D01*
X474566Y105584D01*
X474570Y105660D01*
X474583Y105735D01*
X474584Y105906D01*
X474593Y106076D01*
X474585Y106152D01*
X474586Y106228D01*
X474559Y106397D01*
X474541Y106567D01*
X474521Y106640D01*
X474509Y106715D01*
X474455Y106878D01*
X474410Y107042D01*
X474379Y107112D01*
X474355Y107184D01*
X474276Y107336D01*
X474205Y107491D01*
X474162Y107554D01*
X474127Y107622D01*
X474061Y107704D01*
X473929Y107900D01*
X473767Y108072D01*
X473702Y108155D01*
X472899Y108957D01*
X472899Y119384D01*
X472890Y119498D01*
X472891Y119612D01*
X472870Y119744D01*
X472859Y119876D01*
X472832Y119987D01*
X472814Y120100D01*
X472773Y120226D01*
X472741Y120355D01*
X472696Y120460D01*
X472660Y120568D01*
X472598Y120686D01*
X472546Y120808D01*
X472485Y120905D01*
X472432Y121006D01*
X472373Y121079D01*
X472281Y121224D01*
X472065Y121467D01*
X472007Y121539D01*
X465643Y127903D01*
X465614Y127928D01*
X465588Y127956D01*
X465426Y128087D01*
X465267Y128223D01*
X465234Y128242D01*
X465204Y128266D01*
X465024Y128369D01*
X464844Y128477D01*
X464809Y128491D01*
X464776Y128510D01*
X464580Y128583D01*
X464386Y128660D01*
X464349Y128668D01*
X464313Y128682D01*
X464108Y128722D01*
X463904Y128767D01*
X463866Y128769D01*
X463829Y128776D01*
X463621Y128783D01*
X463412Y128795D01*
X463374Y128791D01*
X463336Y128792D01*
X463129Y128765D01*
X462921Y128742D01*
X462885Y128732D01*
X462847Y128727D01*
X462647Y128667D01*
X462446Y128612D01*
X462411Y128596D01*
X462374Y128585D01*
X462187Y128493D01*
X461997Y128406D01*
X461965Y128385D01*
X461931Y128368D01*
X461761Y128247D01*
X461588Y128131D01*
X461560Y128105D01*
X461529Y128083D01*
X461380Y127936D01*
X461228Y127793D01*
X461205Y127763D01*
X461178Y127736D01*
X461055Y127567D01*
X460928Y127401D01*
X460910Y127368D01*
X460888Y127337D01*
X460794Y127151D01*
X460695Y126967D01*
X460683Y126931D01*
X460665Y126897D01*
X460603Y126698D01*
X460535Y126500D01*
X460529Y126463D01*
X460517Y126426D01*
X460507Y126334D01*
X460452Y126014D01*
X460451Y125842D01*
X460441Y125748D01*
X460441Y123247D01*
X451900Y123247D01*
X451824Y123241D01*
X451748Y123244D01*
X451579Y123221D01*
X451409Y123207D01*
X451335Y123189D01*
X451259Y123179D01*
X451095Y123130D01*
X450930Y123089D01*
X450860Y123059D01*
X450787Y123037D01*
X450633Y122962D01*
X450476Y122894D01*
X450412Y122853D01*
X450344Y122820D01*
X450204Y122721D01*
X450060Y122629D01*
X450004Y122578D01*
X449941Y122534D01*
X449820Y122414D01*
X449692Y122300D01*
X449644Y122241D01*
X449590Y122187D01*
X449489Y122049D01*
X449382Y121916D01*
X449344Y121850D01*
X449299Y121788D01*
X449223Y121636D01*
X449138Y121487D01*
X449111Y121416D01*
X449077Y121348D01*
X449026Y121185D01*
X448966Y121025D01*
X448952Y120950D01*
X448929Y120877D01*
X448917Y120773D01*
X448872Y120541D01*
X448864Y120305D01*
X448853Y120200D01*
X448853Y106888D01*
X448859Y106812D01*
X448856Y106736D01*
X448879Y106567D01*
X448893Y106396D01*
X448911Y106322D01*
X448921Y106247D01*
X448970Y106083D01*
X449011Y105917D01*
X449041Y105847D01*
X449063Y105774D01*
X449138Y105621D01*
X449206Y105464D01*
X449247Y105400D01*
X449280Y105331D01*
X449379Y105192D01*
X449471Y105048D01*
X449522Y104991D01*
X449566Y104929D01*
X449686Y104807D01*
X449800Y104680D01*
X449859Y104632D01*
X449912Y104578D01*
X450051Y104477D01*
X450183Y104370D01*
X450250Y104333D01*
X450311Y104288D01*
X450464Y104211D01*
X450612Y104126D01*
X450684Y104100D01*
X450752Y104065D01*
X450914Y104014D01*
X451075Y103955D01*
X451149Y103940D01*
X451222Y103917D01*
X451327Y103905D01*
X451559Y103860D01*
X451795Y103853D01*
X451900Y103841D01*
X451976Y103847D01*
X452052Y103845D01*
X452221Y103867D01*
X452392Y103881D01*
X452466Y103899D01*
X452541Y103909D01*
X452705Y103958D01*
X452871Y103999D01*
X452941Y104029D01*
X453014Y104051D01*
X453167Y104127D01*
X453324Y104194D01*
X453388Y104235D01*
X453457Y104268D01*
X453596Y104367D01*
X453740Y104459D01*
X453797Y104510D01*
X453859Y104554D01*
X453981Y104674D01*
X454108Y104788D01*
X454156Y104847D01*
X454210Y104900D01*
X454311Y105039D01*
X454418Y105171D01*
X454456Y105238D01*
X454500Y105299D01*
X454577Y105452D01*
X454662Y105600D01*
X454688Y105672D01*
X454723Y105740D01*
X454774Y105903D01*
X454834Y106063D01*
X454848Y106137D01*
X454871Y106210D01*
X454883Y106315D01*
X454928Y106547D01*
X454936Y106783D01*
X454947Y106888D01*
X454947Y117153D01*
X460441Y117153D01*
X460441Y109865D01*
X460268Y109219D01*
X459933Y108640D01*
X459439Y108146D01*
X459329Y108070D01*
X459141Y107944D01*
X459128Y107931D01*
X459112Y107920D01*
X458948Y107762D01*
X458782Y107606D01*
X458770Y107591D01*
X458757Y107578D01*
X458620Y107395D01*
X458481Y107214D01*
X458473Y107198D01*
X458461Y107183D01*
X458356Y106981D01*
X458248Y106780D01*
X458242Y106762D01*
X458233Y106745D01*
X458162Y106529D01*
X458088Y106313D01*
X458085Y106294D01*
X458079Y106276D01*
X458044Y106050D01*
X458006Y105826D01*
X458006Y105808D01*
X458003Y105789D01*
X458004Y105562D01*
X458003Y105333D01*
X458006Y105314D01*
X458006Y105296D01*
X458044Y105072D01*
X458079Y104846D01*
X458085Y104828D01*
X458088Y104809D01*
X458162Y104594D01*
X458234Y104377D01*
X458242Y104361D01*
X458248Y104343D01*
X458356Y104143D01*
X458461Y103940D01*
X458471Y103927D01*
X458482Y103908D01*
X458782Y103517D01*
X458849Y103453D01*
X458887Y103406D01*
X459433Y102860D01*
X459768Y102281D01*
X459941Y101635D01*
X459941Y94347D01*
X451400Y94347D01*
X451324Y94341D01*
X451248Y94344D01*
X451079Y94321D01*
X450909Y94307D01*
X450835Y94289D01*
X450759Y94279D01*
X450595Y94230D01*
X450430Y94189D01*
X450360Y94159D01*
X450287Y94137D01*
X450133Y94062D01*
X449976Y93994D01*
X449912Y93953D01*
X449844Y93920D01*
X449704Y93821D01*
X449560Y93729D01*
X449504Y93678D01*
X449441Y93634D01*
X449320Y93514D01*
X449192Y93400D01*
X449145Y93341D01*
X449090Y93288D01*
X448990Y93149D01*
X448883Y93017D01*
X448845Y92950D01*
X448800Y92889D01*
X448723Y92736D01*
X448639Y92588D01*
X448612Y92516D01*
X448578Y92448D01*
X448526Y92286D01*
X448467Y92125D01*
X448452Y92051D01*
X448429Y91978D01*
X448418Y91873D01*
X448372Y91641D01*
X448365Y91405D01*
X448353Y91300D01*
X448359Y91224D01*
X448357Y91148D01*
X448379Y90978D01*
X448393Y90808D01*
X448411Y90734D01*
X448421Y90659D01*
X448471Y90495D01*
X448512Y90329D01*
X448542Y90259D01*
X448564Y90186D01*
X448639Y90033D01*
X448706Y89876D01*
X448747Y89812D01*
X448781Y89743D01*
X448880Y89604D01*
X448971Y89460D01*
X449022Y89403D01*
X449066Y89341D01*
X449186Y89219D01*
X449300Y89092D01*
X449359Y89044D01*
X449413Y88990D01*
X449551Y88889D01*
X449684Y88782D01*
X449750Y88744D01*
X449812Y88699D01*
X449964Y88623D01*
X450113Y88538D01*
X450184Y88511D01*
X450252Y88477D01*
X450415Y88426D01*
X450575Y88366D01*
X450650Y88352D01*
X450723Y88329D01*
X450827Y88317D01*
X451059Y88272D01*
X451295Y88264D01*
X451400Y88253D01*
X459941Y88253D01*
X459941Y80965D01*
X459768Y80319D01*
X459433Y79740D01*
X458960Y79267D01*
X458525Y79016D01*
X458415Y78940D01*
X458300Y78873D01*
X458213Y78800D01*
X458119Y78735D01*
X458023Y78643D01*
X457921Y78558D01*
X457846Y78472D01*
X457764Y78393D01*
X457684Y78286D01*
X457597Y78186D01*
X457537Y78089D01*
X457469Y77998D01*
X457407Y77880D01*
X457337Y77766D01*
X457293Y77661D01*
X457241Y77560D01*
X457199Y77434D01*
X457148Y77311D01*
X457122Y77200D01*
X457087Y77092D01*
X457066Y76960D01*
X457035Y76830D01*
X457028Y76717D01*
X457010Y76605D01*
X457011Y76471D01*
X457002Y76338D01*
X457012Y76225D01*
X457013Y76111D01*
X457035Y75980D01*
X457048Y75847D01*
X457077Y75737D01*
X457096Y75625D01*
X457139Y75499D01*
X457173Y75370D01*
X457219Y75266D01*
X457256Y75158D01*
X457319Y75041D01*
X457373Y74919D01*
X457435Y74824D01*
X457489Y74723D01*
X457570Y74618D01*
X457643Y74506D01*
X457720Y74422D01*
X457789Y74332D01*
X457886Y74241D01*
X457977Y74143D01*
X458044Y74093D01*
X458149Y73994D01*
X458302Y73891D01*
X458833Y73360D01*
X459168Y72781D01*
X459341Y72135D01*
X459341Y64847D01*
X450800Y64847D01*
X450724Y64841D01*
X450648Y64844D01*
X450479Y64821D01*
X450309Y64807D01*
X450235Y64789D01*
X450159Y64779D01*
X449995Y64730D01*
X449830Y64689D01*
X449760Y64659D01*
X449687Y64637D01*
X449533Y64562D01*
X449376Y64494D01*
X449312Y64453D01*
X449244Y64420D01*
X449104Y64321D01*
X448960Y64229D01*
X448904Y64178D01*
X448841Y64134D01*
X448720Y64014D01*
X448592Y63900D01*
X448545Y63841D01*
X448490Y63788D01*
X448390Y63649D01*
X448283Y63517D01*
X448245Y63450D01*
X448200Y63389D01*
X448123Y63236D01*
X448039Y63088D01*
X448012Y63016D01*
X447978Y62948D01*
X447926Y62786D01*
X447867Y62625D01*
X447852Y62551D01*
X447829Y62478D01*
X447818Y62373D01*
X447772Y62141D01*
X447765Y61905D01*
X447753Y61800D01*
X447759Y61724D01*
X447757Y61648D01*
X447779Y61478D01*
X447793Y61308D01*
X447811Y61234D01*
X447821Y61159D01*
X447871Y60995D01*
X447912Y60829D01*
X447942Y60759D01*
X447964Y60686D01*
X448039Y60533D01*
X448106Y60376D01*
X448147Y60312D01*
X448181Y60243D01*
X448280Y60104D01*
X448371Y59960D01*
X448422Y59903D01*
X448466Y59841D01*
X448586Y59719D01*
X448700Y59592D01*
X448759Y59544D01*
X448813Y59490D01*
X448951Y59389D01*
X449084Y59282D01*
X449150Y59244D01*
X449212Y59199D01*
X449364Y59123D01*
X449513Y59038D01*
X449584Y59011D01*
X449652Y58977D01*
X449815Y58926D01*
X449975Y58866D01*
X450050Y58852D01*
X450123Y58829D01*
X450227Y58817D01*
X450459Y58772D01*
X450695Y58764D01*
X450800Y58753D01*
X459341Y58753D01*
X459341Y51465D01*
X459168Y50819D01*
X458692Y49995D01*
X458619Y49841D01*
X458538Y49690D01*
X458513Y49618D01*
X458481Y49550D01*
X458433Y49385D01*
X458378Y49223D01*
X458365Y49149D01*
X458344Y49076D01*
X458324Y48905D01*
X458295Y48737D01*
X458295Y48661D01*
X458286Y48586D01*
X458293Y48415D01*
X458292Y48244D01*
X458304Y48169D01*
X458307Y48093D01*
X458342Y47926D01*
X458369Y47756D01*
X458393Y47684D01*
X458408Y47610D01*
X458470Y47450D01*
X458523Y47288D01*
X458558Y47220D01*
X458585Y47150D01*
X458672Y47002D01*
X458751Y46850D01*
X458788Y46803D01*
X458835Y46724D01*
X459150Y46344D01*
X459166Y46329D01*
X459176Y46317D01*
X459733Y45760D01*
X460068Y45181D01*
X460241Y44535D01*
X460241Y37247D01*
X451700Y37247D01*
X451624Y37241D01*
X451548Y37244D01*
X451379Y37221D01*
X451209Y37207D01*
X451135Y37189D01*
X451059Y37179D01*
X450895Y37130D01*
X450730Y37089D01*
X450660Y37059D01*
X450587Y37037D01*
X450433Y36962D01*
X450276Y36894D01*
X450212Y36853D01*
X450144Y36820D01*
X450004Y36721D01*
X449860Y36629D01*
X449804Y36578D01*
X449741Y36534D01*
X449620Y36414D01*
X449492Y36300D01*
X449445Y36241D01*
X449390Y36188D01*
X449290Y36049D01*
X449183Y35917D01*
X449145Y35850D01*
X449100Y35789D01*
X449023Y35636D01*
X448939Y35488D01*
X448912Y35416D01*
X448878Y35348D01*
X448826Y35186D01*
X448767Y35025D01*
X448752Y34951D01*
X448729Y34878D01*
X448718Y34773D01*
X448672Y34541D01*
X448665Y34305D01*
X448653Y34200D01*
X448659Y34124D01*
X448657Y34048D01*
X448679Y33878D01*
X448693Y33708D01*
X448711Y33634D01*
X448721Y33559D01*
X448771Y33395D01*
X448812Y33229D01*
X448842Y33159D01*
X448864Y33086D01*
X448939Y32933D01*
X449006Y32776D01*
X449047Y32712D01*
X449081Y32643D01*
X449180Y32504D01*
X449271Y32360D01*
X449322Y32303D01*
X449366Y32241D01*
X449486Y32119D01*
X449600Y31992D01*
X449659Y31944D01*
X449713Y31890D01*
X449851Y31789D01*
X449984Y31682D01*
X450050Y31644D01*
X450112Y31599D01*
X450264Y31523D01*
X450413Y31438D01*
X450484Y31411D01*
X450552Y31377D01*
X450715Y31326D01*
X450875Y31266D01*
X450950Y31252D01*
X451023Y31229D01*
X451127Y31217D01*
X451359Y31172D01*
X451595Y31164D01*
X451700Y31153D01*
X460241Y31153D01*
X460241Y26144D01*
X460247Y26068D01*
X460245Y25992D01*
X460267Y25823D01*
X460281Y25652D01*
X460299Y25578D01*
X460309Y25503D01*
X460358Y25339D01*
X460399Y25173D01*
X460429Y25104D01*
X460451Y25030D01*
X460527Y24877D01*
X460594Y24720D01*
X460635Y24656D01*
X460668Y24587D01*
X460767Y24448D01*
X460859Y24304D01*
X460910Y24247D01*
X460954Y24185D01*
X461074Y24064D01*
X461188Y23936D01*
X461247Y23888D01*
X461300Y23834D01*
X461439Y23733D01*
X461571Y23626D01*
X461638Y23589D01*
X461699Y23544D01*
X461852Y23467D01*
X462000Y23382D01*
X462072Y23356D01*
X462140Y23321D01*
X462303Y23270D01*
X462463Y23211D01*
X462537Y23196D01*
X462610Y23173D01*
X462715Y23161D01*
X462947Y23116D01*
X463183Y23109D01*
X463288Y23097D01*
X469652Y23097D01*
X469728Y23103D01*
G37*
%LPC*%
G36*
X312299Y153259D02*
X312299Y153259D01*
X312299Y166301D01*
X319341Y166301D01*
X319341Y165537D01*
X319344Y165499D01*
X319342Y165461D01*
X319364Y165253D01*
X319381Y165046D01*
X319390Y165009D01*
X319394Y164971D01*
X319449Y164769D01*
X319499Y164567D01*
X319514Y164532D01*
X319525Y164495D01*
X319612Y164305D01*
X319694Y164113D01*
X319714Y164081D01*
X319730Y164047D01*
X319847Y163873D01*
X319959Y163697D01*
X319984Y163669D01*
X320006Y163637D01*
X320149Y163485D01*
X320288Y163329D01*
X320317Y163305D01*
X320343Y163278D01*
X320509Y163150D01*
X320672Y163019D01*
X320705Y163001D01*
X320735Y162977D01*
X320919Y162879D01*
X321100Y162775D01*
X321136Y162762D01*
X321170Y162744D01*
X321367Y162677D01*
X321563Y162604D01*
X321600Y162597D01*
X321636Y162584D01*
X321843Y162549D01*
X322047Y162509D01*
X322085Y162508D01*
X322123Y162502D01*
X322332Y162500D01*
X322540Y162494D01*
X322578Y162499D01*
X322616Y162499D01*
X322823Y162531D01*
X323029Y162558D01*
X323066Y162569D01*
X323103Y162575D01*
X323302Y162640D01*
X323501Y162701D01*
X323536Y162718D01*
X323572Y162729D01*
X323757Y162826D01*
X323945Y162918D01*
X323976Y162940D01*
X324010Y162957D01*
X324082Y163015D01*
X324347Y163203D01*
X324469Y163324D01*
X324543Y163383D01*
X326471Y165311D01*
X326615Y165386D01*
X326826Y165494D01*
X326834Y165500D01*
X326842Y165504D01*
X326874Y165530D01*
X327223Y165787D01*
X327314Y165881D01*
X327376Y165930D01*
X332907Y171461D01*
X332981Y171548D01*
X333062Y171628D01*
X333140Y171736D01*
X333226Y171837D01*
X333285Y171935D01*
X333352Y172027D01*
X333412Y172146D01*
X333481Y172259D01*
X333523Y172366D01*
X333575Y172467D01*
X333615Y172594D01*
X333664Y172718D01*
X333689Y172829D01*
X333723Y172938D01*
X333733Y173031D01*
X333771Y173199D01*
X333789Y173523D01*
X333799Y173616D01*
X333799Y192543D01*
X335557Y194301D01*
X366543Y194301D01*
X368301Y192543D01*
X368301Y160057D01*
X366543Y158299D01*
X338116Y158299D01*
X338003Y158290D01*
X337889Y158291D01*
X337757Y158270D01*
X337624Y158259D01*
X337514Y158232D01*
X337402Y158214D01*
X337275Y158173D01*
X337145Y158141D01*
X337041Y158096D01*
X336933Y158060D01*
X336814Y157999D01*
X336692Y157946D01*
X336596Y157885D01*
X336495Y157833D01*
X336422Y157774D01*
X336276Y157681D01*
X336035Y157466D01*
X335962Y157408D01*
X335931Y157377D01*
X335924Y157369D01*
X335916Y157362D01*
X335909Y157353D01*
X335908Y157352D01*
X335902Y157344D01*
X335765Y157181D01*
X335611Y157001D01*
X335606Y156992D01*
X335599Y156984D01*
X335578Y156947D01*
X335356Y156578D01*
X335315Y156475D01*
X333541Y154701D01*
X331243Y153749D01*
X328757Y153749D01*
X326459Y154701D01*
X324416Y156745D01*
X324314Y156831D01*
X324219Y156924D01*
X324127Y156990D01*
X324040Y157064D01*
X323926Y157133D01*
X323817Y157210D01*
X323715Y157260D01*
X323617Y157319D01*
X323494Y157368D01*
X323374Y157427D01*
X323265Y157459D01*
X323159Y157502D01*
X323029Y157531D01*
X322902Y157569D01*
X322789Y157584D01*
X322677Y157609D01*
X322544Y157616D01*
X322412Y157633D01*
X322299Y157630D01*
X322185Y157636D01*
X322052Y157622D01*
X321919Y157618D01*
X321807Y157596D01*
X321694Y157584D01*
X321566Y157549D01*
X321435Y157523D01*
X321328Y157483D01*
X321218Y157453D01*
X321097Y157398D01*
X320973Y157351D01*
X320874Y157295D01*
X320770Y157248D01*
X320660Y157173D01*
X320544Y157107D01*
X320455Y157036D01*
X320361Y156972D01*
X320264Y156881D01*
X320160Y156797D01*
X320084Y156712D01*
X320001Y156634D01*
X319920Y156529D01*
X319832Y156429D01*
X319770Y156333D01*
X319701Y156243D01*
X319638Y156125D01*
X319567Y156013D01*
X319536Y155935D01*
X319468Y155808D01*
X319341Y155439D01*
X319317Y155378D01*
X319168Y154819D01*
X318833Y154240D01*
X318360Y153767D01*
X317781Y153432D01*
X317135Y153259D01*
X312299Y153259D01*
G37*
%LPD*%
G36*
X249391Y13004D02*
X249391Y13004D01*
X249429Y13002D01*
X249637Y13024D01*
X249845Y13041D01*
X249882Y13050D01*
X249920Y13054D01*
X250121Y13109D01*
X250324Y13159D01*
X250359Y13174D01*
X250396Y13185D01*
X250586Y13272D01*
X250777Y13354D01*
X250809Y13374D01*
X250844Y13390D01*
X251017Y13507D01*
X251193Y13619D01*
X251222Y13644D01*
X251253Y13666D01*
X251405Y13809D01*
X251561Y13948D01*
X251585Y13977D01*
X251613Y14003D01*
X251740Y14169D01*
X251871Y14332D01*
X251890Y14365D01*
X251913Y14395D01*
X252012Y14579D01*
X252115Y14760D01*
X252128Y14796D01*
X252146Y14830D01*
X252214Y15027D01*
X252287Y15223D01*
X252294Y15260D01*
X252306Y15296D01*
X252341Y15503D01*
X252381Y15707D01*
X252382Y15745D01*
X252389Y15783D01*
X252390Y15992D01*
X252397Y16200D01*
X252392Y16238D01*
X252392Y16276D01*
X252359Y16483D01*
X252332Y16689D01*
X252321Y16726D01*
X252315Y16763D01*
X252250Y16962D01*
X252190Y17161D01*
X252173Y17196D01*
X252161Y17232D01*
X252065Y17417D01*
X251973Y17605D01*
X251951Y17636D01*
X251933Y17670D01*
X251875Y17742D01*
X251687Y18007D01*
X251566Y18129D01*
X251508Y18203D01*
X236202Y33509D01*
X236120Y33578D01*
X236104Y33594D01*
X236101Y33596D01*
X236035Y33664D01*
X235927Y33742D01*
X235826Y33828D01*
X235728Y33887D01*
X235636Y33954D01*
X235517Y34014D01*
X235403Y34083D01*
X235297Y34125D01*
X235195Y34177D01*
X235069Y34217D01*
X234945Y34266D01*
X234834Y34291D01*
X234725Y34325D01*
X234631Y34335D01*
X234464Y34373D01*
X234139Y34391D01*
X234047Y34401D01*
X233488Y34401D01*
X233412Y34395D01*
X233336Y34397D01*
X233167Y34375D01*
X232996Y34361D01*
X232922Y34343D01*
X232847Y34333D01*
X232683Y34284D01*
X232517Y34243D01*
X232448Y34213D01*
X232374Y34191D01*
X232221Y34115D01*
X232064Y34048D01*
X232000Y34007D01*
X231931Y33974D01*
X231792Y33875D01*
X231648Y33783D01*
X231591Y33732D01*
X231529Y33688D01*
X231408Y33568D01*
X231280Y33454D01*
X231232Y33395D01*
X231178Y33341D01*
X231077Y33203D01*
X230970Y33070D01*
X230933Y33004D01*
X230888Y32943D01*
X230811Y32790D01*
X230726Y32642D01*
X230700Y32570D01*
X230665Y32502D01*
X230614Y32339D01*
X230555Y32179D01*
X230540Y32104D01*
X230517Y32032D01*
X230505Y31927D01*
X230460Y31695D01*
X230453Y31459D01*
X230441Y31354D01*
X230441Y30797D01*
X216900Y30797D01*
X203359Y30797D01*
X203359Y32084D01*
X203467Y32485D01*
X203470Y32504D01*
X203476Y32522D01*
X203515Y32748D01*
X203555Y32970D01*
X203556Y32989D01*
X203559Y33008D01*
X203560Y33237D01*
X203565Y33463D01*
X203562Y33482D01*
X203562Y33502D01*
X203527Y33727D01*
X203494Y33952D01*
X203488Y33970D01*
X203485Y33989D01*
X203414Y34205D01*
X203346Y34422D01*
X203337Y34439D01*
X203331Y34458D01*
X203226Y34660D01*
X203123Y34863D01*
X203112Y34878D01*
X203103Y34895D01*
X203062Y34946D01*
X202899Y35170D01*
X202899Y36988D01*
X202896Y37026D01*
X202898Y37064D01*
X202876Y37272D01*
X202859Y37480D01*
X202850Y37517D01*
X202846Y37555D01*
X202791Y37756D01*
X202741Y37959D01*
X202726Y37994D01*
X202715Y38031D01*
X202628Y38221D01*
X202546Y38412D01*
X202526Y38444D01*
X202510Y38479D01*
X202393Y38653D01*
X202281Y38828D01*
X202256Y38857D01*
X202234Y38888D01*
X202091Y39040D01*
X201952Y39196D01*
X201923Y39220D01*
X201897Y39248D01*
X201731Y39375D01*
X201568Y39506D01*
X201535Y39525D01*
X201505Y39548D01*
X201321Y39647D01*
X201140Y39750D01*
X201104Y39763D01*
X201070Y39781D01*
X200873Y39849D01*
X200677Y39922D01*
X200640Y39929D01*
X200604Y39941D01*
X200397Y39977D01*
X200193Y40016D01*
X200155Y40018D01*
X200117Y40024D01*
X199908Y40025D01*
X199700Y40032D01*
X199662Y40027D01*
X199624Y40027D01*
X199417Y39995D01*
X199211Y39967D01*
X199174Y39956D01*
X199137Y39950D01*
X198938Y39885D01*
X198739Y39825D01*
X198704Y39808D01*
X198668Y39796D01*
X198483Y39700D01*
X198295Y39608D01*
X198264Y39586D01*
X198230Y39568D01*
X198158Y39510D01*
X197893Y39323D01*
X197771Y39202D01*
X197697Y39143D01*
X176757Y18203D01*
X176732Y18174D01*
X176704Y18148D01*
X176573Y17986D01*
X176437Y17827D01*
X176418Y17794D01*
X176394Y17764D01*
X176291Y17584D01*
X176183Y17404D01*
X176169Y17369D01*
X176150Y17336D01*
X176077Y17140D01*
X176000Y16946D01*
X175992Y16909D01*
X175978Y16873D01*
X175938Y16668D01*
X175893Y16464D01*
X175891Y16426D01*
X175884Y16389D01*
X175877Y16181D01*
X175865Y15972D01*
X175869Y15934D01*
X175868Y15896D01*
X175895Y15689D01*
X175918Y15481D01*
X175928Y15445D01*
X175933Y15407D01*
X175993Y15207D01*
X176048Y15006D01*
X176064Y14971D01*
X176075Y14934D01*
X176167Y14747D01*
X176254Y14557D01*
X176275Y14525D01*
X176292Y14491D01*
X176413Y14321D01*
X176529Y14148D01*
X176555Y14120D01*
X176577Y14089D01*
X176724Y13940D01*
X176867Y13788D01*
X176897Y13765D01*
X176924Y13738D01*
X177093Y13615D01*
X177259Y13488D01*
X177292Y13470D01*
X177323Y13448D01*
X177509Y13354D01*
X177693Y13255D01*
X177729Y13243D01*
X177763Y13225D01*
X177962Y13163D01*
X178160Y13095D01*
X178197Y13089D01*
X178234Y13077D01*
X178326Y13067D01*
X178646Y13012D01*
X178818Y13011D01*
X178912Y13001D01*
X249353Y13001D01*
X249391Y13004D01*
G37*
G36*
X166246Y25958D02*
X166246Y25958D01*
X166360Y25957D01*
X166492Y25978D01*
X166624Y25989D01*
X166735Y26016D01*
X166848Y26034D01*
X166974Y26075D01*
X167103Y26107D01*
X167208Y26152D01*
X167316Y26188D01*
X167434Y26250D01*
X167556Y26302D01*
X167652Y26363D01*
X167754Y26416D01*
X167827Y26475D01*
X167972Y26567D01*
X168215Y26783D01*
X168287Y26841D01*
X196792Y55346D01*
X196909Y55484D01*
X197032Y55616D01*
X197068Y55671D01*
X197112Y55722D01*
X197205Y55877D01*
X197304Y56027D01*
X197332Y56088D01*
X197366Y56145D01*
X197433Y56313D01*
X197507Y56477D01*
X197525Y56541D01*
X197549Y56603D01*
X197588Y56779D01*
X197635Y56953D01*
X197642Y57019D01*
X197656Y57084D01*
X197666Y57265D01*
X197684Y57444D01*
X197680Y57511D01*
X197684Y57577D01*
X197665Y57757D01*
X197653Y57937D01*
X197638Y58001D01*
X197631Y58068D01*
X197584Y58242D01*
X197543Y58418D01*
X197518Y58479D01*
X197501Y58543D01*
X197426Y58707D01*
X197358Y58875D01*
X197323Y58931D01*
X197295Y58992D01*
X197194Y59141D01*
X197100Y59295D01*
X197057Y59346D01*
X197020Y59401D01*
X196896Y59532D01*
X196778Y59669D01*
X196727Y59712D01*
X196682Y59761D01*
X196539Y59871D01*
X196400Y59986D01*
X196354Y60012D01*
X196290Y60061D01*
X195856Y60294D01*
X195824Y60305D01*
X195803Y60316D01*
X194824Y60722D01*
X190772Y64774D01*
X189851Y66997D01*
X189851Y76243D01*
X189842Y76357D01*
X189843Y76471D01*
X189822Y76602D01*
X189811Y76735D01*
X189784Y76845D01*
X189766Y76958D01*
X189725Y77084D01*
X189693Y77213D01*
X189648Y77318D01*
X189612Y77427D01*
X189550Y77545D01*
X189498Y77667D01*
X189437Y77763D01*
X189384Y77864D01*
X189325Y77938D01*
X189233Y78083D01*
X189017Y78325D01*
X188959Y78398D01*
X186818Y80538D01*
X186782Y80659D01*
X186741Y80825D01*
X186711Y80894D01*
X186689Y80968D01*
X186613Y81121D01*
X186546Y81278D01*
X186505Y81342D01*
X186472Y81411D01*
X186373Y81550D01*
X186281Y81694D01*
X186230Y81751D01*
X186186Y81813D01*
X186066Y81934D01*
X185952Y82062D01*
X185893Y82110D01*
X185839Y82164D01*
X185701Y82265D01*
X185568Y82372D01*
X185502Y82409D01*
X185441Y82454D01*
X185288Y82531D01*
X185140Y82616D01*
X185068Y82642D01*
X185000Y82677D01*
X184837Y82728D01*
X184677Y82787D01*
X184602Y82802D01*
X184530Y82825D01*
X184425Y82837D01*
X184193Y82882D01*
X183957Y82889D01*
X183852Y82901D01*
X183387Y82901D01*
X183377Y82900D01*
X183368Y82901D01*
X183132Y82881D01*
X182895Y82861D01*
X182886Y82859D01*
X182876Y82858D01*
X182838Y82847D01*
X182417Y82743D01*
X182316Y82699D01*
X181359Y82699D01*
X181321Y82696D01*
X181283Y82698D01*
X181075Y82676D01*
X180867Y82659D01*
X180830Y82650D01*
X180792Y82646D01*
X180591Y82591D01*
X180388Y82541D01*
X180353Y82526D01*
X180317Y82515D01*
X180127Y82428D01*
X179935Y82346D01*
X179903Y82326D01*
X179868Y82310D01*
X179695Y82193D01*
X179519Y82081D01*
X179491Y82056D01*
X179459Y82034D01*
X179307Y81891D01*
X179151Y81752D01*
X179127Y81723D01*
X179099Y81697D01*
X178972Y81531D01*
X178841Y81368D01*
X178822Y81335D01*
X178799Y81305D01*
X178700Y81121D01*
X178597Y80940D01*
X178584Y80904D01*
X178566Y80870D01*
X178498Y80673D01*
X178426Y80477D01*
X178418Y80440D01*
X178406Y80404D01*
X178371Y80197D01*
X178331Y79993D01*
X178330Y79955D01*
X178323Y79917D01*
X178322Y79708D01*
X178316Y79500D01*
X178321Y79462D01*
X178320Y79424D01*
X178353Y79217D01*
X178380Y79011D01*
X178391Y78974D01*
X178397Y78937D01*
X178462Y78738D01*
X178522Y78539D01*
X178539Y78504D01*
X178551Y78468D01*
X178648Y78283D01*
X178739Y78095D01*
X178761Y78064D01*
X178779Y78030D01*
X178837Y77958D01*
X179025Y77693D01*
X179146Y77571D01*
X179204Y77497D01*
X180973Y75728D01*
X182513Y72012D01*
X182513Y67988D01*
X180973Y64272D01*
X178128Y61427D01*
X174412Y59887D01*
X170388Y59887D01*
X170112Y60002D01*
X169940Y60057D01*
X169771Y60120D01*
X169706Y60133D01*
X169643Y60153D01*
X169464Y60180D01*
X169287Y60215D01*
X169221Y60217D01*
X169155Y60227D01*
X168974Y60224D01*
X168794Y60230D01*
X168728Y60221D01*
X168662Y60220D01*
X168484Y60189D01*
X168305Y60165D01*
X168241Y60146D01*
X168176Y60135D01*
X168005Y60075D01*
X167832Y60023D01*
X167773Y59994D01*
X167710Y59972D01*
X167551Y59885D01*
X167389Y59806D01*
X167335Y59768D01*
X167277Y59736D01*
X167134Y59625D01*
X166987Y59521D01*
X166940Y59474D01*
X166887Y59433D01*
X166765Y59301D01*
X166636Y59174D01*
X166597Y59120D01*
X166552Y59071D01*
X166452Y58921D01*
X166346Y58775D01*
X166316Y58716D01*
X166279Y58660D01*
X166205Y58496D01*
X166123Y58335D01*
X166103Y58271D01*
X166076Y58211D01*
X166029Y58036D01*
X165975Y57864D01*
X165969Y57812D01*
X165948Y57734D01*
X165899Y57243D01*
X165901Y57210D01*
X165899Y57186D01*
X165899Y51447D01*
X164978Y49224D01*
X151993Y36239D01*
X151919Y36152D01*
X151838Y36072D01*
X151760Y35964D01*
X151674Y35863D01*
X151615Y35765D01*
X151548Y35673D01*
X151488Y35555D01*
X151419Y35441D01*
X151377Y35334D01*
X151325Y35233D01*
X151285Y35106D01*
X151236Y34982D01*
X151211Y34871D01*
X151177Y34762D01*
X151167Y34669D01*
X151129Y34501D01*
X151111Y34177D01*
X151101Y34084D01*
X151101Y28996D01*
X151107Y28920D01*
X151105Y28844D01*
X151127Y28675D01*
X151141Y28504D01*
X151159Y28430D01*
X151169Y28355D01*
X151218Y28191D01*
X151259Y28025D01*
X151289Y27956D01*
X151311Y27882D01*
X151387Y27729D01*
X151454Y27572D01*
X151495Y27508D01*
X151528Y27439D01*
X151627Y27300D01*
X151719Y27156D01*
X151770Y27099D01*
X151814Y27037D01*
X151934Y26916D01*
X152048Y26788D01*
X152107Y26740D01*
X152161Y26686D01*
X152299Y26585D01*
X152432Y26478D01*
X152498Y26441D01*
X152559Y26396D01*
X152712Y26319D01*
X152860Y26234D01*
X152932Y26208D01*
X153000Y26173D01*
X153163Y26122D01*
X153323Y26063D01*
X153398Y26048D01*
X153470Y26025D01*
X153575Y26013D01*
X153807Y25968D01*
X154043Y25961D01*
X154148Y25949D01*
X166132Y25949D01*
X166246Y25958D01*
G37*
%LPC*%
G36*
X93900Y62947D02*
X93900Y62947D01*
X85359Y62947D01*
X85359Y70235D01*
X85532Y70881D01*
X85867Y71460D01*
X86340Y71933D01*
X86971Y72297D01*
X87152Y72355D01*
X87203Y72380D01*
X87256Y72399D01*
X87423Y72491D01*
X87593Y72577D01*
X87638Y72610D01*
X87688Y72638D01*
X87837Y72755D01*
X87991Y72868D01*
X88031Y72908D01*
X88076Y72943D01*
X88204Y73083D01*
X88338Y73219D01*
X88371Y73265D01*
X88409Y73307D01*
X88513Y73466D01*
X88623Y73621D01*
X88648Y73672D01*
X88679Y73719D01*
X88756Y73893D01*
X88840Y74064D01*
X88856Y74119D01*
X88879Y74170D01*
X88927Y74355D01*
X88982Y74537D01*
X88990Y74593D01*
X89004Y74648D01*
X89022Y74837D01*
X89046Y75026D01*
X89045Y75082D01*
X89050Y75139D01*
X89037Y75328D01*
X89031Y75519D01*
X89020Y75575D01*
X89016Y75631D01*
X88973Y75816D01*
X88936Y76003D01*
X88916Y76056D01*
X88903Y76111D01*
X88831Y76287D01*
X88764Y76465D01*
X88736Y76515D01*
X88715Y76567D01*
X88614Y76729D01*
X88520Y76894D01*
X88485Y76938D01*
X88455Y76986D01*
X88330Y77130D01*
X88210Y77278D01*
X88168Y77316D01*
X88131Y77358D01*
X87984Y77479D01*
X87842Y77606D01*
X87794Y77637D01*
X87751Y77673D01*
X87587Y77769D01*
X87426Y77871D01*
X87384Y77888D01*
X87325Y77922D01*
X87280Y77940D01*
X86540Y78367D01*
X86067Y78840D01*
X85732Y79419D01*
X85559Y80065D01*
X85559Y87353D01*
X94100Y87353D01*
X102641Y87353D01*
X102641Y80065D01*
X102468Y79419D01*
X102133Y78840D01*
X101660Y78367D01*
X101029Y78003D01*
X100847Y77945D01*
X100797Y77920D01*
X100744Y77901D01*
X100577Y77809D01*
X100407Y77723D01*
X100361Y77690D01*
X100312Y77662D01*
X100163Y77545D01*
X100008Y77432D01*
X99969Y77392D01*
X99924Y77357D01*
X99796Y77217D01*
X99662Y77081D01*
X99629Y77035D01*
X99591Y76993D01*
X99487Y76834D01*
X99377Y76679D01*
X99352Y76628D01*
X99321Y76581D01*
X99244Y76407D01*
X99160Y76235D01*
X99144Y76181D01*
X99121Y76130D01*
X99073Y75946D01*
X99018Y75763D01*
X99010Y75707D01*
X98996Y75652D01*
X98978Y75463D01*
X98953Y75274D01*
X98955Y75217D01*
X98950Y75161D01*
X98963Y74972D01*
X98969Y74781D01*
X98980Y74725D01*
X98984Y74669D01*
X99027Y74483D01*
X99064Y74297D01*
X99084Y74244D01*
X99097Y74189D01*
X99169Y74013D01*
X99236Y73834D01*
X99264Y73785D01*
X99285Y73733D01*
X99386Y73571D01*
X99480Y73406D01*
X99515Y73362D01*
X99545Y73314D01*
X99670Y73170D01*
X99790Y73022D01*
X99832Y72984D01*
X99869Y72942D01*
X100016Y72820D01*
X100158Y72693D01*
X100206Y72663D01*
X100249Y72627D01*
X100414Y72531D01*
X100574Y72428D01*
X100616Y72412D01*
X100675Y72378D01*
X100720Y72360D01*
X101460Y71933D01*
X101933Y71460D01*
X102268Y70881D01*
X102441Y70235D01*
X102441Y62947D01*
X93900Y62947D01*
X93900Y62947D01*
G37*
%LPD*%
%LPC*%
G36*
X94100Y93447D02*
X94100Y93447D01*
X85559Y93447D01*
X85559Y100735D01*
X85732Y101381D01*
X86067Y101960D01*
X86571Y102464D01*
X86599Y102481D01*
X86687Y102553D01*
X86781Y102618D01*
X86877Y102711D01*
X86979Y102796D01*
X87054Y102881D01*
X87136Y102960D01*
X87216Y103067D01*
X87303Y103167D01*
X87363Y103264D01*
X87431Y103355D01*
X87493Y103474D01*
X87563Y103587D01*
X87607Y103692D01*
X87659Y103793D01*
X87701Y103920D01*
X87752Y104043D01*
X87778Y104153D01*
X87813Y104262D01*
X87834Y104393D01*
X87865Y104523D01*
X87872Y104636D01*
X87890Y104749D01*
X87889Y104882D01*
X87898Y105015D01*
X87888Y105128D01*
X87887Y105242D01*
X87865Y105374D01*
X87852Y105506D01*
X87823Y105616D01*
X87804Y105729D01*
X87761Y105855D01*
X87727Y105984D01*
X87681Y106087D01*
X87644Y106195D01*
X87581Y106313D01*
X87527Y106434D01*
X87465Y106530D01*
X87411Y106630D01*
X87330Y106736D01*
X87257Y106847D01*
X87180Y106931D01*
X87111Y107021D01*
X87014Y107113D01*
X86924Y107211D01*
X86856Y107261D01*
X86751Y107359D01*
X86427Y107577D01*
X86375Y107616D01*
X85940Y107867D01*
X85467Y108340D01*
X85132Y108919D01*
X84959Y109565D01*
X84959Y116853D01*
X93500Y116853D01*
X102041Y116853D01*
X102041Y109565D01*
X101868Y108919D01*
X101533Y108340D01*
X101029Y107836D01*
X101001Y107819D01*
X100913Y107747D01*
X100819Y107682D01*
X100723Y107589D01*
X100621Y107504D01*
X100546Y107419D01*
X100464Y107340D01*
X100384Y107233D01*
X100297Y107133D01*
X100237Y107036D01*
X100169Y106945D01*
X100107Y106826D01*
X100037Y106713D01*
X99993Y106608D01*
X99941Y106507D01*
X99899Y106380D01*
X99848Y106257D01*
X99822Y106147D01*
X99787Y106038D01*
X99766Y105907D01*
X99735Y105777D01*
X99728Y105664D01*
X99710Y105551D01*
X99711Y105418D01*
X99702Y105285D01*
X99712Y105172D01*
X99713Y105058D01*
X99735Y104926D01*
X99748Y104794D01*
X99777Y104684D01*
X99796Y104571D01*
X99839Y104445D01*
X99873Y104316D01*
X99919Y104213D01*
X99956Y104105D01*
X100019Y103987D01*
X100073Y103866D01*
X100135Y103770D01*
X100189Y103670D01*
X100270Y103564D01*
X100343Y103453D01*
X100420Y103369D01*
X100489Y103279D01*
X100586Y103187D01*
X100676Y103089D01*
X100744Y103039D01*
X100849Y102941D01*
X101173Y102723D01*
X101225Y102684D01*
X101660Y102433D01*
X102133Y101960D01*
X102468Y101381D01*
X102641Y100735D01*
X102641Y93447D01*
X94100Y93447D01*
X94100Y93447D01*
G37*
%LPD*%
%LPC*%
G36*
X170588Y114487D02*
X170588Y114487D01*
X166872Y116027D01*
X164027Y118872D01*
X162403Y122793D01*
X162340Y122915D01*
X162286Y123042D01*
X162274Y123061D01*
X162267Y123077D01*
X162220Y123149D01*
X162178Y123232D01*
X162096Y123343D01*
X162022Y123459D01*
X162007Y123476D01*
X161998Y123490D01*
X161940Y123553D01*
X161885Y123629D01*
X161786Y123725D01*
X161694Y123828D01*
X161676Y123843D01*
X161665Y123855D01*
X161599Y123907D01*
X161531Y123973D01*
X161419Y124052D01*
X161312Y124139D01*
X161291Y124151D01*
X161279Y124161D01*
X161205Y124202D01*
X161127Y124256D01*
X161003Y124316D01*
X160884Y124384D01*
X160861Y124393D01*
X160847Y124401D01*
X160768Y124429D01*
X160683Y124470D01*
X160551Y124509D01*
X160422Y124557D01*
X160398Y124562D01*
X160383Y124568D01*
X160301Y124583D01*
X160246Y124599D01*
X160370Y124637D01*
X160504Y124667D01*
X160592Y124703D01*
X160672Y124726D01*
X160687Y124733D01*
X160710Y124740D01*
X160833Y124801D01*
X160961Y124853D01*
X161042Y124903D01*
X161118Y124939D01*
X161131Y124948D01*
X161152Y124958D01*
X161264Y125039D01*
X161382Y125111D01*
X161453Y125172D01*
X161523Y125220D01*
X161535Y125232D01*
X161553Y125245D01*
X161651Y125343D01*
X161756Y125432D01*
X161816Y125504D01*
X161877Y125563D01*
X161887Y125577D01*
X161903Y125593D01*
X161984Y125705D01*
X162073Y125810D01*
X162108Y125873D01*
X162172Y125959D01*
X162180Y125975D01*
X162193Y125993D01*
X162306Y126219D01*
X162398Y126398D01*
X162400Y126402D01*
X162403Y126407D01*
X164027Y130328D01*
X166872Y133173D01*
X170588Y134713D01*
X174612Y134713D01*
X178328Y133173D01*
X181173Y130328D01*
X182713Y126612D01*
X182713Y122784D01*
X182724Y122642D01*
X182726Y122534D01*
X182556Y122199D01*
X182537Y122164D01*
X181173Y118872D01*
X178328Y116027D01*
X174612Y114487D01*
X170588Y114487D01*
G37*
%LPD*%
%LPC*%
G36*
X85759Y34147D02*
X85759Y34147D01*
X85759Y41435D01*
X85932Y42081D01*
X86267Y42660D01*
X86787Y43180D01*
X86934Y43353D01*
X87084Y43525D01*
X87094Y43541D01*
X87106Y43556D01*
X87223Y43750D01*
X87344Y43945D01*
X87351Y43962D01*
X87361Y43978D01*
X87445Y44189D01*
X87532Y44400D01*
X87537Y44419D01*
X87544Y44436D01*
X87593Y44658D01*
X87645Y44881D01*
X87646Y44899D01*
X87650Y44918D01*
X87663Y45146D01*
X87679Y45373D01*
X87677Y45391D01*
X87678Y45410D01*
X87654Y45638D01*
X87633Y45864D01*
X87628Y45882D01*
X87626Y45901D01*
X87566Y46121D01*
X87508Y46341D01*
X87500Y46359D01*
X87495Y46377D01*
X87400Y46584D01*
X87308Y46792D01*
X87297Y46808D01*
X87290Y46825D01*
X87162Y47015D01*
X87037Y47205D01*
X87025Y47219D01*
X87014Y47234D01*
X86857Y47401D01*
X86704Y47569D01*
X86692Y47578D01*
X86676Y47594D01*
X86403Y47803D01*
X85867Y48340D01*
X85532Y48919D01*
X85359Y49565D01*
X85359Y56853D01*
X93900Y56853D01*
X102441Y56853D01*
X102441Y49565D01*
X102268Y48919D01*
X101933Y48340D01*
X101413Y47820D01*
X101266Y47647D01*
X101116Y47475D01*
X101106Y47459D01*
X101094Y47444D01*
X100977Y47250D01*
X100856Y47055D01*
X100849Y47038D01*
X100839Y47022D01*
X100755Y46811D01*
X100668Y46600D01*
X100663Y46581D01*
X100656Y46564D01*
X100607Y46341D01*
X100555Y46119D01*
X100554Y46101D01*
X100550Y46082D01*
X100537Y45853D01*
X100521Y45627D01*
X100523Y45609D01*
X100522Y45590D01*
X100546Y45362D01*
X100567Y45136D01*
X100572Y45118D01*
X100574Y45099D01*
X100635Y44879D01*
X100692Y44659D01*
X100700Y44641D01*
X100705Y44623D01*
X100800Y44416D01*
X100892Y44208D01*
X100903Y44192D01*
X100910Y44175D01*
X101038Y43985D01*
X101163Y43795D01*
X101175Y43781D01*
X101186Y43766D01*
X101343Y43599D01*
X101496Y43431D01*
X101508Y43422D01*
X101524Y43406D01*
X101797Y43197D01*
X102333Y42660D01*
X102668Y42081D01*
X102841Y41435D01*
X102841Y34147D01*
X97347Y34147D01*
X97347Y44312D01*
X97341Y44388D01*
X97344Y44464D01*
X97321Y44633D01*
X97307Y44804D01*
X97289Y44878D01*
X97279Y44953D01*
X97230Y45117D01*
X97189Y45283D01*
X97159Y45352D01*
X97137Y45426D01*
X97062Y45579D01*
X96994Y45736D01*
X96953Y45800D01*
X96920Y45869D01*
X96821Y46008D01*
X96729Y46152D01*
X96678Y46209D01*
X96634Y46271D01*
X96514Y46392D01*
X96400Y46520D01*
X96341Y46568D01*
X96288Y46622D01*
X96149Y46723D01*
X96017Y46830D01*
X95950Y46867D01*
X95889Y46912D01*
X95736Y46989D01*
X95588Y47074D01*
X95516Y47100D01*
X95448Y47135D01*
X95286Y47186D01*
X95125Y47245D01*
X95051Y47260D01*
X94978Y47283D01*
X94873Y47295D01*
X94641Y47340D01*
X94405Y47347D01*
X94300Y47359D01*
X94224Y47353D01*
X94148Y47355D01*
X93978Y47333D01*
X93808Y47319D01*
X93734Y47301D01*
X93659Y47291D01*
X93495Y47242D01*
X93329Y47201D01*
X93259Y47171D01*
X93186Y47149D01*
X93033Y47073D01*
X92876Y47006D01*
X92812Y46965D01*
X92743Y46932D01*
X92604Y46833D01*
X92460Y46741D01*
X92403Y46690D01*
X92341Y46646D01*
X92219Y46526D01*
X92092Y46412D01*
X92044Y46353D01*
X91990Y46299D01*
X91889Y46161D01*
X91782Y46028D01*
X91744Y45962D01*
X91699Y45901D01*
X91623Y45748D01*
X91538Y45600D01*
X91511Y45528D01*
X91477Y45460D01*
X91426Y45297D01*
X91366Y45137D01*
X91352Y45062D01*
X91329Y44990D01*
X91317Y44885D01*
X91272Y44653D01*
X91264Y44417D01*
X91253Y44312D01*
X91253Y34147D01*
X85759Y34147D01*
G37*
%LPD*%
G36*
X312504Y63987D02*
X312504Y63987D01*
X312580Y63985D01*
X312749Y64007D01*
X312920Y64021D01*
X312994Y64039D01*
X313069Y64049D01*
X313233Y64098D01*
X313399Y64139D01*
X313468Y64169D01*
X313542Y64191D01*
X313695Y64267D01*
X313852Y64334D01*
X313916Y64375D01*
X313985Y64408D01*
X314124Y64507D01*
X314268Y64599D01*
X314325Y64650D01*
X314387Y64694D01*
X314508Y64814D01*
X314636Y64928D01*
X314684Y64987D01*
X314738Y65041D01*
X314839Y65179D01*
X314946Y65312D01*
X314983Y65378D01*
X315028Y65439D01*
X315105Y65592D01*
X315190Y65740D01*
X315216Y65812D01*
X315251Y65880D01*
X315302Y66043D01*
X315361Y66203D01*
X315376Y66278D01*
X315399Y66350D01*
X315411Y66455D01*
X315456Y66687D01*
X315463Y66923D01*
X315475Y67028D01*
X315475Y90512D01*
X315469Y90588D01*
X315471Y90664D01*
X315449Y90833D01*
X315435Y91004D01*
X315417Y91078D01*
X315407Y91153D01*
X315358Y91317D01*
X315317Y91483D01*
X315287Y91552D01*
X315265Y91626D01*
X315189Y91779D01*
X315122Y91936D01*
X315081Y92000D01*
X315048Y92069D01*
X314949Y92208D01*
X314857Y92352D01*
X314806Y92409D01*
X314762Y92471D01*
X314642Y92592D01*
X314528Y92720D01*
X314469Y92768D01*
X314415Y92822D01*
X314277Y92923D01*
X314144Y93030D01*
X314078Y93067D01*
X314017Y93112D01*
X313864Y93189D01*
X313716Y93274D01*
X313644Y93300D01*
X313576Y93335D01*
X313413Y93386D01*
X313253Y93445D01*
X313178Y93460D01*
X313106Y93483D01*
X313001Y93495D01*
X312769Y93540D01*
X312533Y93547D01*
X312428Y93559D01*
X311640Y93559D01*
X311527Y93550D01*
X311412Y93551D01*
X311281Y93530D01*
X311149Y93519D01*
X311038Y93492D01*
X310925Y93474D01*
X310799Y93433D01*
X310670Y93401D01*
X310565Y93356D01*
X310456Y93320D01*
X310339Y93258D01*
X310217Y93206D01*
X310120Y93145D01*
X310019Y93092D01*
X309945Y93033D01*
X309800Y92941D01*
X309558Y92725D01*
X309486Y92667D01*
X307493Y90674D01*
X307419Y90587D01*
X307338Y90507D01*
X307260Y90400D01*
X307174Y90298D01*
X307115Y90200D01*
X307048Y90108D01*
X306988Y89990D01*
X306919Y89876D01*
X306877Y89770D01*
X306825Y89668D01*
X306785Y89541D01*
X306736Y89418D01*
X306711Y89306D01*
X306677Y89197D01*
X306667Y89104D01*
X306629Y88936D01*
X306611Y88612D01*
X306601Y88520D01*
X306601Y78363D01*
X306593Y78353D01*
X306513Y78203D01*
X306424Y78056D01*
X306396Y77985D01*
X306360Y77918D01*
X306305Y77757D01*
X306241Y77598D01*
X306225Y77524D01*
X306200Y77452D01*
X306171Y77283D01*
X306134Y77116D01*
X306130Y77040D01*
X306117Y76965D01*
X306116Y76795D01*
X306107Y76624D01*
X306115Y76548D01*
X306114Y76472D01*
X306141Y76303D01*
X306159Y76133D01*
X306179Y76060D01*
X306191Y75985D01*
X306244Y75822D01*
X306290Y75658D01*
X306321Y75588D01*
X306345Y75516D01*
X306424Y75364D01*
X306495Y75209D01*
X306538Y75146D01*
X306573Y75078D01*
X306601Y75044D01*
X306601Y67028D01*
X306607Y66952D01*
X306605Y66876D01*
X306627Y66707D01*
X306641Y66536D01*
X306659Y66462D01*
X306669Y66387D01*
X306718Y66223D01*
X306759Y66057D01*
X306789Y65988D01*
X306811Y65914D01*
X306887Y65761D01*
X306954Y65604D01*
X306995Y65540D01*
X307028Y65471D01*
X307127Y65332D01*
X307219Y65188D01*
X307270Y65131D01*
X307314Y65069D01*
X307434Y64948D01*
X307548Y64820D01*
X307607Y64772D01*
X307661Y64718D01*
X307799Y64617D01*
X307932Y64510D01*
X307998Y64473D01*
X308059Y64428D01*
X308212Y64351D01*
X308360Y64266D01*
X308432Y64240D01*
X308500Y64205D01*
X308663Y64154D01*
X308823Y64095D01*
X308898Y64080D01*
X308970Y64057D01*
X309075Y64045D01*
X309307Y64000D01*
X309543Y63993D01*
X309648Y63981D01*
X312428Y63981D01*
X312504Y63987D01*
G37*
%LPC*%
G36*
X150247Y124600D02*
X150247Y124600D01*
X150247Y133759D01*
X150905Y133546D01*
X152259Y132856D01*
X153488Y131963D01*
X154563Y130888D01*
X155456Y129659D01*
X156146Y128305D01*
X156689Y126632D01*
X156697Y126614D01*
X156702Y126594D01*
X156756Y126467D01*
X156802Y126337D01*
X156845Y126258D01*
X156879Y126177D01*
X156889Y126161D01*
X156898Y126141D01*
X156972Y126025D01*
X157038Y125904D01*
X157094Y125832D01*
X157140Y125758D01*
X157152Y125744D01*
X157164Y125726D01*
X157256Y125623D01*
X157341Y125515D01*
X157408Y125452D01*
X157465Y125387D01*
X157479Y125376D01*
X157494Y125359D01*
X157601Y125273D01*
X157702Y125179D01*
X157780Y125128D01*
X157846Y125073D01*
X157861Y125065D01*
X157879Y125050D01*
X157999Y124983D01*
X158114Y124906D01*
X158199Y124868D01*
X158272Y124825D01*
X158288Y124819D01*
X158308Y124808D01*
X158437Y124760D01*
X158563Y124703D01*
X158654Y124679D01*
X158733Y124649D01*
X158749Y124646D01*
X158771Y124637D01*
X158907Y124611D01*
X158939Y124603D01*
X158933Y124601D01*
X158916Y124599D01*
X158836Y124573D01*
X158744Y124555D01*
X158615Y124506D01*
X158483Y124467D01*
X158461Y124456D01*
X158445Y124451D01*
X158370Y124413D01*
X158282Y124380D01*
X158163Y124311D01*
X158039Y124251D01*
X158020Y124238D01*
X158005Y124230D01*
X157936Y124180D01*
X157855Y124134D01*
X157748Y124046D01*
X157636Y123967D01*
X157619Y123951D01*
X157605Y123941D01*
X157545Y123880D01*
X157473Y123821D01*
X157382Y123718D01*
X157284Y123621D01*
X157270Y123603D01*
X157258Y123590D01*
X157207Y123520D01*
X157147Y123451D01*
X157073Y123335D01*
X156992Y123223D01*
X156982Y123204D01*
X156971Y123189D01*
X156945Y123131D01*
X156942Y123126D01*
X156884Y123033D01*
X156831Y122907D01*
X156768Y122784D01*
X156746Y122705D01*
X156693Y122579D01*
X156691Y122572D01*
X156689Y122568D01*
X156146Y120895D01*
X155456Y119541D01*
X154563Y118312D01*
X153488Y117237D01*
X152259Y116344D01*
X150905Y115654D01*
X150247Y115441D01*
X150247Y124600D01*
G37*
%LPD*%
%LPC*%
G36*
X312299Y175299D02*
X312299Y175299D01*
X312299Y188341D01*
X317135Y188341D01*
X317781Y188168D01*
X318360Y187833D01*
X318833Y187360D01*
X319168Y186781D01*
X319341Y186135D01*
X319341Y175299D01*
X312299Y175299D01*
G37*
%LPD*%
%LPC*%
G36*
X296259Y175299D02*
X296259Y175299D01*
X296259Y186135D01*
X296432Y186781D01*
X296767Y187360D01*
X297240Y187833D01*
X297819Y188168D01*
X298465Y188341D01*
X303301Y188341D01*
X303301Y175299D01*
X296259Y175299D01*
G37*
%LPD*%
%LPC*%
G36*
X298465Y153259D02*
X298465Y153259D01*
X297819Y153432D01*
X297240Y153767D01*
X296767Y154240D01*
X296432Y154819D01*
X296259Y155465D01*
X296259Y166301D01*
X303301Y166301D01*
X303301Y153259D01*
X298465Y153259D01*
G37*
%LPD*%
%LPC*%
G36*
X219947Y21209D02*
X219947Y21209D01*
X219947Y24703D01*
X230441Y24703D01*
X230441Y23415D01*
X230268Y22769D01*
X229933Y22190D01*
X229460Y21717D01*
X228881Y21382D01*
X228235Y21209D01*
X219947Y21209D01*
G37*
%LPD*%
%LPC*%
G36*
X205565Y21209D02*
X205565Y21209D01*
X204919Y21382D01*
X204340Y21717D01*
X203867Y22190D01*
X203532Y22769D01*
X203359Y23415D01*
X203359Y24703D01*
X213853Y24703D01*
X213853Y21209D01*
X205565Y21209D01*
G37*
%LPD*%
D10*
X93500Y119900D03*
X123500Y119900D03*
X451900Y120200D03*
X481900Y120200D03*
D11*
X233800Y170800D03*
X307800Y170800D03*
D12*
X465200Y148650D03*
X465200Y193150D03*
D13*
X351050Y176300D03*
X401550Y176300D03*
D14*
X172400Y70000D03*
X147000Y70000D03*
X147200Y124600D03*
X172600Y124600D03*
D15*
X274300Y65850D03*
X274300Y53150D03*
X274300Y40450D03*
X274300Y27750D03*
X216900Y65850D03*
X216900Y53150D03*
X216900Y40450D03*
X216900Y27750D03*
X274200Y124550D03*
X274200Y111850D03*
X274200Y99150D03*
X274200Y86450D03*
X216800Y124550D03*
X216800Y111850D03*
X216800Y99150D03*
X216800Y86450D03*
D16*
X142100Y19900D03*
X142100Y34900D03*
X195900Y86200D03*
X195900Y101200D03*
X297600Y69200D03*
X297600Y84200D03*
D17*
X119100Y170700D03*
X185100Y170700D03*
D18*
X314100Y56140D03*
X314100Y101860D03*
D19*
X390100Y79000D03*
D10*
X94100Y90400D03*
X124100Y90400D03*
X93900Y59900D03*
X123900Y59900D03*
X94300Y31100D03*
X124300Y31100D03*
X451400Y91300D03*
X481400Y91300D03*
X450800Y61800D03*
X480800Y61800D03*
X451700Y34200D03*
X481700Y34200D03*
D20*
X159850Y66750D02*
X159650Y66750D01*
D21*
X159650Y66750D03*
D20*
X159850Y52650D02*
X142100Y34900D01*
X159850Y52650D02*
X159850Y66750D01*
D21*
X194650Y119950D03*
D20*
X194650Y102450D01*
X195900Y101200D01*
X274300Y27750D02*
X285150Y27750D01*
X297600Y40200D01*
X297600Y47201D01*
X296052Y48749D01*
X296052Y63531D01*
X297600Y65079D01*
X297600Y69200D01*
D22*
X59700Y129500D03*
D20*
X123900Y59900D02*
X124300Y59500D01*
X124300Y31100D01*
X123900Y90200D02*
X124100Y90400D01*
X123900Y90200D02*
X123900Y59900D01*
X124100Y119300D02*
X123500Y119900D01*
X124100Y119300D02*
X124100Y90400D01*
X113300Y164900D02*
X119100Y170700D01*
X118600Y119900D02*
X123500Y119900D01*
X118600Y119900D02*
X113400Y125100D01*
X123500Y119900D02*
X124440Y120840D01*
X75100Y129500D02*
X59700Y129500D01*
X75100Y129500D02*
X86200Y140600D01*
X111800Y140600D01*
X113400Y139000D02*
X113400Y125100D01*
X113400Y139000D02*
X111800Y140600D01*
X113300Y142100D01*
X113300Y164900D01*
X124300Y31100D02*
X135500Y19900D01*
X142100Y19900D01*
X169900Y19900D01*
X203150Y53150D02*
X216900Y53150D01*
X203150Y53150D02*
X169900Y19900D01*
X216900Y53150D02*
X274300Y53150D01*
X216800Y111850D02*
X216800Y124550D01*
X216800Y111850D02*
X216800Y99150D01*
X196600Y159200D02*
X185100Y170700D01*
X196600Y159200D02*
X196600Y149000D01*
X211000Y134600D01*
X211000Y126400D01*
X211400Y126800D01*
X216800Y120600D02*
X216800Y111850D01*
X216800Y120600D02*
X211000Y126400D01*
X216800Y99150D02*
X238300Y99150D01*
X271600Y65850D01*
X274300Y65850D01*
X297600Y84200D02*
X297600Y89335D01*
X310125Y101860D01*
X314100Y101860D01*
X274200Y111850D02*
X274200Y124550D01*
X274200Y111850D02*
X274200Y99150D01*
X274200Y86450D01*
X274200Y117200D02*
X274200Y124550D01*
X274200Y86450D02*
X276850Y86450D01*
X274200Y130400D02*
X233800Y170800D01*
X274200Y130400D02*
X274200Y124550D01*
X294550Y124550D01*
X310000Y140000D01*
D21*
X310000Y140000D03*
X330000Y160000D03*
D20*
X346300Y176300D01*
X351050Y176300D01*
X390100Y120100D02*
X390100Y79000D01*
X390100Y120100D02*
X400000Y130000D01*
D21*
X410000Y100000D03*
X370000Y100000D03*
X380000Y100000D03*
X390000Y100000D03*
X400000Y100000D03*
X400000Y90000D03*
X400000Y80000D03*
X370000Y90000D03*
X370000Y80000D03*
X380000Y80000D03*
X390000Y80000D03*
X380000Y90000D03*
X410000Y90000D03*
X410000Y80000D03*
X370000Y70000D03*
X380000Y70000D03*
X390000Y70000D03*
X400000Y70000D03*
X410000Y70000D03*
X370000Y60000D03*
X380000Y60000D03*
X390000Y60000D03*
X400000Y60000D03*
X410000Y60000D03*
X390000Y90000D03*
D20*
X448350Y176300D02*
X465200Y193150D01*
X448350Y176300D02*
X401550Y176300D01*
X400000Y174750D01*
X400000Y130000D01*
D22*
X510000Y130000D03*
D20*
X481900Y120200D02*
X480600Y118900D01*
X480600Y117000D01*
X481300Y62300D02*
X480800Y61800D01*
X480800Y61100D01*
X478700Y59000D01*
X480800Y61100D02*
X481400Y61700D01*
X481400Y34500D02*
X481700Y34200D01*
X481900Y91800D02*
X481900Y120200D01*
X481900Y91800D02*
X481400Y91300D01*
X481400Y61700D01*
X480800Y35100D02*
X481700Y34200D01*
X480800Y35100D02*
X480800Y61800D01*
X500200Y120200D02*
X510000Y130000D01*
X500200Y120200D02*
X481900Y120200D01*
X465200Y136900D01*
X465200Y148650D01*
X237815Y40450D02*
X216900Y40450D01*
X237815Y40450D02*
X261217Y17048D01*
X477048Y17048D01*
X481700Y21700D02*
X481700Y34200D01*
X481700Y21700D02*
X477048Y17048D01*
X93500Y119900D02*
X93500Y120000D01*
X93500Y119900D02*
X94100Y119300D01*
X94100Y90400D01*
X93900Y90200D01*
X93900Y59900D01*
X94300Y59500D01*
X94300Y31100D01*
X94300Y28700D01*
X449400Y93300D02*
X451400Y91300D01*
X449400Y93300D02*
X449400Y112900D01*
X451900Y115345D02*
X451900Y120200D01*
X451400Y91300D02*
X451400Y62400D01*
X450800Y61800D01*
X450800Y35100D01*
X451700Y34200D01*
X94300Y33400D02*
X94300Y31100D01*
X307800Y170800D02*
X339848Y130421D01*
X339848Y90000D01*
X339848Y68609D01*
X327379Y56140D01*
X314100Y56140D01*
X451400Y91300D02*
X451900Y90800D01*
D21*
X105732Y120132D03*
D20*
X93732Y120132D02*
X93500Y119900D01*
X93732Y120132D02*
X105732Y120132D01*
D21*
X90000Y160000D03*
X310000Y90000D03*
X80000Y120000D03*
D20*
X93500Y119900D01*
X449400Y112900D02*
X449700Y113193D01*
X451900Y115345D01*
X450013Y113500D02*
X449700Y113193D01*
X339848Y90000D02*
X310000Y90000D01*
X216900Y27750D02*
X209150Y20000D01*
X200000Y20000D01*
D21*
X200000Y20000D03*
D20*
X339848Y60152D02*
X339848Y68609D01*
X339848Y60152D02*
X360000Y40000D01*
D21*
X360000Y40000D03*
D20*
X365800Y34200D02*
X451700Y34200D01*
X365800Y34200D02*
X360000Y40000D01*
D21*
X30000Y110000D03*
X187400Y53100D03*
X500000Y170000D03*
X430000Y160000D03*
X500000Y30000D03*
X540000Y110000D03*
D20*
X451900Y120200D02*
X451900Y135061D01*
X451652Y135309D01*
X451652Y138348D01*
X430000Y160000D01*
D21*
X181050Y88950D03*
D20*
X195900Y86200D02*
X195900Y68200D01*
X198250Y65850D02*
X216900Y65850D01*
X198250Y65850D02*
X195900Y68200D01*
X193150Y88950D02*
X181050Y88950D01*
X193150Y88950D02*
X195900Y86200D01*
X274150Y40600D02*
X274300Y40450D01*
X249700Y73550D02*
X236800Y86450D01*
X216800Y86450D01*
X249700Y73550D02*
X249700Y65100D01*
D21*
X249700Y65100D03*
X250000Y40000D03*
D20*
X252700Y37300D01*
X271150Y37300D02*
X274300Y40450D01*
X271150Y37300D02*
X252700Y37300D01*
D23*
X40000Y180000D03*
X40000Y40000D03*
X540000Y40000D03*
X540000Y180000D03*
D22*
X510000Y90000D03*
X60000Y90000D03*
M02*
