G04 EAGLE Gerber RS-274X export*
G75*
%MOMM*%
%FSLAX34Y34*%
%LPD*%
%IN*%
%IPPOS*%
%AMOC8*
5,1,8,0,0,1.08239X$1,22.5*%
G01*
%ADD10C,0.254000*%


D10*
X10000Y40000D02*
X10114Y37385D01*
X10456Y34791D01*
X11022Y32235D01*
X11809Y29739D01*
X12811Y27321D01*
X14019Y25000D01*
X15425Y22793D01*
X17019Y20716D01*
X18787Y18787D01*
X20716Y17019D01*
X22793Y15425D01*
X25000Y14019D01*
X27321Y12811D01*
X29739Y11809D01*
X32235Y11022D01*
X34791Y10456D01*
X37385Y10114D01*
X40000Y10000D01*
X540000Y10000D01*
X542615Y10114D01*
X545209Y10456D01*
X547765Y11022D01*
X550261Y11809D01*
X552679Y12811D01*
X555000Y14019D01*
X557207Y15425D01*
X559284Y17019D01*
X561213Y18787D01*
X562981Y20716D01*
X564575Y22793D01*
X565981Y25000D01*
X567189Y27321D01*
X568191Y29739D01*
X568978Y32235D01*
X569544Y34791D01*
X569886Y37385D01*
X570000Y40000D01*
X570000Y180000D01*
X569886Y182615D01*
X569544Y185209D01*
X568978Y187765D01*
X568191Y190261D01*
X567189Y192679D01*
X565981Y195000D01*
X564575Y197207D01*
X562981Y199284D01*
X561213Y201213D01*
X559284Y202981D01*
X557207Y204575D01*
X555000Y205981D01*
X552679Y207189D01*
X550261Y208191D01*
X547765Y208978D01*
X545209Y209544D01*
X542615Y209886D01*
X540000Y210000D01*
X40000Y210000D01*
X37385Y209886D01*
X34791Y209544D01*
X32235Y208978D01*
X29739Y208191D01*
X27321Y207189D01*
X25000Y205981D01*
X22793Y204575D01*
X20716Y202981D01*
X18787Y201213D01*
X17019Y199284D01*
X15425Y197207D01*
X14019Y195000D01*
X12811Y192679D01*
X11809Y190261D01*
X11022Y187765D01*
X10456Y185209D01*
X10114Y182615D01*
X10000Y180000D01*
X10000Y40000D01*
M02*
