G04 EAGLE Gerber RS-274X export*
G75*
%MOMM*%
%FSLAX34Y34*%
%LPD*%
%INSilkscreen Top*%
%IPPOS*%
%AMOC8*
5,1,8,0,0,1.08239X$1,22.5*%
G01*
%ADD10C,0.076200*%
%ADD11C,0.152400*%
%ADD12R,0.400000X6.000000*%
%ADD13R,2.800000X0.400000*%
%ADD14C,0.127000*%


D10*
X16381Y133247D02*
X18836Y125881D01*
X21292Y133247D01*
X24688Y133247D02*
X24688Y125881D01*
X23870Y125881D02*
X25507Y125881D01*
X25507Y133247D02*
X23870Y133247D01*
X28738Y133247D02*
X28738Y125881D01*
X32831Y125881D02*
X28738Y133247D01*
X32831Y133247D02*
X32831Y125881D01*
X19573Y77173D02*
X18346Y77173D01*
X19573Y77173D02*
X19573Y73081D01*
X17118Y73081D01*
X17040Y73083D01*
X16962Y73088D01*
X16885Y73098D01*
X16808Y73111D01*
X16732Y73127D01*
X16657Y73147D01*
X16583Y73171D01*
X16510Y73198D01*
X16438Y73229D01*
X16368Y73263D01*
X16299Y73300D01*
X16233Y73341D01*
X16168Y73385D01*
X16106Y73431D01*
X16046Y73481D01*
X15988Y73533D01*
X15933Y73588D01*
X15881Y73646D01*
X15831Y73706D01*
X15785Y73768D01*
X15741Y73833D01*
X15700Y73900D01*
X15663Y73968D01*
X15629Y74038D01*
X15598Y74110D01*
X15571Y74183D01*
X15547Y74257D01*
X15527Y74332D01*
X15511Y74408D01*
X15498Y74485D01*
X15488Y74562D01*
X15483Y74640D01*
X15481Y74718D01*
X15481Y78810D01*
X15483Y78890D01*
X15489Y78970D01*
X15499Y79050D01*
X15512Y79129D01*
X15530Y79208D01*
X15551Y79285D01*
X15577Y79361D01*
X15606Y79436D01*
X15638Y79510D01*
X15674Y79582D01*
X15714Y79652D01*
X15757Y79719D01*
X15803Y79785D01*
X15853Y79848D01*
X15905Y79909D01*
X15960Y79968D01*
X16019Y80023D01*
X16079Y80075D01*
X16143Y80125D01*
X16209Y80171D01*
X16276Y80214D01*
X16346Y80254D01*
X16418Y80290D01*
X16492Y80322D01*
X16566Y80351D01*
X16643Y80377D01*
X16720Y80398D01*
X16799Y80416D01*
X16878Y80429D01*
X16958Y80439D01*
X17038Y80445D01*
X17118Y80447D01*
X19573Y80447D01*
X23284Y80447D02*
X23284Y73081D01*
X27376Y73081D02*
X23284Y80447D01*
X27376Y80447D02*
X27376Y73081D01*
X31087Y73081D02*
X31087Y80447D01*
X33133Y80447D01*
X33222Y80445D01*
X33311Y80439D01*
X33400Y80429D01*
X33488Y80416D01*
X33576Y80399D01*
X33663Y80377D01*
X33748Y80352D01*
X33833Y80324D01*
X33916Y80291D01*
X33998Y80255D01*
X34078Y80216D01*
X34156Y80173D01*
X34232Y80127D01*
X34307Y80077D01*
X34379Y80024D01*
X34448Y79968D01*
X34515Y79909D01*
X34580Y79848D01*
X34641Y79783D01*
X34700Y79716D01*
X34756Y79647D01*
X34809Y79575D01*
X34859Y79500D01*
X34905Y79424D01*
X34948Y79346D01*
X34987Y79266D01*
X35023Y79184D01*
X35056Y79101D01*
X35084Y79016D01*
X35109Y78931D01*
X35131Y78844D01*
X35148Y78756D01*
X35161Y78668D01*
X35171Y78579D01*
X35177Y78490D01*
X35179Y78401D01*
X35179Y75127D01*
X35177Y75038D01*
X35171Y74949D01*
X35161Y74860D01*
X35148Y74772D01*
X35131Y74684D01*
X35109Y74597D01*
X35084Y74512D01*
X35056Y74427D01*
X35023Y74344D01*
X34987Y74262D01*
X34948Y74182D01*
X34905Y74104D01*
X34859Y74028D01*
X34809Y73953D01*
X34756Y73881D01*
X34700Y73812D01*
X34641Y73745D01*
X34580Y73680D01*
X34515Y73619D01*
X34448Y73560D01*
X34379Y73504D01*
X34307Y73451D01*
X34232Y73401D01*
X34156Y73355D01*
X34078Y73312D01*
X33998Y73273D01*
X33916Y73237D01*
X33833Y73204D01*
X33748Y73176D01*
X33663Y73151D01*
X33576Y73129D01*
X33488Y73112D01*
X33400Y73099D01*
X33311Y73089D01*
X33222Y73083D01*
X33133Y73081D01*
X31087Y73081D01*
X538346Y87173D02*
X539573Y87173D01*
X539573Y83081D01*
X537118Y83081D01*
X537040Y83083D01*
X536962Y83088D01*
X536885Y83098D01*
X536808Y83111D01*
X536732Y83127D01*
X536657Y83147D01*
X536583Y83171D01*
X536510Y83198D01*
X536438Y83229D01*
X536368Y83263D01*
X536300Y83300D01*
X536233Y83341D01*
X536168Y83385D01*
X536106Y83431D01*
X536046Y83481D01*
X535988Y83533D01*
X535933Y83588D01*
X535881Y83646D01*
X535831Y83706D01*
X535785Y83768D01*
X535741Y83833D01*
X535700Y83900D01*
X535663Y83968D01*
X535629Y84038D01*
X535598Y84110D01*
X535571Y84183D01*
X535547Y84257D01*
X535527Y84332D01*
X535511Y84408D01*
X535498Y84485D01*
X535488Y84562D01*
X535483Y84640D01*
X535481Y84718D01*
X535481Y88810D01*
X535483Y88890D01*
X535489Y88970D01*
X535499Y89050D01*
X535512Y89129D01*
X535530Y89208D01*
X535551Y89285D01*
X535577Y89361D01*
X535606Y89436D01*
X535638Y89510D01*
X535674Y89582D01*
X535714Y89652D01*
X535757Y89719D01*
X535803Y89785D01*
X535853Y89848D01*
X535905Y89909D01*
X535960Y89968D01*
X536019Y90023D01*
X536079Y90075D01*
X536143Y90125D01*
X536209Y90171D01*
X536276Y90214D01*
X536346Y90254D01*
X536418Y90290D01*
X536492Y90322D01*
X536566Y90351D01*
X536643Y90377D01*
X536720Y90398D01*
X536799Y90416D01*
X536878Y90429D01*
X536958Y90439D01*
X537038Y90445D01*
X537118Y90447D01*
X539573Y90447D01*
X543284Y90447D02*
X543284Y83081D01*
X547376Y83081D02*
X543284Y90447D01*
X547376Y90447D02*
X547376Y83081D01*
X551087Y83081D02*
X551087Y90447D01*
X553133Y90447D01*
X553222Y90445D01*
X553311Y90439D01*
X553400Y90429D01*
X553488Y90416D01*
X553576Y90399D01*
X553663Y90377D01*
X553748Y90352D01*
X553833Y90324D01*
X553916Y90291D01*
X553998Y90255D01*
X554078Y90216D01*
X554156Y90173D01*
X554232Y90127D01*
X554307Y90077D01*
X554379Y90024D01*
X554448Y89968D01*
X554515Y89909D01*
X554580Y89848D01*
X554641Y89783D01*
X554700Y89716D01*
X554756Y89647D01*
X554809Y89575D01*
X554859Y89500D01*
X554905Y89424D01*
X554948Y89346D01*
X554987Y89266D01*
X555023Y89184D01*
X555056Y89101D01*
X555084Y89016D01*
X555109Y88931D01*
X555131Y88844D01*
X555148Y88756D01*
X555161Y88668D01*
X555171Y88579D01*
X555177Y88490D01*
X555179Y88401D01*
X555179Y85127D01*
X555177Y85038D01*
X555171Y84949D01*
X555161Y84860D01*
X555148Y84772D01*
X555131Y84684D01*
X555109Y84597D01*
X555084Y84512D01*
X555056Y84427D01*
X555023Y84344D01*
X554987Y84262D01*
X554948Y84182D01*
X554905Y84104D01*
X554859Y84028D01*
X554809Y83953D01*
X554756Y83881D01*
X554700Y83812D01*
X554641Y83745D01*
X554580Y83680D01*
X554515Y83619D01*
X554448Y83560D01*
X554379Y83504D01*
X554307Y83451D01*
X554232Y83401D01*
X554156Y83355D01*
X554078Y83312D01*
X553998Y83273D01*
X553916Y83237D01*
X553833Y83204D01*
X553748Y83176D01*
X553663Y83151D01*
X553576Y83129D01*
X553488Y83112D01*
X553400Y83099D01*
X553311Y83089D01*
X553222Y83083D01*
X553133Y83081D01*
X551087Y83081D01*
X532836Y120381D02*
X530381Y127747D01*
X535292Y127747D02*
X532836Y120381D01*
X538105Y122427D02*
X538105Y125701D01*
X538106Y125701D02*
X538108Y125790D01*
X538114Y125879D01*
X538124Y125968D01*
X538137Y126056D01*
X538154Y126144D01*
X538176Y126231D01*
X538201Y126316D01*
X538229Y126401D01*
X538262Y126484D01*
X538298Y126566D01*
X538337Y126646D01*
X538380Y126724D01*
X538426Y126800D01*
X538476Y126875D01*
X538529Y126947D01*
X538585Y127016D01*
X538644Y127083D01*
X538705Y127148D01*
X538770Y127209D01*
X538837Y127268D01*
X538906Y127324D01*
X538978Y127377D01*
X539053Y127427D01*
X539129Y127473D01*
X539207Y127516D01*
X539287Y127555D01*
X539369Y127591D01*
X539452Y127624D01*
X539537Y127652D01*
X539622Y127677D01*
X539709Y127699D01*
X539797Y127716D01*
X539885Y127729D01*
X539974Y127739D01*
X540063Y127745D01*
X540152Y127747D01*
X540241Y127745D01*
X540330Y127739D01*
X540419Y127729D01*
X540507Y127716D01*
X540595Y127699D01*
X540682Y127677D01*
X540767Y127652D01*
X540852Y127624D01*
X540935Y127591D01*
X541017Y127555D01*
X541097Y127516D01*
X541175Y127473D01*
X541251Y127427D01*
X541326Y127377D01*
X541398Y127324D01*
X541467Y127268D01*
X541534Y127209D01*
X541599Y127148D01*
X541660Y127083D01*
X541719Y127016D01*
X541775Y126947D01*
X541828Y126875D01*
X541878Y126800D01*
X541924Y126724D01*
X541967Y126646D01*
X542006Y126566D01*
X542042Y126484D01*
X542075Y126401D01*
X542103Y126316D01*
X542128Y126231D01*
X542150Y126144D01*
X542167Y126056D01*
X542180Y125968D01*
X542190Y125879D01*
X542196Y125790D01*
X542198Y125701D01*
X542198Y122427D01*
X542196Y122338D01*
X542190Y122249D01*
X542180Y122160D01*
X542167Y122072D01*
X542150Y121984D01*
X542128Y121897D01*
X542103Y121812D01*
X542075Y121727D01*
X542042Y121644D01*
X542006Y121562D01*
X541967Y121482D01*
X541924Y121404D01*
X541878Y121328D01*
X541828Y121253D01*
X541775Y121181D01*
X541719Y121112D01*
X541660Y121045D01*
X541599Y120980D01*
X541534Y120919D01*
X541467Y120860D01*
X541398Y120804D01*
X541326Y120751D01*
X541251Y120701D01*
X541175Y120655D01*
X541097Y120612D01*
X541017Y120573D01*
X540935Y120537D01*
X540852Y120504D01*
X540767Y120476D01*
X540682Y120451D01*
X540595Y120429D01*
X540507Y120412D01*
X540419Y120399D01*
X540330Y120389D01*
X540241Y120383D01*
X540152Y120381D01*
X540063Y120383D01*
X539974Y120389D01*
X539885Y120399D01*
X539797Y120412D01*
X539709Y120429D01*
X539622Y120451D01*
X539537Y120476D01*
X539452Y120504D01*
X539369Y120537D01*
X539287Y120573D01*
X539207Y120612D01*
X539129Y120655D01*
X539053Y120701D01*
X538978Y120751D01*
X538906Y120804D01*
X538837Y120860D01*
X538770Y120919D01*
X538705Y120980D01*
X538644Y121045D01*
X538585Y121112D01*
X538529Y121181D01*
X538476Y121253D01*
X538426Y121328D01*
X538380Y121404D01*
X538337Y121482D01*
X538298Y121562D01*
X538262Y121644D01*
X538229Y121727D01*
X538201Y121812D01*
X538176Y121897D01*
X538154Y121984D01*
X538137Y122072D01*
X538124Y122160D01*
X538114Y122249D01*
X538108Y122338D01*
X538106Y122427D01*
X545664Y122427D02*
X545664Y127747D01*
X545665Y122427D02*
X545667Y122338D01*
X545673Y122249D01*
X545683Y122160D01*
X545696Y122072D01*
X545713Y121984D01*
X545735Y121897D01*
X545760Y121812D01*
X545788Y121727D01*
X545821Y121644D01*
X545857Y121562D01*
X545896Y121482D01*
X545939Y121404D01*
X545985Y121328D01*
X546035Y121253D01*
X546088Y121181D01*
X546144Y121112D01*
X546203Y121045D01*
X546264Y120980D01*
X546329Y120919D01*
X546396Y120860D01*
X546465Y120804D01*
X546537Y120751D01*
X546612Y120701D01*
X546688Y120655D01*
X546766Y120612D01*
X546846Y120573D01*
X546928Y120537D01*
X547011Y120504D01*
X547096Y120476D01*
X547181Y120451D01*
X547268Y120429D01*
X547356Y120412D01*
X547444Y120399D01*
X547533Y120389D01*
X547622Y120383D01*
X547711Y120381D01*
X547800Y120383D01*
X547889Y120389D01*
X547978Y120399D01*
X548066Y120412D01*
X548154Y120429D01*
X548241Y120451D01*
X548326Y120476D01*
X548411Y120504D01*
X548494Y120537D01*
X548576Y120573D01*
X548656Y120612D01*
X548734Y120655D01*
X548810Y120701D01*
X548885Y120751D01*
X548957Y120804D01*
X549026Y120860D01*
X549093Y120919D01*
X549158Y120980D01*
X549219Y121045D01*
X549278Y121112D01*
X549334Y121181D01*
X549387Y121253D01*
X549437Y121328D01*
X549483Y121404D01*
X549526Y121482D01*
X549565Y121562D01*
X549601Y121644D01*
X549634Y121727D01*
X549662Y121812D01*
X549687Y121897D01*
X549709Y121984D01*
X549726Y122072D01*
X549739Y122160D01*
X549749Y122249D01*
X549755Y122338D01*
X549757Y122427D01*
X549757Y127747D01*
X554782Y127747D02*
X554782Y120381D01*
X552736Y127747D02*
X556828Y127747D01*
D11*
X125500Y128900D02*
X125500Y110900D01*
X91500Y110900D01*
X91500Y128900D01*
X125500Y128900D01*
D10*
X107155Y131781D02*
X105518Y131781D01*
X105440Y131783D01*
X105362Y131788D01*
X105285Y131798D01*
X105208Y131811D01*
X105132Y131827D01*
X105057Y131847D01*
X104983Y131871D01*
X104910Y131898D01*
X104838Y131929D01*
X104768Y131963D01*
X104700Y132000D01*
X104633Y132041D01*
X104568Y132085D01*
X104506Y132131D01*
X104446Y132181D01*
X104388Y132233D01*
X104333Y132288D01*
X104281Y132346D01*
X104231Y132406D01*
X104185Y132468D01*
X104141Y132533D01*
X104100Y132600D01*
X104063Y132668D01*
X104029Y132738D01*
X103998Y132810D01*
X103971Y132883D01*
X103947Y132957D01*
X103927Y133032D01*
X103911Y133108D01*
X103898Y133185D01*
X103888Y133262D01*
X103883Y133340D01*
X103881Y133418D01*
X103881Y137510D01*
X103883Y137590D01*
X103889Y137670D01*
X103899Y137750D01*
X103912Y137829D01*
X103930Y137908D01*
X103951Y137985D01*
X103977Y138061D01*
X104006Y138136D01*
X104038Y138210D01*
X104074Y138282D01*
X104114Y138352D01*
X104157Y138419D01*
X104203Y138485D01*
X104253Y138548D01*
X104305Y138609D01*
X104360Y138668D01*
X104419Y138723D01*
X104479Y138775D01*
X104543Y138825D01*
X104609Y138871D01*
X104676Y138914D01*
X104746Y138954D01*
X104818Y138990D01*
X104892Y139022D01*
X104966Y139051D01*
X105043Y139077D01*
X105120Y139098D01*
X105199Y139116D01*
X105278Y139129D01*
X105358Y139139D01*
X105438Y139145D01*
X105518Y139147D01*
X107155Y139147D01*
X111637Y139147D02*
X110000Y133418D01*
X114092Y133418D01*
X112865Y135055D02*
X112865Y131781D01*
D11*
X483900Y129200D02*
X483900Y111200D01*
X449900Y111200D01*
X449900Y129200D01*
X483900Y129200D01*
D10*
X484118Y131981D02*
X485755Y131981D01*
X484118Y131981D02*
X484040Y131983D01*
X483962Y131988D01*
X483885Y131998D01*
X483808Y132011D01*
X483732Y132027D01*
X483657Y132047D01*
X483583Y132071D01*
X483510Y132098D01*
X483438Y132129D01*
X483368Y132163D01*
X483300Y132200D01*
X483233Y132241D01*
X483168Y132285D01*
X483106Y132331D01*
X483046Y132381D01*
X482988Y132433D01*
X482933Y132488D01*
X482881Y132546D01*
X482831Y132606D01*
X482785Y132668D01*
X482741Y132733D01*
X482700Y132800D01*
X482663Y132868D01*
X482629Y132938D01*
X482598Y133010D01*
X482571Y133083D01*
X482547Y133157D01*
X482527Y133232D01*
X482511Y133308D01*
X482498Y133385D01*
X482488Y133462D01*
X482483Y133540D01*
X482481Y133618D01*
X482481Y137710D01*
X482483Y137790D01*
X482489Y137870D01*
X482499Y137950D01*
X482512Y138029D01*
X482530Y138108D01*
X482551Y138185D01*
X482577Y138261D01*
X482606Y138336D01*
X482638Y138410D01*
X482674Y138482D01*
X482714Y138552D01*
X482757Y138619D01*
X482803Y138685D01*
X482853Y138748D01*
X482905Y138809D01*
X482960Y138868D01*
X483019Y138923D01*
X483079Y138975D01*
X483143Y139025D01*
X483209Y139071D01*
X483276Y139114D01*
X483346Y139154D01*
X483418Y139190D01*
X483492Y139222D01*
X483566Y139251D01*
X483643Y139277D01*
X483720Y139298D01*
X483799Y139316D01*
X483878Y139329D01*
X483958Y139339D01*
X484038Y139345D01*
X484118Y139347D01*
X485755Y139347D01*
X488600Y131981D02*
X491055Y131981D01*
X491133Y131983D01*
X491211Y131988D01*
X491288Y131998D01*
X491365Y132011D01*
X491441Y132027D01*
X491516Y132047D01*
X491590Y132071D01*
X491663Y132098D01*
X491735Y132129D01*
X491805Y132163D01*
X491874Y132200D01*
X491940Y132241D01*
X492005Y132285D01*
X492067Y132331D01*
X492127Y132381D01*
X492185Y132433D01*
X492240Y132488D01*
X492292Y132546D01*
X492342Y132606D01*
X492388Y132668D01*
X492432Y132733D01*
X492473Y132800D01*
X492510Y132868D01*
X492544Y132938D01*
X492575Y133010D01*
X492602Y133083D01*
X492626Y133157D01*
X492646Y133232D01*
X492662Y133308D01*
X492675Y133385D01*
X492685Y133462D01*
X492690Y133540D01*
X492692Y133618D01*
X492692Y134436D01*
X492690Y134514D01*
X492685Y134592D01*
X492675Y134669D01*
X492662Y134746D01*
X492646Y134822D01*
X492626Y134897D01*
X492602Y134971D01*
X492575Y135044D01*
X492544Y135116D01*
X492510Y135186D01*
X492473Y135255D01*
X492432Y135321D01*
X492388Y135386D01*
X492342Y135448D01*
X492292Y135508D01*
X492240Y135566D01*
X492185Y135621D01*
X492127Y135673D01*
X492067Y135723D01*
X492005Y135769D01*
X491940Y135813D01*
X491874Y135854D01*
X491805Y135891D01*
X491735Y135925D01*
X491663Y135956D01*
X491590Y135983D01*
X491516Y136007D01*
X491441Y136027D01*
X491365Y136043D01*
X491288Y136056D01*
X491211Y136066D01*
X491133Y136071D01*
X491055Y136073D01*
X488600Y136073D01*
X488600Y139347D01*
X492692Y139347D01*
D11*
X305800Y200800D02*
X235800Y200800D01*
X305800Y200800D02*
X305800Y140800D01*
X235800Y140800D01*
X235800Y200800D01*
D12*
X247800Y170800D03*
D10*
X309981Y189081D02*
X309981Y196447D01*
X312027Y196447D01*
X312116Y196445D01*
X312205Y196439D01*
X312294Y196429D01*
X312382Y196416D01*
X312470Y196399D01*
X312557Y196377D01*
X312642Y196352D01*
X312727Y196324D01*
X312810Y196291D01*
X312892Y196255D01*
X312972Y196216D01*
X313050Y196173D01*
X313126Y196127D01*
X313201Y196077D01*
X313273Y196024D01*
X313342Y195968D01*
X313409Y195909D01*
X313474Y195848D01*
X313535Y195783D01*
X313594Y195716D01*
X313650Y195647D01*
X313703Y195575D01*
X313753Y195500D01*
X313799Y195424D01*
X313842Y195346D01*
X313881Y195266D01*
X313917Y195184D01*
X313950Y195101D01*
X313978Y195016D01*
X314003Y194931D01*
X314025Y194844D01*
X314042Y194756D01*
X314055Y194668D01*
X314065Y194579D01*
X314071Y194490D01*
X314073Y194401D01*
X314073Y191127D01*
X314071Y191038D01*
X314065Y190949D01*
X314055Y190860D01*
X314042Y190772D01*
X314025Y190684D01*
X314003Y190597D01*
X313978Y190512D01*
X313950Y190427D01*
X313917Y190344D01*
X313881Y190262D01*
X313842Y190182D01*
X313799Y190104D01*
X313753Y190028D01*
X313703Y189953D01*
X313650Y189881D01*
X313594Y189812D01*
X313535Y189745D01*
X313474Y189680D01*
X313409Y189619D01*
X313342Y189560D01*
X313273Y189504D01*
X313201Y189451D01*
X313126Y189401D01*
X313050Y189355D01*
X312972Y189312D01*
X312892Y189273D01*
X312810Y189237D01*
X312727Y189204D01*
X312642Y189176D01*
X312557Y189151D01*
X312470Y189129D01*
X312382Y189112D01*
X312294Y189099D01*
X312205Y189089D01*
X312116Y189083D01*
X312027Y189081D01*
X309981Y189081D01*
X317540Y194810D02*
X319586Y196447D01*
X319586Y189081D01*
X317540Y189081D02*
X321632Y189081D01*
D11*
X451200Y192900D02*
X451200Y148900D01*
X451200Y192900D02*
X479200Y192900D01*
X479200Y148900D01*
X451200Y148900D01*
D13*
X465200Y158900D03*
D10*
X476768Y194653D02*
X476768Y202019D01*
X478814Y202019D01*
X478903Y202017D01*
X478992Y202011D01*
X479081Y202001D01*
X479169Y201988D01*
X479257Y201971D01*
X479344Y201949D01*
X479429Y201924D01*
X479514Y201896D01*
X479597Y201863D01*
X479679Y201827D01*
X479759Y201788D01*
X479837Y201745D01*
X479913Y201699D01*
X479988Y201649D01*
X480060Y201596D01*
X480129Y201540D01*
X480196Y201481D01*
X480261Y201420D01*
X480322Y201355D01*
X480381Y201288D01*
X480437Y201219D01*
X480490Y201147D01*
X480540Y201072D01*
X480586Y200996D01*
X480629Y200918D01*
X480668Y200838D01*
X480704Y200756D01*
X480737Y200673D01*
X480765Y200588D01*
X480790Y200503D01*
X480812Y200416D01*
X480829Y200328D01*
X480842Y200240D01*
X480852Y200151D01*
X480858Y200062D01*
X480860Y199973D01*
X480860Y196699D01*
X480858Y196610D01*
X480852Y196521D01*
X480842Y196432D01*
X480829Y196344D01*
X480812Y196256D01*
X480790Y196169D01*
X480765Y196084D01*
X480737Y195999D01*
X480704Y195916D01*
X480668Y195834D01*
X480629Y195754D01*
X480586Y195676D01*
X480540Y195600D01*
X480490Y195525D01*
X480437Y195453D01*
X480381Y195384D01*
X480322Y195317D01*
X480261Y195252D01*
X480196Y195191D01*
X480129Y195132D01*
X480060Y195076D01*
X479988Y195023D01*
X479913Y194973D01*
X479837Y194927D01*
X479759Y194884D01*
X479679Y194845D01*
X479597Y194809D01*
X479514Y194776D01*
X479429Y194748D01*
X479344Y194723D01*
X479257Y194701D01*
X479169Y194684D01*
X479081Y194671D01*
X478992Y194661D01*
X478903Y194655D01*
X478814Y194653D01*
X476768Y194653D01*
X486578Y202020D02*
X486663Y202018D01*
X486748Y202012D01*
X486832Y202002D01*
X486916Y201989D01*
X487000Y201971D01*
X487082Y201950D01*
X487163Y201925D01*
X487243Y201896D01*
X487322Y201863D01*
X487399Y201827D01*
X487474Y201787D01*
X487548Y201744D01*
X487619Y201698D01*
X487688Y201648D01*
X487755Y201595D01*
X487819Y201539D01*
X487880Y201480D01*
X487939Y201419D01*
X487995Y201355D01*
X488048Y201288D01*
X488098Y201219D01*
X488144Y201148D01*
X488187Y201074D01*
X488227Y200999D01*
X488263Y200922D01*
X488296Y200843D01*
X488325Y200763D01*
X488350Y200682D01*
X488371Y200600D01*
X488389Y200516D01*
X488402Y200432D01*
X488412Y200348D01*
X488418Y200263D01*
X488420Y200178D01*
X486578Y202019D02*
X486482Y202017D01*
X486386Y202011D01*
X486291Y202001D01*
X486196Y201988D01*
X486101Y201970D01*
X486008Y201949D01*
X485915Y201924D01*
X485824Y201895D01*
X485733Y201863D01*
X485644Y201827D01*
X485557Y201787D01*
X485471Y201744D01*
X485387Y201698D01*
X485305Y201648D01*
X485225Y201594D01*
X485148Y201538D01*
X485073Y201478D01*
X485000Y201416D01*
X484930Y201350D01*
X484862Y201282D01*
X484797Y201211D01*
X484736Y201138D01*
X484677Y201062D01*
X484621Y200983D01*
X484569Y200903D01*
X484520Y200820D01*
X484474Y200736D01*
X484432Y200650D01*
X484394Y200562D01*
X484359Y200473D01*
X484327Y200382D01*
X487805Y198746D02*
X487865Y198805D01*
X487922Y198867D01*
X487977Y198931D01*
X488028Y198998D01*
X488077Y199067D01*
X488123Y199137D01*
X488166Y199210D01*
X488206Y199284D01*
X488242Y199360D01*
X488275Y199438D01*
X488305Y199517D01*
X488332Y199597D01*
X488355Y199678D01*
X488374Y199760D01*
X488390Y199842D01*
X488403Y199926D01*
X488412Y200010D01*
X488417Y200094D01*
X488419Y200178D01*
X487805Y198745D02*
X484327Y194653D01*
X488419Y194653D01*
D14*
X404300Y203300D02*
X348300Y203300D01*
X404300Y203300D02*
X404300Y149300D01*
X348300Y149300D01*
X348300Y203300D01*
D10*
X409881Y199947D02*
X409881Y192581D01*
X413155Y192581D01*
X415961Y198310D02*
X418007Y199947D01*
X418007Y192581D01*
X415961Y192581D02*
X420054Y192581D01*
D14*
X134700Y70000D02*
X134708Y70614D01*
X134730Y71227D01*
X134768Y71839D01*
X134820Y72450D01*
X134888Y73060D01*
X134971Y73668D01*
X135068Y74274D01*
X135180Y74877D01*
X135307Y75478D01*
X135449Y76075D01*
X135606Y76668D01*
X135776Y77257D01*
X135962Y77842D01*
X136161Y78422D01*
X136375Y78997D01*
X136603Y79567D01*
X136845Y80131D01*
X137100Y80689D01*
X137369Y81240D01*
X137652Y81785D01*
X137948Y82322D01*
X138257Y82853D01*
X138579Y83375D01*
X138913Y83889D01*
X139260Y84395D01*
X139620Y84892D01*
X139991Y85381D01*
X140375Y85860D01*
X140770Y86329D01*
X141176Y86789D01*
X141594Y87239D01*
X142022Y87678D01*
X142461Y88106D01*
X142911Y88524D01*
X143371Y88930D01*
X143840Y89325D01*
X144319Y89709D01*
X144808Y90080D01*
X145305Y90440D01*
X145811Y90787D01*
X146325Y91121D01*
X146847Y91443D01*
X147378Y91752D01*
X147915Y92048D01*
X148460Y92331D01*
X149011Y92600D01*
X149569Y92855D01*
X150133Y93097D01*
X150703Y93325D01*
X151278Y93539D01*
X151858Y93738D01*
X152443Y93924D01*
X153032Y94094D01*
X153625Y94251D01*
X154222Y94393D01*
X154823Y94520D01*
X155426Y94632D01*
X156032Y94729D01*
X156640Y94812D01*
X157250Y94880D01*
X157861Y94932D01*
X158473Y94970D01*
X159086Y94992D01*
X159700Y95000D01*
X160314Y94992D01*
X160927Y94970D01*
X161539Y94932D01*
X162150Y94880D01*
X162760Y94812D01*
X163368Y94729D01*
X163974Y94632D01*
X164577Y94520D01*
X165178Y94393D01*
X165775Y94251D01*
X166368Y94094D01*
X166957Y93924D01*
X167542Y93738D01*
X168122Y93539D01*
X168697Y93325D01*
X169267Y93097D01*
X169831Y92855D01*
X170389Y92600D01*
X170940Y92331D01*
X171485Y92048D01*
X172022Y91752D01*
X172553Y91443D01*
X173075Y91121D01*
X173589Y90787D01*
X174095Y90440D01*
X174592Y90080D01*
X175081Y89709D01*
X175560Y89325D01*
X176029Y88930D01*
X176489Y88524D01*
X176939Y88106D01*
X177378Y87678D01*
X177806Y87239D01*
X178224Y86789D01*
X178630Y86329D01*
X179025Y85860D01*
X179409Y85381D01*
X179780Y84892D01*
X180140Y84395D01*
X180487Y83889D01*
X180821Y83375D01*
X181143Y82853D01*
X181452Y82322D01*
X181748Y81785D01*
X182031Y81240D01*
X182300Y80689D01*
X182555Y80131D01*
X182797Y79567D01*
X183025Y78997D01*
X183239Y78422D01*
X183438Y77842D01*
X183624Y77257D01*
X183794Y76668D01*
X183951Y76075D01*
X184093Y75478D01*
X184220Y74877D01*
X184332Y74274D01*
X184429Y73668D01*
X184512Y73060D01*
X184580Y72450D01*
X184632Y71839D01*
X184670Y71227D01*
X184692Y70614D01*
X184700Y70000D01*
X184692Y69386D01*
X184670Y68773D01*
X184632Y68161D01*
X184580Y67550D01*
X184512Y66940D01*
X184429Y66332D01*
X184332Y65726D01*
X184220Y65123D01*
X184093Y64522D01*
X183951Y63925D01*
X183794Y63332D01*
X183624Y62743D01*
X183438Y62158D01*
X183239Y61578D01*
X183025Y61003D01*
X182797Y60433D01*
X182555Y59869D01*
X182300Y59311D01*
X182031Y58760D01*
X181748Y58215D01*
X181452Y57678D01*
X181143Y57147D01*
X180821Y56625D01*
X180487Y56111D01*
X180140Y55605D01*
X179780Y55108D01*
X179409Y54619D01*
X179025Y54140D01*
X178630Y53671D01*
X178224Y53211D01*
X177806Y52761D01*
X177378Y52322D01*
X176939Y51894D01*
X176489Y51476D01*
X176029Y51070D01*
X175560Y50675D01*
X175081Y50291D01*
X174592Y49920D01*
X174095Y49560D01*
X173589Y49213D01*
X173075Y48879D01*
X172553Y48557D01*
X172022Y48248D01*
X171485Y47952D01*
X170940Y47669D01*
X170389Y47400D01*
X169831Y47145D01*
X169267Y46903D01*
X168697Y46675D01*
X168122Y46461D01*
X167542Y46262D01*
X166957Y46076D01*
X166368Y45906D01*
X165775Y45749D01*
X165178Y45607D01*
X164577Y45480D01*
X163974Y45368D01*
X163368Y45271D01*
X162760Y45188D01*
X162150Y45120D01*
X161539Y45068D01*
X160927Y45030D01*
X160314Y45008D01*
X159700Y45000D01*
X159086Y45008D01*
X158473Y45030D01*
X157861Y45068D01*
X157250Y45120D01*
X156640Y45188D01*
X156032Y45271D01*
X155426Y45368D01*
X154823Y45480D01*
X154222Y45607D01*
X153625Y45749D01*
X153032Y45906D01*
X152443Y46076D01*
X151858Y46262D01*
X151278Y46461D01*
X150703Y46675D01*
X150133Y46903D01*
X149569Y47145D01*
X149011Y47400D01*
X148460Y47669D01*
X147915Y47952D01*
X147378Y48248D01*
X146847Y48557D01*
X146325Y48879D01*
X145811Y49213D01*
X145305Y49560D01*
X144808Y49920D01*
X144319Y50291D01*
X143840Y50675D01*
X143371Y51070D01*
X142911Y51476D01*
X142461Y51894D01*
X142022Y52322D01*
X141594Y52761D01*
X141176Y53211D01*
X140770Y53671D01*
X140375Y54140D01*
X139991Y54619D01*
X139620Y55108D01*
X139260Y55605D01*
X138913Y56111D01*
X138579Y56625D01*
X138257Y57147D01*
X137948Y57678D01*
X137652Y58215D01*
X137369Y58760D01*
X137100Y59311D01*
X136845Y59869D01*
X136603Y60433D01*
X136375Y61003D01*
X136161Y61578D01*
X135962Y62158D01*
X135776Y62743D01*
X135606Y63332D01*
X135449Y63925D01*
X135307Y64522D01*
X135180Y65123D01*
X135068Y65726D01*
X134971Y66332D01*
X134888Y66940D01*
X134820Y67550D01*
X134768Y68161D01*
X134730Y68773D01*
X134708Y69386D01*
X134700Y70000D01*
D11*
X139700Y55000D02*
X139700Y85000D01*
D10*
X161604Y42769D02*
X161604Y35403D01*
X164878Y35403D01*
X167944Y35403D02*
X171217Y35403D01*
X167944Y35403D02*
X167944Y42769D01*
X171217Y42769D01*
X170399Y39495D02*
X167944Y39495D01*
X174268Y42769D02*
X174268Y35403D01*
X174268Y42769D02*
X176314Y42769D01*
X176403Y42767D01*
X176492Y42761D01*
X176581Y42751D01*
X176669Y42738D01*
X176757Y42721D01*
X176844Y42699D01*
X176929Y42674D01*
X177014Y42646D01*
X177097Y42613D01*
X177179Y42577D01*
X177259Y42538D01*
X177337Y42495D01*
X177413Y42449D01*
X177488Y42399D01*
X177560Y42346D01*
X177629Y42290D01*
X177696Y42231D01*
X177761Y42170D01*
X177822Y42105D01*
X177881Y42038D01*
X177937Y41969D01*
X177990Y41897D01*
X178040Y41822D01*
X178086Y41746D01*
X178129Y41668D01*
X178168Y41588D01*
X178204Y41506D01*
X178237Y41423D01*
X178265Y41338D01*
X178290Y41253D01*
X178312Y41166D01*
X178329Y41078D01*
X178342Y40990D01*
X178352Y40901D01*
X178358Y40812D01*
X178360Y40723D01*
X178360Y37449D01*
X178358Y37360D01*
X178352Y37271D01*
X178342Y37182D01*
X178329Y37094D01*
X178312Y37006D01*
X178290Y36919D01*
X178265Y36834D01*
X178237Y36749D01*
X178204Y36666D01*
X178168Y36584D01*
X178129Y36504D01*
X178086Y36426D01*
X178040Y36350D01*
X177990Y36275D01*
X177937Y36203D01*
X177881Y36134D01*
X177822Y36067D01*
X177761Y36002D01*
X177696Y35941D01*
X177629Y35882D01*
X177560Y35826D01*
X177488Y35773D01*
X177413Y35723D01*
X177337Y35677D01*
X177259Y35634D01*
X177179Y35595D01*
X177097Y35559D01*
X177014Y35526D01*
X176929Y35498D01*
X176844Y35473D01*
X176757Y35451D01*
X176669Y35434D01*
X176581Y35421D01*
X176492Y35411D01*
X176403Y35405D01*
X176314Y35403D01*
X174268Y35403D01*
X181827Y41132D02*
X183873Y42769D01*
X183873Y35403D01*
X181827Y35403D02*
X185919Y35403D01*
D14*
X134900Y124600D02*
X134908Y125214D01*
X134930Y125827D01*
X134968Y126439D01*
X135020Y127050D01*
X135088Y127660D01*
X135171Y128268D01*
X135268Y128874D01*
X135380Y129477D01*
X135507Y130078D01*
X135649Y130675D01*
X135806Y131268D01*
X135976Y131857D01*
X136162Y132442D01*
X136361Y133022D01*
X136575Y133597D01*
X136803Y134167D01*
X137045Y134731D01*
X137300Y135289D01*
X137569Y135840D01*
X137852Y136385D01*
X138148Y136922D01*
X138457Y137453D01*
X138779Y137975D01*
X139113Y138489D01*
X139460Y138995D01*
X139820Y139492D01*
X140191Y139981D01*
X140575Y140460D01*
X140970Y140929D01*
X141376Y141389D01*
X141794Y141839D01*
X142222Y142278D01*
X142661Y142706D01*
X143111Y143124D01*
X143571Y143530D01*
X144040Y143925D01*
X144519Y144309D01*
X145008Y144680D01*
X145505Y145040D01*
X146011Y145387D01*
X146525Y145721D01*
X147047Y146043D01*
X147578Y146352D01*
X148115Y146648D01*
X148660Y146931D01*
X149211Y147200D01*
X149769Y147455D01*
X150333Y147697D01*
X150903Y147925D01*
X151478Y148139D01*
X152058Y148338D01*
X152643Y148524D01*
X153232Y148694D01*
X153825Y148851D01*
X154422Y148993D01*
X155023Y149120D01*
X155626Y149232D01*
X156232Y149329D01*
X156840Y149412D01*
X157450Y149480D01*
X158061Y149532D01*
X158673Y149570D01*
X159286Y149592D01*
X159900Y149600D01*
X160514Y149592D01*
X161127Y149570D01*
X161739Y149532D01*
X162350Y149480D01*
X162960Y149412D01*
X163568Y149329D01*
X164174Y149232D01*
X164777Y149120D01*
X165378Y148993D01*
X165975Y148851D01*
X166568Y148694D01*
X167157Y148524D01*
X167742Y148338D01*
X168322Y148139D01*
X168897Y147925D01*
X169467Y147697D01*
X170031Y147455D01*
X170589Y147200D01*
X171140Y146931D01*
X171685Y146648D01*
X172222Y146352D01*
X172753Y146043D01*
X173275Y145721D01*
X173789Y145387D01*
X174295Y145040D01*
X174792Y144680D01*
X175281Y144309D01*
X175760Y143925D01*
X176229Y143530D01*
X176689Y143124D01*
X177139Y142706D01*
X177578Y142278D01*
X178006Y141839D01*
X178424Y141389D01*
X178830Y140929D01*
X179225Y140460D01*
X179609Y139981D01*
X179980Y139492D01*
X180340Y138995D01*
X180687Y138489D01*
X181021Y137975D01*
X181343Y137453D01*
X181652Y136922D01*
X181948Y136385D01*
X182231Y135840D01*
X182500Y135289D01*
X182755Y134731D01*
X182997Y134167D01*
X183225Y133597D01*
X183439Y133022D01*
X183638Y132442D01*
X183824Y131857D01*
X183994Y131268D01*
X184151Y130675D01*
X184293Y130078D01*
X184420Y129477D01*
X184532Y128874D01*
X184629Y128268D01*
X184712Y127660D01*
X184780Y127050D01*
X184832Y126439D01*
X184870Y125827D01*
X184892Y125214D01*
X184900Y124600D01*
X184892Y123986D01*
X184870Y123373D01*
X184832Y122761D01*
X184780Y122150D01*
X184712Y121540D01*
X184629Y120932D01*
X184532Y120326D01*
X184420Y119723D01*
X184293Y119122D01*
X184151Y118525D01*
X183994Y117932D01*
X183824Y117343D01*
X183638Y116758D01*
X183439Y116178D01*
X183225Y115603D01*
X182997Y115033D01*
X182755Y114469D01*
X182500Y113911D01*
X182231Y113360D01*
X181948Y112815D01*
X181652Y112278D01*
X181343Y111747D01*
X181021Y111225D01*
X180687Y110711D01*
X180340Y110205D01*
X179980Y109708D01*
X179609Y109219D01*
X179225Y108740D01*
X178830Y108271D01*
X178424Y107811D01*
X178006Y107361D01*
X177578Y106922D01*
X177139Y106494D01*
X176689Y106076D01*
X176229Y105670D01*
X175760Y105275D01*
X175281Y104891D01*
X174792Y104520D01*
X174295Y104160D01*
X173789Y103813D01*
X173275Y103479D01*
X172753Y103157D01*
X172222Y102848D01*
X171685Y102552D01*
X171140Y102269D01*
X170589Y102000D01*
X170031Y101745D01*
X169467Y101503D01*
X168897Y101275D01*
X168322Y101061D01*
X167742Y100862D01*
X167157Y100676D01*
X166568Y100506D01*
X165975Y100349D01*
X165378Y100207D01*
X164777Y100080D01*
X164174Y99968D01*
X163568Y99871D01*
X162960Y99788D01*
X162350Y99720D01*
X161739Y99668D01*
X161127Y99630D01*
X160514Y99608D01*
X159900Y99600D01*
X159286Y99608D01*
X158673Y99630D01*
X158061Y99668D01*
X157450Y99720D01*
X156840Y99788D01*
X156232Y99871D01*
X155626Y99968D01*
X155023Y100080D01*
X154422Y100207D01*
X153825Y100349D01*
X153232Y100506D01*
X152643Y100676D01*
X152058Y100862D01*
X151478Y101061D01*
X150903Y101275D01*
X150333Y101503D01*
X149769Y101745D01*
X149211Y102000D01*
X148660Y102269D01*
X148115Y102552D01*
X147578Y102848D01*
X147047Y103157D01*
X146525Y103479D01*
X146011Y103813D01*
X145505Y104160D01*
X145008Y104520D01*
X144519Y104891D01*
X144040Y105275D01*
X143571Y105670D01*
X143111Y106076D01*
X142661Y106494D01*
X142222Y106922D01*
X141794Y107361D01*
X141376Y107811D01*
X140970Y108271D01*
X140575Y108740D01*
X140191Y109219D01*
X139820Y109708D01*
X139460Y110205D01*
X139113Y110711D01*
X138779Y111225D01*
X138457Y111747D01*
X138148Y112278D01*
X137852Y112815D01*
X137569Y113360D01*
X137300Y113911D01*
X137045Y114469D01*
X136803Y115033D01*
X136575Y115603D01*
X136361Y116178D01*
X136162Y116758D01*
X135976Y117343D01*
X135806Y117932D01*
X135649Y118525D01*
X135507Y119122D01*
X135380Y119723D01*
X135268Y120326D01*
X135171Y120932D01*
X135088Y121540D01*
X135020Y122150D01*
X134968Y122761D01*
X134930Y123373D01*
X134908Y123986D01*
X134900Y124600D01*
D11*
X179900Y139600D02*
X179900Y109600D01*
D10*
X183081Y142131D02*
X183081Y149497D01*
X183081Y142131D02*
X186355Y142131D01*
X189421Y142131D02*
X192695Y142131D01*
X189421Y142131D02*
X189421Y149497D01*
X192695Y149497D01*
X191876Y146223D02*
X189421Y146223D01*
X195745Y149497D02*
X195745Y142131D01*
X195745Y149497D02*
X197791Y149497D01*
X197880Y149495D01*
X197969Y149489D01*
X198058Y149479D01*
X198146Y149466D01*
X198234Y149449D01*
X198321Y149427D01*
X198406Y149402D01*
X198491Y149374D01*
X198574Y149341D01*
X198656Y149305D01*
X198736Y149266D01*
X198814Y149223D01*
X198890Y149177D01*
X198965Y149127D01*
X199037Y149074D01*
X199106Y149018D01*
X199173Y148959D01*
X199238Y148898D01*
X199299Y148833D01*
X199358Y148766D01*
X199414Y148697D01*
X199467Y148625D01*
X199517Y148550D01*
X199563Y148474D01*
X199606Y148396D01*
X199645Y148316D01*
X199681Y148234D01*
X199714Y148151D01*
X199742Y148066D01*
X199767Y147981D01*
X199789Y147894D01*
X199806Y147806D01*
X199819Y147718D01*
X199829Y147629D01*
X199835Y147540D01*
X199837Y147451D01*
X199837Y144177D01*
X199835Y144088D01*
X199829Y143999D01*
X199819Y143910D01*
X199806Y143822D01*
X199789Y143734D01*
X199767Y143647D01*
X199742Y143562D01*
X199714Y143477D01*
X199681Y143394D01*
X199645Y143312D01*
X199606Y143232D01*
X199563Y143154D01*
X199517Y143078D01*
X199467Y143003D01*
X199414Y142931D01*
X199358Y142862D01*
X199299Y142795D01*
X199238Y142730D01*
X199173Y142669D01*
X199106Y142610D01*
X199037Y142554D01*
X198965Y142501D01*
X198890Y142451D01*
X198814Y142405D01*
X198736Y142362D01*
X198656Y142323D01*
X198574Y142287D01*
X198491Y142254D01*
X198406Y142226D01*
X198321Y142201D01*
X198234Y142179D01*
X198146Y142162D01*
X198058Y142149D01*
X197969Y142139D01*
X197880Y142133D01*
X197791Y142131D01*
X195745Y142131D01*
X205555Y149498D02*
X205640Y149496D01*
X205725Y149490D01*
X205809Y149480D01*
X205893Y149467D01*
X205977Y149449D01*
X206059Y149428D01*
X206140Y149403D01*
X206220Y149374D01*
X206299Y149341D01*
X206376Y149305D01*
X206451Y149265D01*
X206525Y149222D01*
X206596Y149176D01*
X206665Y149126D01*
X206732Y149073D01*
X206796Y149017D01*
X206857Y148958D01*
X206916Y148897D01*
X206972Y148833D01*
X207025Y148766D01*
X207075Y148697D01*
X207121Y148626D01*
X207164Y148552D01*
X207204Y148477D01*
X207240Y148400D01*
X207273Y148321D01*
X207302Y148241D01*
X207327Y148160D01*
X207348Y148078D01*
X207366Y147994D01*
X207379Y147910D01*
X207389Y147826D01*
X207395Y147741D01*
X207397Y147656D01*
X205555Y149497D02*
X205459Y149495D01*
X205363Y149489D01*
X205268Y149479D01*
X205173Y149466D01*
X205078Y149448D01*
X204985Y149427D01*
X204892Y149402D01*
X204801Y149373D01*
X204710Y149341D01*
X204621Y149305D01*
X204534Y149265D01*
X204448Y149222D01*
X204364Y149176D01*
X204282Y149126D01*
X204202Y149072D01*
X204125Y149016D01*
X204050Y148956D01*
X203977Y148894D01*
X203907Y148828D01*
X203839Y148760D01*
X203774Y148689D01*
X203713Y148616D01*
X203654Y148540D01*
X203598Y148461D01*
X203546Y148381D01*
X203497Y148298D01*
X203451Y148214D01*
X203409Y148128D01*
X203371Y148040D01*
X203336Y147951D01*
X203304Y147860D01*
X206782Y146224D02*
X206842Y146283D01*
X206899Y146345D01*
X206954Y146409D01*
X207005Y146476D01*
X207054Y146545D01*
X207100Y146615D01*
X207143Y146688D01*
X207183Y146762D01*
X207219Y146838D01*
X207252Y146916D01*
X207282Y146995D01*
X207309Y147075D01*
X207332Y147156D01*
X207351Y147238D01*
X207367Y147320D01*
X207380Y147404D01*
X207389Y147488D01*
X207394Y147572D01*
X207396Y147656D01*
X206782Y146223D02*
X203304Y142131D01*
X207396Y142131D01*
D14*
X225600Y71800D02*
X265600Y71800D01*
X225600Y71800D02*
X225600Y21800D01*
X265600Y21800D01*
X265600Y71800D01*
X230490Y65290D02*
X230492Y65416D01*
X230498Y65542D01*
X230508Y65668D01*
X230522Y65794D01*
X230540Y65919D01*
X230562Y66043D01*
X230587Y66167D01*
X230617Y66290D01*
X230650Y66411D01*
X230688Y66532D01*
X230729Y66651D01*
X230774Y66770D01*
X230822Y66886D01*
X230874Y67001D01*
X230930Y67114D01*
X230990Y67226D01*
X231053Y67335D01*
X231119Y67443D01*
X231188Y67548D01*
X231261Y67651D01*
X231338Y67752D01*
X231417Y67850D01*
X231499Y67946D01*
X231585Y68039D01*
X231673Y68130D01*
X231764Y68217D01*
X231858Y68302D01*
X231954Y68383D01*
X232053Y68462D01*
X232154Y68537D01*
X232258Y68609D01*
X232364Y68678D01*
X232472Y68744D01*
X232582Y68806D01*
X232694Y68864D01*
X232807Y68919D01*
X232923Y68970D01*
X233040Y69018D01*
X233158Y69062D01*
X233278Y69102D01*
X233399Y69138D01*
X233521Y69171D01*
X233644Y69200D01*
X233768Y69224D01*
X233892Y69245D01*
X234017Y69262D01*
X234143Y69275D01*
X234269Y69284D01*
X234395Y69289D01*
X234522Y69290D01*
X234648Y69287D01*
X234774Y69280D01*
X234900Y69269D01*
X235025Y69254D01*
X235150Y69235D01*
X235274Y69212D01*
X235398Y69186D01*
X235520Y69155D01*
X235642Y69121D01*
X235762Y69082D01*
X235881Y69040D01*
X235999Y68995D01*
X236115Y68945D01*
X236230Y68892D01*
X236342Y68835D01*
X236453Y68775D01*
X236562Y68711D01*
X236669Y68644D01*
X236774Y68574D01*
X236877Y68500D01*
X236977Y68423D01*
X237075Y68343D01*
X237170Y68260D01*
X237262Y68174D01*
X237352Y68085D01*
X237439Y67993D01*
X237522Y67899D01*
X237603Y67802D01*
X237681Y67702D01*
X237756Y67600D01*
X237827Y67496D01*
X237895Y67389D01*
X237959Y67281D01*
X238020Y67170D01*
X238078Y67058D01*
X238132Y66944D01*
X238182Y66828D01*
X238229Y66711D01*
X238272Y66592D01*
X238311Y66472D01*
X238347Y66351D01*
X238378Y66228D01*
X238406Y66105D01*
X238430Y65981D01*
X238450Y65856D01*
X238466Y65731D01*
X238478Y65605D01*
X238486Y65479D01*
X238490Y65353D01*
X238490Y65227D01*
X238486Y65101D01*
X238478Y64975D01*
X238466Y64849D01*
X238450Y64724D01*
X238430Y64599D01*
X238406Y64475D01*
X238378Y64352D01*
X238347Y64229D01*
X238311Y64108D01*
X238272Y63988D01*
X238229Y63869D01*
X238182Y63752D01*
X238132Y63636D01*
X238078Y63522D01*
X238020Y63410D01*
X237959Y63299D01*
X237895Y63191D01*
X237827Y63084D01*
X237756Y62980D01*
X237681Y62878D01*
X237603Y62778D01*
X237522Y62681D01*
X237439Y62587D01*
X237352Y62495D01*
X237262Y62406D01*
X237170Y62320D01*
X237075Y62237D01*
X236977Y62157D01*
X236877Y62080D01*
X236774Y62006D01*
X236669Y61936D01*
X236562Y61869D01*
X236453Y61805D01*
X236342Y61745D01*
X236230Y61688D01*
X236115Y61635D01*
X235999Y61585D01*
X235881Y61540D01*
X235762Y61498D01*
X235642Y61459D01*
X235520Y61425D01*
X235398Y61394D01*
X235274Y61368D01*
X235150Y61345D01*
X235025Y61326D01*
X234900Y61311D01*
X234774Y61300D01*
X234648Y61293D01*
X234522Y61290D01*
X234395Y61291D01*
X234269Y61296D01*
X234143Y61305D01*
X234017Y61318D01*
X233892Y61335D01*
X233768Y61356D01*
X233644Y61380D01*
X233521Y61409D01*
X233399Y61442D01*
X233278Y61478D01*
X233158Y61518D01*
X233040Y61562D01*
X232923Y61610D01*
X232807Y61661D01*
X232694Y61716D01*
X232582Y61774D01*
X232472Y61836D01*
X232364Y61902D01*
X232258Y61971D01*
X232154Y62043D01*
X232053Y62118D01*
X231954Y62197D01*
X231858Y62278D01*
X231764Y62363D01*
X231673Y62450D01*
X231585Y62541D01*
X231499Y62634D01*
X231417Y62730D01*
X231338Y62828D01*
X231261Y62929D01*
X231188Y63032D01*
X231119Y63137D01*
X231053Y63245D01*
X230990Y63354D01*
X230930Y63466D01*
X230874Y63579D01*
X230822Y63694D01*
X230774Y63810D01*
X230729Y63929D01*
X230688Y64048D01*
X230650Y64169D01*
X230617Y64290D01*
X230587Y64413D01*
X230562Y64537D01*
X230540Y64661D01*
X230522Y64786D01*
X230508Y64912D01*
X230498Y65038D01*
X230492Y65164D01*
X230490Y65290D01*
D10*
X236381Y19747D02*
X236381Y12381D01*
X238836Y15655D02*
X236381Y19747D01*
X238836Y15655D02*
X241292Y19747D01*
X241292Y12381D01*
X244837Y18110D02*
X246883Y19747D01*
X246883Y12381D01*
X244837Y12381D02*
X248929Y12381D01*
D14*
X265500Y130500D02*
X225500Y130500D01*
X225500Y80500D01*
X265500Y80500D01*
X265500Y130500D01*
X230390Y123990D02*
X230392Y124116D01*
X230398Y124242D01*
X230408Y124368D01*
X230422Y124494D01*
X230440Y124619D01*
X230462Y124743D01*
X230487Y124867D01*
X230517Y124990D01*
X230550Y125111D01*
X230588Y125232D01*
X230629Y125351D01*
X230674Y125470D01*
X230722Y125586D01*
X230774Y125701D01*
X230830Y125814D01*
X230890Y125926D01*
X230953Y126035D01*
X231019Y126143D01*
X231088Y126248D01*
X231161Y126351D01*
X231238Y126452D01*
X231317Y126550D01*
X231399Y126646D01*
X231485Y126739D01*
X231573Y126830D01*
X231664Y126917D01*
X231758Y127002D01*
X231854Y127083D01*
X231953Y127162D01*
X232054Y127237D01*
X232158Y127309D01*
X232264Y127378D01*
X232372Y127444D01*
X232482Y127506D01*
X232594Y127564D01*
X232707Y127619D01*
X232823Y127670D01*
X232940Y127718D01*
X233058Y127762D01*
X233178Y127802D01*
X233299Y127838D01*
X233421Y127871D01*
X233544Y127900D01*
X233668Y127924D01*
X233792Y127945D01*
X233917Y127962D01*
X234043Y127975D01*
X234169Y127984D01*
X234295Y127989D01*
X234422Y127990D01*
X234548Y127987D01*
X234674Y127980D01*
X234800Y127969D01*
X234925Y127954D01*
X235050Y127935D01*
X235174Y127912D01*
X235298Y127886D01*
X235420Y127855D01*
X235542Y127821D01*
X235662Y127782D01*
X235781Y127740D01*
X235899Y127695D01*
X236015Y127645D01*
X236130Y127592D01*
X236242Y127535D01*
X236353Y127475D01*
X236462Y127411D01*
X236569Y127344D01*
X236674Y127274D01*
X236777Y127200D01*
X236877Y127123D01*
X236975Y127043D01*
X237070Y126960D01*
X237162Y126874D01*
X237252Y126785D01*
X237339Y126693D01*
X237422Y126599D01*
X237503Y126502D01*
X237581Y126402D01*
X237656Y126300D01*
X237727Y126196D01*
X237795Y126089D01*
X237859Y125981D01*
X237920Y125870D01*
X237978Y125758D01*
X238032Y125644D01*
X238082Y125528D01*
X238129Y125411D01*
X238172Y125292D01*
X238211Y125172D01*
X238247Y125051D01*
X238278Y124928D01*
X238306Y124805D01*
X238330Y124681D01*
X238350Y124556D01*
X238366Y124431D01*
X238378Y124305D01*
X238386Y124179D01*
X238390Y124053D01*
X238390Y123927D01*
X238386Y123801D01*
X238378Y123675D01*
X238366Y123549D01*
X238350Y123424D01*
X238330Y123299D01*
X238306Y123175D01*
X238278Y123052D01*
X238247Y122929D01*
X238211Y122808D01*
X238172Y122688D01*
X238129Y122569D01*
X238082Y122452D01*
X238032Y122336D01*
X237978Y122222D01*
X237920Y122110D01*
X237859Y121999D01*
X237795Y121891D01*
X237727Y121784D01*
X237656Y121680D01*
X237581Y121578D01*
X237503Y121478D01*
X237422Y121381D01*
X237339Y121287D01*
X237252Y121195D01*
X237162Y121106D01*
X237070Y121020D01*
X236975Y120937D01*
X236877Y120857D01*
X236777Y120780D01*
X236674Y120706D01*
X236569Y120636D01*
X236462Y120569D01*
X236353Y120505D01*
X236242Y120445D01*
X236130Y120388D01*
X236015Y120335D01*
X235899Y120285D01*
X235781Y120240D01*
X235662Y120198D01*
X235542Y120159D01*
X235420Y120125D01*
X235298Y120094D01*
X235174Y120068D01*
X235050Y120045D01*
X234925Y120026D01*
X234800Y120011D01*
X234674Y120000D01*
X234548Y119993D01*
X234422Y119990D01*
X234295Y119991D01*
X234169Y119996D01*
X234043Y120005D01*
X233917Y120018D01*
X233792Y120035D01*
X233668Y120056D01*
X233544Y120080D01*
X233421Y120109D01*
X233299Y120142D01*
X233178Y120178D01*
X233058Y120218D01*
X232940Y120262D01*
X232823Y120310D01*
X232707Y120361D01*
X232594Y120416D01*
X232482Y120474D01*
X232372Y120536D01*
X232264Y120602D01*
X232158Y120671D01*
X232054Y120743D01*
X231953Y120818D01*
X231854Y120897D01*
X231758Y120978D01*
X231664Y121063D01*
X231573Y121150D01*
X231485Y121241D01*
X231399Y121334D01*
X231317Y121430D01*
X231238Y121528D01*
X231161Y121629D01*
X231088Y121732D01*
X231019Y121837D01*
X230953Y121945D01*
X230890Y122054D01*
X230830Y122166D01*
X230774Y122279D01*
X230722Y122394D01*
X230674Y122510D01*
X230629Y122629D01*
X230588Y122748D01*
X230550Y122869D01*
X230517Y122990D01*
X230487Y123113D01*
X230462Y123237D01*
X230440Y123361D01*
X230422Y123486D01*
X230408Y123612D01*
X230398Y123738D01*
X230392Y123864D01*
X230390Y123990D01*
D10*
X215036Y133781D02*
X212581Y141147D01*
X217492Y141147D02*
X215036Y133781D01*
X221864Y133781D02*
X221864Y141147D01*
X219818Y141147D02*
X223910Y141147D01*
X226645Y139510D02*
X228691Y141147D01*
X228691Y133781D01*
X226645Y133781D02*
X230737Y133781D01*
D11*
X137100Y36400D02*
X137100Y18400D01*
X137100Y36400D02*
X147100Y36400D01*
X147100Y18400D01*
X137100Y18400D01*
D10*
X148753Y25581D02*
X156119Y25581D01*
X148753Y25581D02*
X148753Y27627D01*
X148755Y27716D01*
X148761Y27805D01*
X148771Y27894D01*
X148784Y27982D01*
X148801Y28070D01*
X148823Y28157D01*
X148848Y28242D01*
X148876Y28327D01*
X148909Y28410D01*
X148945Y28492D01*
X148984Y28572D01*
X149027Y28650D01*
X149073Y28726D01*
X149123Y28801D01*
X149176Y28873D01*
X149232Y28942D01*
X149291Y29009D01*
X149352Y29074D01*
X149417Y29135D01*
X149484Y29194D01*
X149553Y29250D01*
X149625Y29303D01*
X149700Y29353D01*
X149776Y29399D01*
X149854Y29442D01*
X149934Y29481D01*
X150016Y29517D01*
X150099Y29550D01*
X150184Y29578D01*
X150269Y29603D01*
X150356Y29625D01*
X150444Y29642D01*
X150532Y29655D01*
X150621Y29665D01*
X150710Y29671D01*
X150799Y29673D01*
X150888Y29671D01*
X150977Y29665D01*
X151066Y29655D01*
X151154Y29642D01*
X151242Y29625D01*
X151329Y29603D01*
X151414Y29578D01*
X151499Y29550D01*
X151582Y29517D01*
X151664Y29481D01*
X151744Y29442D01*
X151822Y29399D01*
X151898Y29353D01*
X151973Y29303D01*
X152045Y29250D01*
X152114Y29194D01*
X152181Y29135D01*
X152246Y29074D01*
X152307Y29009D01*
X152366Y28942D01*
X152422Y28873D01*
X152475Y28801D01*
X152525Y28726D01*
X152571Y28650D01*
X152614Y28572D01*
X152653Y28492D01*
X152689Y28410D01*
X152722Y28327D01*
X152750Y28242D01*
X152775Y28157D01*
X152797Y28070D01*
X152814Y27982D01*
X152827Y27894D01*
X152837Y27805D01*
X152843Y27716D01*
X152845Y27627D01*
X152845Y25581D01*
X152845Y28036D02*
X156119Y29673D01*
X150390Y32845D02*
X148753Y34891D01*
X156119Y34891D01*
X156119Y32845D02*
X156119Y36937D01*
D11*
X190900Y84700D02*
X190900Y102700D01*
X200900Y102700D01*
X200900Y84700D01*
X190900Y84700D01*
D10*
X187519Y90081D02*
X180153Y90081D01*
X180153Y92127D01*
X180155Y92216D01*
X180161Y92305D01*
X180171Y92394D01*
X180184Y92482D01*
X180201Y92570D01*
X180223Y92657D01*
X180248Y92742D01*
X180276Y92827D01*
X180309Y92910D01*
X180345Y92992D01*
X180384Y93072D01*
X180427Y93150D01*
X180473Y93226D01*
X180523Y93301D01*
X180576Y93373D01*
X180632Y93442D01*
X180691Y93509D01*
X180752Y93574D01*
X180817Y93635D01*
X180884Y93694D01*
X180953Y93750D01*
X181025Y93803D01*
X181100Y93853D01*
X181176Y93899D01*
X181254Y93942D01*
X181334Y93981D01*
X181416Y94017D01*
X181499Y94050D01*
X181584Y94078D01*
X181669Y94103D01*
X181756Y94125D01*
X181844Y94142D01*
X181932Y94155D01*
X182021Y94165D01*
X182110Y94171D01*
X182199Y94173D01*
X182288Y94171D01*
X182377Y94165D01*
X182466Y94155D01*
X182554Y94142D01*
X182642Y94125D01*
X182729Y94103D01*
X182814Y94078D01*
X182899Y94050D01*
X182982Y94017D01*
X183064Y93981D01*
X183144Y93942D01*
X183222Y93899D01*
X183298Y93853D01*
X183373Y93803D01*
X183445Y93750D01*
X183514Y93694D01*
X183581Y93635D01*
X183646Y93574D01*
X183707Y93509D01*
X183766Y93442D01*
X183822Y93373D01*
X183875Y93301D01*
X183925Y93226D01*
X183971Y93150D01*
X184014Y93072D01*
X184053Y92992D01*
X184089Y92910D01*
X184122Y92827D01*
X184150Y92742D01*
X184175Y92657D01*
X184197Y92570D01*
X184214Y92482D01*
X184227Y92394D01*
X184237Y92305D01*
X184243Y92216D01*
X184245Y92127D01*
X184245Y90081D01*
X184245Y92536D02*
X187519Y94173D01*
X181995Y101438D02*
X181910Y101436D01*
X181825Y101430D01*
X181741Y101420D01*
X181657Y101407D01*
X181573Y101389D01*
X181491Y101368D01*
X181410Y101343D01*
X181330Y101314D01*
X181251Y101281D01*
X181174Y101245D01*
X181099Y101205D01*
X181025Y101162D01*
X180954Y101116D01*
X180885Y101066D01*
X180818Y101013D01*
X180754Y100957D01*
X180693Y100898D01*
X180634Y100837D01*
X180578Y100773D01*
X180525Y100706D01*
X180475Y100637D01*
X180429Y100566D01*
X180386Y100492D01*
X180346Y100417D01*
X180310Y100340D01*
X180277Y100261D01*
X180248Y100181D01*
X180223Y100100D01*
X180202Y100018D01*
X180184Y99934D01*
X180171Y99850D01*
X180161Y99766D01*
X180155Y99681D01*
X180153Y99596D01*
X180155Y99500D01*
X180161Y99404D01*
X180171Y99309D01*
X180184Y99214D01*
X180202Y99119D01*
X180223Y99026D01*
X180248Y98933D01*
X180277Y98842D01*
X180309Y98751D01*
X180345Y98662D01*
X180385Y98575D01*
X180428Y98489D01*
X180474Y98405D01*
X180524Y98323D01*
X180578Y98243D01*
X180634Y98166D01*
X180694Y98091D01*
X180756Y98018D01*
X180822Y97948D01*
X180890Y97880D01*
X180961Y97815D01*
X181034Y97754D01*
X181110Y97695D01*
X181189Y97639D01*
X181269Y97587D01*
X181352Y97538D01*
X181436Y97492D01*
X181522Y97450D01*
X181610Y97412D01*
X181699Y97377D01*
X181790Y97345D01*
X183427Y100823D02*
X183368Y100883D01*
X183306Y100940D01*
X183242Y100995D01*
X183175Y101046D01*
X183106Y101095D01*
X183036Y101141D01*
X182963Y101184D01*
X182889Y101224D01*
X182813Y101260D01*
X182735Y101293D01*
X182656Y101323D01*
X182576Y101350D01*
X182495Y101373D01*
X182413Y101392D01*
X182331Y101408D01*
X182247Y101421D01*
X182163Y101430D01*
X182079Y101435D01*
X181995Y101437D01*
X183427Y100823D02*
X187519Y97345D01*
X187519Y101437D01*
D11*
X292600Y85700D02*
X292600Y67700D01*
X292600Y85700D02*
X302600Y85700D01*
X302600Y67700D01*
X292600Y67700D01*
D10*
X290219Y71581D02*
X282853Y71581D01*
X282853Y73627D01*
X282855Y73716D01*
X282861Y73805D01*
X282871Y73894D01*
X282884Y73982D01*
X282901Y74070D01*
X282923Y74157D01*
X282948Y74242D01*
X282976Y74327D01*
X283009Y74410D01*
X283045Y74492D01*
X283084Y74572D01*
X283127Y74650D01*
X283173Y74726D01*
X283223Y74801D01*
X283276Y74873D01*
X283332Y74942D01*
X283391Y75009D01*
X283452Y75074D01*
X283517Y75135D01*
X283584Y75194D01*
X283653Y75250D01*
X283725Y75303D01*
X283800Y75353D01*
X283876Y75399D01*
X283954Y75442D01*
X284034Y75481D01*
X284116Y75517D01*
X284199Y75550D01*
X284284Y75578D01*
X284369Y75603D01*
X284456Y75625D01*
X284544Y75642D01*
X284632Y75655D01*
X284721Y75665D01*
X284810Y75671D01*
X284899Y75673D01*
X284988Y75671D01*
X285077Y75665D01*
X285166Y75655D01*
X285254Y75642D01*
X285342Y75625D01*
X285429Y75603D01*
X285514Y75578D01*
X285599Y75550D01*
X285682Y75517D01*
X285764Y75481D01*
X285844Y75442D01*
X285922Y75399D01*
X285998Y75353D01*
X286073Y75303D01*
X286145Y75250D01*
X286214Y75194D01*
X286281Y75135D01*
X286346Y75074D01*
X286407Y75009D01*
X286466Y74942D01*
X286522Y74873D01*
X286575Y74801D01*
X286625Y74726D01*
X286671Y74650D01*
X286714Y74572D01*
X286753Y74492D01*
X286789Y74410D01*
X286822Y74327D01*
X286850Y74242D01*
X286875Y74157D01*
X286897Y74070D01*
X286914Y73982D01*
X286927Y73894D01*
X286937Y73805D01*
X286943Y73716D01*
X286945Y73627D01*
X286945Y71581D01*
X286945Y74036D02*
X290219Y75673D01*
X288582Y78845D02*
X282853Y80482D01*
X288582Y78845D02*
X288582Y82937D01*
X286945Y81710D02*
X290219Y81710D01*
D14*
X185100Y187700D02*
X119100Y187700D01*
X185100Y187700D02*
X185100Y153700D01*
X119100Y153700D01*
X119100Y187700D01*
D10*
X146311Y191871D02*
X146311Y199237D01*
X148357Y199237D01*
X148446Y199235D01*
X148535Y199229D01*
X148624Y199219D01*
X148712Y199206D01*
X148800Y199189D01*
X148887Y199167D01*
X148972Y199142D01*
X149057Y199114D01*
X149140Y199081D01*
X149222Y199045D01*
X149302Y199006D01*
X149380Y198963D01*
X149456Y198917D01*
X149531Y198867D01*
X149603Y198814D01*
X149672Y198758D01*
X149739Y198699D01*
X149804Y198638D01*
X149865Y198573D01*
X149924Y198506D01*
X149980Y198437D01*
X150033Y198365D01*
X150083Y198290D01*
X150129Y198214D01*
X150172Y198136D01*
X150211Y198056D01*
X150247Y197974D01*
X150280Y197891D01*
X150308Y197806D01*
X150333Y197721D01*
X150355Y197634D01*
X150372Y197546D01*
X150385Y197458D01*
X150395Y197369D01*
X150401Y197280D01*
X150403Y197191D01*
X150401Y197102D01*
X150395Y197013D01*
X150385Y196924D01*
X150372Y196836D01*
X150355Y196748D01*
X150333Y196661D01*
X150308Y196576D01*
X150280Y196491D01*
X150247Y196408D01*
X150211Y196326D01*
X150172Y196246D01*
X150129Y196168D01*
X150083Y196092D01*
X150033Y196017D01*
X149980Y195945D01*
X149924Y195876D01*
X149865Y195809D01*
X149804Y195744D01*
X149739Y195683D01*
X149672Y195624D01*
X149603Y195568D01*
X149531Y195515D01*
X149456Y195465D01*
X149380Y195419D01*
X149302Y195376D01*
X149222Y195337D01*
X149140Y195301D01*
X149057Y195268D01*
X148972Y195240D01*
X148887Y195215D01*
X148800Y195193D01*
X148712Y195176D01*
X148624Y195163D01*
X148535Y195153D01*
X148446Y195147D01*
X148357Y195145D01*
X146311Y195145D01*
X148766Y195145D02*
X150403Y191871D01*
X153575Y191871D02*
X155621Y191871D01*
X155710Y191873D01*
X155799Y191879D01*
X155888Y191889D01*
X155976Y191902D01*
X156064Y191919D01*
X156151Y191941D01*
X156236Y191966D01*
X156321Y191994D01*
X156404Y192027D01*
X156486Y192063D01*
X156566Y192102D01*
X156644Y192145D01*
X156720Y192191D01*
X156795Y192241D01*
X156867Y192294D01*
X156936Y192350D01*
X157003Y192409D01*
X157068Y192470D01*
X157129Y192535D01*
X157188Y192602D01*
X157244Y192671D01*
X157297Y192743D01*
X157347Y192818D01*
X157393Y192894D01*
X157436Y192972D01*
X157475Y193052D01*
X157511Y193134D01*
X157544Y193217D01*
X157572Y193302D01*
X157597Y193387D01*
X157619Y193474D01*
X157636Y193562D01*
X157649Y193650D01*
X157659Y193739D01*
X157665Y193828D01*
X157667Y193917D01*
X157665Y194006D01*
X157659Y194095D01*
X157649Y194184D01*
X157636Y194272D01*
X157619Y194360D01*
X157597Y194447D01*
X157572Y194532D01*
X157544Y194617D01*
X157511Y194700D01*
X157475Y194782D01*
X157436Y194862D01*
X157393Y194940D01*
X157347Y195016D01*
X157297Y195091D01*
X157244Y195163D01*
X157188Y195232D01*
X157129Y195299D01*
X157068Y195364D01*
X157003Y195425D01*
X156936Y195484D01*
X156867Y195540D01*
X156795Y195593D01*
X156720Y195643D01*
X156644Y195689D01*
X156566Y195732D01*
X156486Y195771D01*
X156404Y195807D01*
X156321Y195840D01*
X156236Y195868D01*
X156151Y195893D01*
X156064Y195915D01*
X155976Y195932D01*
X155888Y195945D01*
X155799Y195955D01*
X155710Y195961D01*
X155621Y195963D01*
X156030Y199237D02*
X153575Y199237D01*
X156030Y199237D02*
X156109Y199235D01*
X156188Y199229D01*
X156267Y199220D01*
X156345Y199207D01*
X156422Y199189D01*
X156498Y199169D01*
X156573Y199144D01*
X156647Y199116D01*
X156720Y199085D01*
X156791Y199049D01*
X156860Y199011D01*
X156927Y198969D01*
X156992Y198924D01*
X157055Y198876D01*
X157116Y198825D01*
X157173Y198771D01*
X157229Y198715D01*
X157281Y198656D01*
X157331Y198594D01*
X157377Y198530D01*
X157421Y198464D01*
X157461Y198396D01*
X157497Y198326D01*
X157531Y198254D01*
X157561Y198180D01*
X157587Y198106D01*
X157610Y198030D01*
X157628Y197953D01*
X157644Y197876D01*
X157655Y197797D01*
X157663Y197719D01*
X157667Y197640D01*
X157667Y197560D01*
X157663Y197481D01*
X157655Y197403D01*
X157644Y197324D01*
X157628Y197247D01*
X157610Y197170D01*
X157587Y197094D01*
X157561Y197020D01*
X157531Y196946D01*
X157497Y196874D01*
X157461Y196804D01*
X157421Y196736D01*
X157377Y196670D01*
X157331Y196606D01*
X157281Y196544D01*
X157229Y196485D01*
X157173Y196429D01*
X157116Y196375D01*
X157055Y196324D01*
X156992Y196276D01*
X156927Y196231D01*
X156860Y196189D01*
X156791Y196151D01*
X156720Y196115D01*
X156647Y196084D01*
X156573Y196056D01*
X156498Y196031D01*
X156422Y196011D01*
X156345Y195993D01*
X156267Y195980D01*
X156188Y195971D01*
X156109Y195965D01*
X156030Y195963D01*
X154393Y195963D01*
D14*
X398100Y110000D02*
X398100Y48000D01*
X398100Y110000D02*
X332100Y110000D01*
X332100Y48000D01*
X398100Y48000D01*
D10*
X325327Y113581D02*
X325327Y120947D01*
X323281Y120947D02*
X327373Y120947D01*
X330109Y119310D02*
X332155Y120947D01*
X332155Y113581D01*
X330109Y113581D02*
X334201Y113581D01*
D11*
X126100Y99400D02*
X126100Y81400D01*
X92100Y81400D01*
X92100Y99400D01*
X126100Y99400D01*
D10*
X106855Y101581D02*
X105218Y101581D01*
X105140Y101583D01*
X105062Y101588D01*
X104985Y101598D01*
X104908Y101611D01*
X104832Y101627D01*
X104757Y101647D01*
X104683Y101671D01*
X104610Y101698D01*
X104538Y101729D01*
X104468Y101763D01*
X104400Y101800D01*
X104333Y101841D01*
X104268Y101885D01*
X104206Y101931D01*
X104146Y101981D01*
X104088Y102033D01*
X104033Y102088D01*
X103981Y102146D01*
X103931Y102206D01*
X103885Y102268D01*
X103841Y102333D01*
X103800Y102400D01*
X103763Y102468D01*
X103729Y102538D01*
X103698Y102610D01*
X103671Y102683D01*
X103647Y102757D01*
X103627Y102832D01*
X103611Y102908D01*
X103598Y102985D01*
X103588Y103062D01*
X103583Y103140D01*
X103581Y103218D01*
X103581Y107310D01*
X103583Y107390D01*
X103589Y107470D01*
X103599Y107550D01*
X103612Y107629D01*
X103630Y107708D01*
X103651Y107785D01*
X103677Y107861D01*
X103706Y107936D01*
X103738Y108010D01*
X103774Y108082D01*
X103814Y108152D01*
X103857Y108219D01*
X103903Y108285D01*
X103953Y108348D01*
X104005Y108409D01*
X104060Y108468D01*
X104119Y108523D01*
X104179Y108575D01*
X104243Y108625D01*
X104309Y108671D01*
X104376Y108714D01*
X104446Y108754D01*
X104518Y108790D01*
X104592Y108822D01*
X104666Y108851D01*
X104743Y108877D01*
X104820Y108898D01*
X104899Y108916D01*
X104978Y108929D01*
X105058Y108939D01*
X105138Y108945D01*
X105218Y108947D01*
X106855Y108947D01*
X109700Y101581D02*
X111746Y101581D01*
X111835Y101583D01*
X111924Y101589D01*
X112013Y101599D01*
X112101Y101612D01*
X112189Y101629D01*
X112276Y101651D01*
X112361Y101676D01*
X112446Y101704D01*
X112529Y101737D01*
X112611Y101773D01*
X112691Y101812D01*
X112769Y101855D01*
X112845Y101901D01*
X112920Y101951D01*
X112992Y102004D01*
X113061Y102060D01*
X113128Y102119D01*
X113193Y102180D01*
X113254Y102245D01*
X113313Y102312D01*
X113369Y102381D01*
X113422Y102453D01*
X113472Y102528D01*
X113518Y102604D01*
X113561Y102682D01*
X113600Y102762D01*
X113636Y102844D01*
X113669Y102927D01*
X113697Y103012D01*
X113722Y103097D01*
X113744Y103184D01*
X113761Y103272D01*
X113774Y103360D01*
X113784Y103449D01*
X113790Y103538D01*
X113792Y103627D01*
X113790Y103716D01*
X113784Y103805D01*
X113774Y103894D01*
X113761Y103982D01*
X113744Y104070D01*
X113722Y104157D01*
X113697Y104242D01*
X113669Y104327D01*
X113636Y104410D01*
X113600Y104492D01*
X113561Y104572D01*
X113518Y104650D01*
X113472Y104726D01*
X113422Y104801D01*
X113369Y104873D01*
X113313Y104942D01*
X113254Y105009D01*
X113193Y105074D01*
X113128Y105135D01*
X113061Y105194D01*
X112992Y105250D01*
X112920Y105303D01*
X112845Y105353D01*
X112769Y105399D01*
X112691Y105442D01*
X112611Y105481D01*
X112529Y105517D01*
X112446Y105550D01*
X112361Y105578D01*
X112276Y105603D01*
X112189Y105625D01*
X112101Y105642D01*
X112013Y105655D01*
X111924Y105665D01*
X111835Y105671D01*
X111746Y105673D01*
X112155Y108947D02*
X109700Y108947D01*
X112155Y108947D02*
X112234Y108945D01*
X112313Y108939D01*
X112392Y108930D01*
X112470Y108917D01*
X112547Y108899D01*
X112623Y108879D01*
X112698Y108854D01*
X112772Y108826D01*
X112845Y108795D01*
X112916Y108759D01*
X112985Y108721D01*
X113052Y108679D01*
X113117Y108634D01*
X113180Y108586D01*
X113241Y108535D01*
X113298Y108481D01*
X113354Y108425D01*
X113406Y108366D01*
X113456Y108304D01*
X113502Y108240D01*
X113546Y108174D01*
X113586Y108106D01*
X113622Y108036D01*
X113656Y107964D01*
X113686Y107890D01*
X113712Y107816D01*
X113735Y107740D01*
X113753Y107663D01*
X113769Y107586D01*
X113780Y107507D01*
X113788Y107429D01*
X113792Y107350D01*
X113792Y107270D01*
X113788Y107191D01*
X113780Y107113D01*
X113769Y107034D01*
X113753Y106957D01*
X113735Y106880D01*
X113712Y106804D01*
X113686Y106730D01*
X113656Y106656D01*
X113622Y106584D01*
X113586Y106514D01*
X113546Y106446D01*
X113502Y106380D01*
X113456Y106316D01*
X113406Y106254D01*
X113354Y106195D01*
X113298Y106139D01*
X113241Y106085D01*
X113180Y106034D01*
X113117Y105986D01*
X113052Y105941D01*
X112985Y105899D01*
X112916Y105861D01*
X112845Y105825D01*
X112772Y105794D01*
X112698Y105766D01*
X112623Y105741D01*
X112547Y105721D01*
X112470Y105703D01*
X112392Y105690D01*
X112313Y105681D01*
X112234Y105675D01*
X112155Y105673D01*
X110519Y105673D01*
D11*
X125900Y68900D02*
X125900Y50900D01*
X91900Y50900D01*
X91900Y68900D01*
X125900Y68900D01*
D10*
X107955Y71881D02*
X106318Y71881D01*
X106240Y71883D01*
X106162Y71888D01*
X106085Y71898D01*
X106008Y71911D01*
X105932Y71927D01*
X105857Y71947D01*
X105783Y71971D01*
X105710Y71998D01*
X105638Y72029D01*
X105568Y72063D01*
X105500Y72100D01*
X105433Y72141D01*
X105368Y72185D01*
X105306Y72231D01*
X105246Y72281D01*
X105188Y72333D01*
X105133Y72388D01*
X105081Y72446D01*
X105031Y72506D01*
X104985Y72568D01*
X104941Y72633D01*
X104900Y72700D01*
X104863Y72768D01*
X104829Y72838D01*
X104798Y72910D01*
X104771Y72983D01*
X104747Y73057D01*
X104727Y73132D01*
X104711Y73208D01*
X104698Y73285D01*
X104688Y73362D01*
X104683Y73440D01*
X104681Y73518D01*
X104681Y77610D01*
X104683Y77690D01*
X104689Y77770D01*
X104699Y77850D01*
X104712Y77929D01*
X104730Y78008D01*
X104751Y78085D01*
X104777Y78161D01*
X104806Y78236D01*
X104838Y78310D01*
X104874Y78382D01*
X104914Y78452D01*
X104957Y78519D01*
X105003Y78585D01*
X105053Y78648D01*
X105105Y78709D01*
X105160Y78768D01*
X105219Y78823D01*
X105279Y78875D01*
X105343Y78925D01*
X105409Y78971D01*
X105476Y79014D01*
X105546Y79054D01*
X105618Y79090D01*
X105692Y79122D01*
X105766Y79151D01*
X105843Y79177D01*
X105920Y79198D01*
X105999Y79216D01*
X106078Y79229D01*
X106158Y79239D01*
X106238Y79245D01*
X106318Y79247D01*
X107955Y79247D01*
X113051Y79248D02*
X113136Y79246D01*
X113221Y79240D01*
X113305Y79230D01*
X113389Y79217D01*
X113473Y79199D01*
X113555Y79178D01*
X113636Y79153D01*
X113716Y79124D01*
X113795Y79091D01*
X113872Y79055D01*
X113947Y79015D01*
X114021Y78972D01*
X114092Y78926D01*
X114161Y78876D01*
X114228Y78823D01*
X114292Y78767D01*
X114353Y78708D01*
X114412Y78647D01*
X114468Y78583D01*
X114521Y78516D01*
X114571Y78447D01*
X114617Y78376D01*
X114660Y78302D01*
X114700Y78227D01*
X114736Y78150D01*
X114769Y78071D01*
X114798Y77991D01*
X114823Y77910D01*
X114844Y77828D01*
X114862Y77744D01*
X114875Y77660D01*
X114885Y77576D01*
X114891Y77491D01*
X114893Y77406D01*
X113051Y79247D02*
X112955Y79245D01*
X112859Y79239D01*
X112764Y79229D01*
X112669Y79216D01*
X112574Y79198D01*
X112481Y79177D01*
X112388Y79152D01*
X112297Y79123D01*
X112206Y79091D01*
X112117Y79055D01*
X112030Y79015D01*
X111944Y78972D01*
X111860Y78926D01*
X111778Y78876D01*
X111698Y78822D01*
X111621Y78766D01*
X111546Y78706D01*
X111473Y78644D01*
X111403Y78578D01*
X111335Y78510D01*
X111270Y78439D01*
X111209Y78366D01*
X111150Y78290D01*
X111094Y78211D01*
X111042Y78131D01*
X110993Y78048D01*
X110947Y77964D01*
X110905Y77878D01*
X110867Y77790D01*
X110832Y77701D01*
X110800Y77610D01*
X114278Y75974D02*
X114338Y76033D01*
X114395Y76095D01*
X114450Y76159D01*
X114501Y76226D01*
X114550Y76295D01*
X114596Y76365D01*
X114639Y76438D01*
X114679Y76512D01*
X114715Y76588D01*
X114748Y76666D01*
X114778Y76745D01*
X114805Y76825D01*
X114828Y76906D01*
X114847Y76988D01*
X114863Y77070D01*
X114876Y77154D01*
X114885Y77238D01*
X114890Y77322D01*
X114892Y77406D01*
X114278Y75973D02*
X110800Y71881D01*
X114892Y71881D01*
D11*
X126300Y40100D02*
X126300Y22100D01*
X92300Y22100D01*
X92300Y40100D01*
X126300Y40100D01*
D10*
X107655Y41681D02*
X106018Y41681D01*
X105940Y41683D01*
X105862Y41688D01*
X105785Y41698D01*
X105708Y41711D01*
X105632Y41727D01*
X105557Y41747D01*
X105483Y41771D01*
X105410Y41798D01*
X105338Y41829D01*
X105268Y41863D01*
X105200Y41900D01*
X105133Y41941D01*
X105068Y41985D01*
X105006Y42031D01*
X104946Y42081D01*
X104888Y42133D01*
X104833Y42188D01*
X104781Y42246D01*
X104731Y42306D01*
X104685Y42368D01*
X104641Y42433D01*
X104600Y42500D01*
X104563Y42568D01*
X104529Y42638D01*
X104498Y42710D01*
X104471Y42783D01*
X104447Y42857D01*
X104427Y42932D01*
X104411Y43008D01*
X104398Y43085D01*
X104388Y43162D01*
X104383Y43240D01*
X104381Y43318D01*
X104381Y47410D01*
X104383Y47490D01*
X104389Y47570D01*
X104399Y47650D01*
X104412Y47729D01*
X104430Y47808D01*
X104451Y47885D01*
X104477Y47961D01*
X104506Y48036D01*
X104538Y48110D01*
X104574Y48182D01*
X104614Y48252D01*
X104657Y48319D01*
X104703Y48385D01*
X104753Y48448D01*
X104805Y48509D01*
X104860Y48568D01*
X104919Y48623D01*
X104979Y48675D01*
X105043Y48725D01*
X105109Y48771D01*
X105176Y48814D01*
X105246Y48854D01*
X105318Y48890D01*
X105392Y48922D01*
X105466Y48951D01*
X105543Y48977D01*
X105620Y48998D01*
X105699Y49016D01*
X105778Y49029D01*
X105858Y49039D01*
X105938Y49045D01*
X106018Y49047D01*
X107655Y49047D01*
X110500Y47410D02*
X112546Y49047D01*
X112546Y41681D01*
X110500Y41681D02*
X114592Y41681D01*
D11*
X483400Y82300D02*
X483400Y100300D01*
X483400Y82300D02*
X449400Y82300D01*
X449400Y100300D01*
X483400Y100300D01*
D10*
X464955Y102281D02*
X463318Y102281D01*
X463240Y102283D01*
X463162Y102288D01*
X463085Y102298D01*
X463008Y102311D01*
X462932Y102327D01*
X462857Y102347D01*
X462783Y102371D01*
X462710Y102398D01*
X462638Y102429D01*
X462568Y102463D01*
X462500Y102500D01*
X462433Y102541D01*
X462368Y102585D01*
X462306Y102631D01*
X462246Y102681D01*
X462188Y102733D01*
X462133Y102788D01*
X462081Y102846D01*
X462031Y102906D01*
X461985Y102968D01*
X461941Y103033D01*
X461900Y103100D01*
X461863Y103168D01*
X461829Y103238D01*
X461798Y103310D01*
X461771Y103383D01*
X461747Y103457D01*
X461727Y103532D01*
X461711Y103608D01*
X461698Y103685D01*
X461688Y103762D01*
X461683Y103840D01*
X461681Y103918D01*
X461681Y108010D01*
X461683Y108090D01*
X461689Y108170D01*
X461699Y108250D01*
X461712Y108329D01*
X461730Y108408D01*
X461751Y108485D01*
X461777Y108561D01*
X461806Y108636D01*
X461838Y108710D01*
X461874Y108782D01*
X461914Y108852D01*
X461957Y108919D01*
X462003Y108985D01*
X462053Y109048D01*
X462105Y109109D01*
X462160Y109168D01*
X462219Y109223D01*
X462279Y109275D01*
X462343Y109325D01*
X462409Y109371D01*
X462476Y109414D01*
X462546Y109454D01*
X462618Y109490D01*
X462692Y109522D01*
X462766Y109551D01*
X462843Y109577D01*
X462920Y109598D01*
X462999Y109616D01*
X463078Y109629D01*
X463158Y109639D01*
X463238Y109645D01*
X463318Y109647D01*
X464955Y109647D01*
X467800Y106373D02*
X470255Y106373D01*
X470333Y106371D01*
X470411Y106366D01*
X470488Y106356D01*
X470565Y106343D01*
X470641Y106327D01*
X470716Y106307D01*
X470790Y106283D01*
X470863Y106256D01*
X470935Y106225D01*
X471005Y106191D01*
X471074Y106154D01*
X471140Y106113D01*
X471205Y106069D01*
X471267Y106023D01*
X471327Y105973D01*
X471385Y105921D01*
X471440Y105866D01*
X471492Y105808D01*
X471542Y105748D01*
X471588Y105686D01*
X471632Y105621D01*
X471673Y105555D01*
X471710Y105486D01*
X471744Y105416D01*
X471775Y105344D01*
X471802Y105271D01*
X471826Y105197D01*
X471846Y105122D01*
X471862Y105046D01*
X471875Y104969D01*
X471885Y104892D01*
X471890Y104814D01*
X471892Y104736D01*
X471892Y104327D01*
X471890Y104238D01*
X471884Y104149D01*
X471874Y104060D01*
X471861Y103972D01*
X471844Y103884D01*
X471822Y103797D01*
X471797Y103712D01*
X471769Y103627D01*
X471736Y103544D01*
X471700Y103462D01*
X471661Y103382D01*
X471618Y103304D01*
X471572Y103228D01*
X471522Y103153D01*
X471469Y103081D01*
X471413Y103012D01*
X471354Y102945D01*
X471293Y102880D01*
X471228Y102819D01*
X471161Y102760D01*
X471092Y102704D01*
X471020Y102651D01*
X470945Y102601D01*
X470869Y102555D01*
X470791Y102512D01*
X470711Y102473D01*
X470629Y102437D01*
X470546Y102404D01*
X470461Y102376D01*
X470376Y102351D01*
X470289Y102329D01*
X470201Y102312D01*
X470113Y102299D01*
X470024Y102289D01*
X469935Y102283D01*
X469846Y102281D01*
X469757Y102283D01*
X469668Y102289D01*
X469579Y102299D01*
X469491Y102312D01*
X469403Y102329D01*
X469316Y102351D01*
X469231Y102376D01*
X469146Y102404D01*
X469063Y102437D01*
X468981Y102473D01*
X468901Y102512D01*
X468823Y102555D01*
X468747Y102601D01*
X468672Y102651D01*
X468600Y102704D01*
X468531Y102760D01*
X468464Y102819D01*
X468399Y102880D01*
X468338Y102945D01*
X468279Y103012D01*
X468223Y103081D01*
X468170Y103153D01*
X468120Y103228D01*
X468074Y103304D01*
X468031Y103382D01*
X467992Y103462D01*
X467956Y103544D01*
X467923Y103627D01*
X467895Y103712D01*
X467870Y103797D01*
X467848Y103884D01*
X467831Y103972D01*
X467818Y104060D01*
X467808Y104149D01*
X467802Y104238D01*
X467800Y104327D01*
X467800Y106373D01*
X467802Y106487D01*
X467808Y106601D01*
X467818Y106715D01*
X467832Y106829D01*
X467850Y106942D01*
X467872Y107054D01*
X467897Y107165D01*
X467927Y107275D01*
X467960Y107385D01*
X467997Y107493D01*
X468038Y107599D01*
X468083Y107705D01*
X468131Y107808D01*
X468183Y107910D01*
X468239Y108010D01*
X468297Y108108D01*
X468360Y108204D01*
X468425Y108297D01*
X468494Y108389D01*
X468566Y108477D01*
X468641Y108564D01*
X468719Y108647D01*
X468800Y108728D01*
X468883Y108806D01*
X468970Y108881D01*
X469058Y108953D01*
X469150Y109022D01*
X469243Y109087D01*
X469339Y109149D01*
X469437Y109208D01*
X469537Y109264D01*
X469639Y109316D01*
X469742Y109364D01*
X469848Y109409D01*
X469954Y109450D01*
X470062Y109487D01*
X470172Y109520D01*
X470282Y109550D01*
X470393Y109575D01*
X470505Y109597D01*
X470618Y109615D01*
X470732Y109629D01*
X470846Y109639D01*
X470960Y109645D01*
X471074Y109647D01*
D11*
X482800Y70800D02*
X482800Y52800D01*
X448800Y52800D01*
X448800Y70800D01*
X482800Y70800D01*
D10*
X464055Y72981D02*
X462418Y72981D01*
X462340Y72983D01*
X462262Y72988D01*
X462185Y72998D01*
X462108Y73011D01*
X462032Y73027D01*
X461957Y73047D01*
X461883Y73071D01*
X461810Y73098D01*
X461738Y73129D01*
X461668Y73163D01*
X461600Y73200D01*
X461533Y73241D01*
X461468Y73285D01*
X461406Y73331D01*
X461346Y73381D01*
X461288Y73433D01*
X461233Y73488D01*
X461181Y73546D01*
X461131Y73606D01*
X461085Y73668D01*
X461041Y73733D01*
X461000Y73800D01*
X460963Y73868D01*
X460929Y73938D01*
X460898Y74010D01*
X460871Y74083D01*
X460847Y74157D01*
X460827Y74232D01*
X460811Y74308D01*
X460798Y74385D01*
X460788Y74462D01*
X460783Y74540D01*
X460781Y74618D01*
X460781Y78710D01*
X460783Y78790D01*
X460789Y78870D01*
X460799Y78950D01*
X460812Y79029D01*
X460830Y79108D01*
X460851Y79185D01*
X460877Y79261D01*
X460906Y79336D01*
X460938Y79410D01*
X460974Y79482D01*
X461014Y79552D01*
X461057Y79619D01*
X461103Y79685D01*
X461153Y79748D01*
X461205Y79809D01*
X461260Y79868D01*
X461319Y79923D01*
X461379Y79975D01*
X461443Y80025D01*
X461509Y80071D01*
X461576Y80114D01*
X461646Y80154D01*
X461718Y80190D01*
X461792Y80222D01*
X461866Y80251D01*
X461943Y80277D01*
X462020Y80298D01*
X462099Y80316D01*
X462178Y80329D01*
X462258Y80339D01*
X462338Y80345D01*
X462418Y80347D01*
X464055Y80347D01*
X466900Y80347D02*
X466900Y79529D01*
X466900Y80347D02*
X470992Y80347D01*
X468946Y72981D01*
D11*
X483700Y43200D02*
X483700Y25200D01*
X449700Y25200D01*
X449700Y43200D01*
X483700Y43200D01*
D10*
X463455Y44481D02*
X461818Y44481D01*
X461740Y44483D01*
X461662Y44488D01*
X461585Y44498D01*
X461508Y44511D01*
X461432Y44527D01*
X461357Y44547D01*
X461283Y44571D01*
X461210Y44598D01*
X461138Y44629D01*
X461068Y44663D01*
X461000Y44700D01*
X460933Y44741D01*
X460868Y44785D01*
X460806Y44831D01*
X460746Y44881D01*
X460688Y44933D01*
X460633Y44988D01*
X460581Y45046D01*
X460531Y45106D01*
X460485Y45168D01*
X460441Y45233D01*
X460400Y45300D01*
X460363Y45368D01*
X460329Y45438D01*
X460298Y45510D01*
X460271Y45583D01*
X460247Y45657D01*
X460227Y45732D01*
X460211Y45808D01*
X460198Y45885D01*
X460188Y45962D01*
X460183Y46040D01*
X460181Y46118D01*
X460181Y50210D01*
X460183Y50290D01*
X460189Y50370D01*
X460199Y50450D01*
X460212Y50529D01*
X460230Y50608D01*
X460251Y50685D01*
X460277Y50761D01*
X460306Y50836D01*
X460338Y50910D01*
X460374Y50982D01*
X460414Y51052D01*
X460457Y51119D01*
X460503Y51185D01*
X460553Y51248D01*
X460605Y51309D01*
X460660Y51368D01*
X460719Y51423D01*
X460779Y51475D01*
X460843Y51525D01*
X460909Y51571D01*
X460976Y51614D01*
X461046Y51654D01*
X461118Y51690D01*
X461192Y51722D01*
X461266Y51751D01*
X461343Y51777D01*
X461420Y51798D01*
X461499Y51816D01*
X461578Y51829D01*
X461658Y51839D01*
X461738Y51845D01*
X461818Y51847D01*
X463455Y51847D01*
X466300Y46527D02*
X466302Y46616D01*
X466308Y46705D01*
X466318Y46794D01*
X466331Y46882D01*
X466348Y46970D01*
X466370Y47057D01*
X466395Y47142D01*
X466423Y47227D01*
X466456Y47310D01*
X466492Y47392D01*
X466531Y47472D01*
X466574Y47550D01*
X466620Y47626D01*
X466670Y47701D01*
X466723Y47773D01*
X466779Y47842D01*
X466838Y47909D01*
X466899Y47974D01*
X466964Y48035D01*
X467031Y48094D01*
X467100Y48150D01*
X467172Y48203D01*
X467247Y48253D01*
X467323Y48299D01*
X467401Y48342D01*
X467481Y48381D01*
X467563Y48417D01*
X467646Y48450D01*
X467731Y48478D01*
X467816Y48503D01*
X467903Y48525D01*
X467991Y48542D01*
X468079Y48555D01*
X468168Y48565D01*
X468257Y48571D01*
X468346Y48573D01*
X468435Y48571D01*
X468524Y48565D01*
X468613Y48555D01*
X468701Y48542D01*
X468789Y48525D01*
X468876Y48503D01*
X468961Y48478D01*
X469046Y48450D01*
X469129Y48417D01*
X469211Y48381D01*
X469291Y48342D01*
X469369Y48299D01*
X469445Y48253D01*
X469520Y48203D01*
X469592Y48150D01*
X469661Y48094D01*
X469728Y48035D01*
X469793Y47974D01*
X469854Y47909D01*
X469913Y47842D01*
X469969Y47773D01*
X470022Y47701D01*
X470072Y47626D01*
X470118Y47550D01*
X470161Y47472D01*
X470200Y47392D01*
X470236Y47310D01*
X470269Y47227D01*
X470297Y47142D01*
X470322Y47057D01*
X470344Y46970D01*
X470361Y46882D01*
X470374Y46794D01*
X470384Y46705D01*
X470390Y46616D01*
X470392Y46527D01*
X470390Y46438D01*
X470384Y46349D01*
X470374Y46260D01*
X470361Y46172D01*
X470344Y46084D01*
X470322Y45997D01*
X470297Y45912D01*
X470269Y45827D01*
X470236Y45744D01*
X470200Y45662D01*
X470161Y45582D01*
X470118Y45504D01*
X470072Y45428D01*
X470022Y45353D01*
X469969Y45281D01*
X469913Y45212D01*
X469854Y45145D01*
X469793Y45080D01*
X469728Y45019D01*
X469661Y44960D01*
X469592Y44904D01*
X469520Y44851D01*
X469445Y44801D01*
X469369Y44755D01*
X469291Y44712D01*
X469211Y44673D01*
X469129Y44637D01*
X469046Y44604D01*
X468961Y44576D01*
X468876Y44551D01*
X468789Y44529D01*
X468701Y44512D01*
X468613Y44499D01*
X468524Y44489D01*
X468435Y44483D01*
X468346Y44481D01*
X468257Y44483D01*
X468168Y44489D01*
X468079Y44499D01*
X467991Y44512D01*
X467903Y44529D01*
X467816Y44551D01*
X467731Y44576D01*
X467646Y44604D01*
X467563Y44637D01*
X467481Y44673D01*
X467401Y44712D01*
X467323Y44755D01*
X467247Y44801D01*
X467172Y44851D01*
X467100Y44904D01*
X467031Y44960D01*
X466964Y45019D01*
X466899Y45080D01*
X466838Y45145D01*
X466779Y45212D01*
X466723Y45281D01*
X466670Y45353D01*
X466620Y45428D01*
X466574Y45504D01*
X466531Y45582D01*
X466492Y45662D01*
X466456Y45744D01*
X466423Y45827D01*
X466395Y45912D01*
X466370Y45997D01*
X466348Y46084D01*
X466331Y46172D01*
X466318Y46260D01*
X466308Y46349D01*
X466302Y46438D01*
X466300Y46527D01*
X466709Y50210D02*
X466711Y50289D01*
X466717Y50368D01*
X466726Y50447D01*
X466739Y50525D01*
X466757Y50602D01*
X466777Y50678D01*
X466802Y50753D01*
X466830Y50827D01*
X466861Y50900D01*
X466897Y50971D01*
X466935Y51040D01*
X466977Y51107D01*
X467022Y51172D01*
X467070Y51235D01*
X467121Y51296D01*
X467175Y51353D01*
X467231Y51409D01*
X467290Y51461D01*
X467352Y51511D01*
X467416Y51557D01*
X467482Y51601D01*
X467550Y51641D01*
X467620Y51677D01*
X467692Y51711D01*
X467766Y51741D01*
X467840Y51767D01*
X467916Y51790D01*
X467993Y51808D01*
X468070Y51824D01*
X468149Y51835D01*
X468227Y51843D01*
X468306Y51847D01*
X468386Y51847D01*
X468465Y51843D01*
X468543Y51835D01*
X468622Y51824D01*
X468699Y51808D01*
X468776Y51790D01*
X468852Y51767D01*
X468926Y51741D01*
X469000Y51711D01*
X469072Y51677D01*
X469142Y51641D01*
X469210Y51601D01*
X469276Y51557D01*
X469340Y51511D01*
X469402Y51461D01*
X469461Y51409D01*
X469517Y51353D01*
X469571Y51296D01*
X469622Y51235D01*
X469670Y51172D01*
X469715Y51107D01*
X469757Y51040D01*
X469795Y50971D01*
X469831Y50900D01*
X469862Y50827D01*
X469890Y50753D01*
X469915Y50678D01*
X469935Y50602D01*
X469953Y50525D01*
X469966Y50447D01*
X469975Y50368D01*
X469981Y50289D01*
X469983Y50210D01*
X469981Y50131D01*
X469975Y50052D01*
X469966Y49973D01*
X469953Y49895D01*
X469935Y49818D01*
X469915Y49742D01*
X469890Y49667D01*
X469862Y49593D01*
X469831Y49520D01*
X469795Y49449D01*
X469757Y49380D01*
X469715Y49313D01*
X469670Y49248D01*
X469622Y49185D01*
X469571Y49124D01*
X469517Y49067D01*
X469461Y49011D01*
X469402Y48959D01*
X469340Y48909D01*
X469276Y48863D01*
X469210Y48819D01*
X469142Y48779D01*
X469072Y48743D01*
X469000Y48709D01*
X468926Y48679D01*
X468852Y48653D01*
X468776Y48630D01*
X468699Y48612D01*
X468622Y48596D01*
X468543Y48585D01*
X468465Y48577D01*
X468386Y48573D01*
X468306Y48573D01*
X468227Y48577D01*
X468149Y48585D01*
X468070Y48596D01*
X467993Y48612D01*
X467916Y48630D01*
X467840Y48653D01*
X467766Y48679D01*
X467692Y48709D01*
X467620Y48743D01*
X467550Y48779D01*
X467482Y48819D01*
X467416Y48863D01*
X467352Y48909D01*
X467290Y48959D01*
X467231Y49011D01*
X467175Y49067D01*
X467121Y49124D01*
X467070Y49185D01*
X467022Y49248D01*
X466977Y49313D01*
X466935Y49380D01*
X466897Y49449D01*
X466861Y49520D01*
X466830Y49593D01*
X466802Y49667D01*
X466777Y49742D01*
X466757Y49818D01*
X466739Y49895D01*
X466726Y49973D01*
X466717Y50052D01*
X466711Y50131D01*
X466709Y50210D01*
M02*
