G04 EAGLE Gerber RS-274X export*
G75*
%MOMM*%
%FSLAX34Y34*%
%LPD*%
%INSolderpaste Top*%
%IPPOS*%
%AMOC8*
5,1,8,0,0,1.08239X$1,22.5*%
G01*
%ADD10R,1.200000X2.000000*%
%ADD11R,1.800000X3.000000*%
%ADD12R,1.700000X2.250000*%
%ADD13R,2.850000X3.000000*%
%ADD14R,2.200000X0.800000*%
%ADD15R,1.200000X0.900000*%
%ADD16R,2.700000X2.500000*%
%ADD17R,2.600000X1.060000*%
%ADD18R,5.700000X5.632000*%


D10*
X93500Y119900D03*
X123500Y119900D03*
X451900Y120200D03*
X481900Y120200D03*
D11*
X233800Y170800D03*
X307800Y170800D03*
D12*
X465200Y148650D03*
X465200Y193150D03*
D13*
X351050Y176300D03*
X401550Y176300D03*
D14*
X274300Y65850D03*
X274300Y53150D03*
X274300Y40450D03*
X274300Y27750D03*
X216900Y65850D03*
X216900Y53150D03*
X216900Y40450D03*
X216900Y27750D03*
X274200Y124550D03*
X274200Y111850D03*
X274200Y99150D03*
X274200Y86450D03*
X216800Y124550D03*
X216800Y111850D03*
X216800Y99150D03*
X216800Y86450D03*
D15*
X142100Y19900D03*
X142100Y34900D03*
X195900Y86200D03*
X195900Y101200D03*
X297600Y69200D03*
X297600Y84200D03*
D16*
X119100Y170700D03*
X185100Y170700D03*
D17*
X314100Y56140D03*
X314100Y101860D03*
D18*
X390100Y79000D03*
D10*
X94100Y90400D03*
X124100Y90400D03*
X93900Y59900D03*
X123900Y59900D03*
X94300Y31100D03*
X124300Y31100D03*
X451400Y91300D03*
X481400Y91300D03*
X450800Y61800D03*
X480800Y61800D03*
X451700Y34200D03*
X481700Y34200D03*
M02*
