M48
;GenerationSoftware,Autodesk,EAGLE,9.4.2*%
;CreationDate,2023-10-19T11:13:47Z*%
FMAT,2
ICI,OFF
METRIC,TZ,000.000
T4C0.350
T3C0.700
T2C1.500
T1C3.100
%
G90
M71
T1
X54000Y4000
X4000Y18000
X4000Y4000
X54000Y18000
T2
X5970Y12950
X51000Y13000
X51000Y9000
X6000Y9000
T3
X17260Y12460
X17240Y7000
X14700Y7000
X14720Y12460
T4
X37000Y9000
X37000Y8000
X38000Y8000
X39000Y8000
X38000Y9000
X41000Y9000
X41000Y8000
X37000Y7000
X38000Y7000
X39000Y7000
X40000Y7000
X41000Y7000
X37000Y6000
X38000Y6000
X39000Y6000
X40000Y6000
X38000Y10000
X39000Y9000
X15965Y6675
X10573Y12013
X9000Y16000
X31000Y9000
X8000Y12000
X20000Y2000
X36000Y4000
X3000Y11000
X18740Y5310
X50000Y17000
X43000Y16000
X19465Y11995
X54000Y11000
X18105Y8895
X24970Y6510
X25000Y4000
X31000Y14000
X33000Y16000
X41000Y6000
X41000Y10000
X37000Y10000
X39000Y10000
X40000Y10000
X40000Y9000
X40000Y8000
X50000Y3000
M30